<?xml version="1.0" encoding="UTF-8" standalone="no"?>
<!-- Created with Inkscape (http://www.inkscape.org/) -->

<svg
   xmlns:dc="http://purl.org/dc/elements/1.1/"
   xmlns:cc="http://creativecommons.org/ns#"
   xmlns:rdf="http://www.w3.org/1999/02/22-rdf-syntax-ns#"
   xmlns:svg="http://www.w3.org/2000/svg"
   xmlns="http://www.w3.org/2000/svg"
   xmlns:sodipodi="http://sodipodi.sourceforge.net/DTD/sodipodi-0.dtd"
   xmlns:inkscape="http://www.inkscape.org/namespaces/inkscape"
   width="1337.6145mm"
   height="415.86136mm"
   viewBox="0 0 1337.6145 415.86136"
   version="1.1"
   id="svg8"
   inkscape:version="0.92.5 (2060ec1f9f, 2020-04-08)"
   sodipodi:docname="flow.svg">
  <defs
     id="defs2">
    <marker
       inkscape:stockid="TriangleInS"
       orient="auto"
       refY="0"
       refX="0"
       id="TriangleInS"
       style="overflow:visible"
       inkscape:isstock="true">
      <path
         id="path1459"
         d="M 5.77,0 -2.88,5 V -5 Z"
         style="fill:#011f32;fill-opacity:1;fill-rule:evenodd;stroke:#011f32;stroke-width:1.00000003pt;stroke-opacity:1"
         transform="scale(-0.2)"
         inkscape:connector-curvature="0" />
    </marker>
    <marker
       inkscape:isstock="true"
       style="overflow:visible"
       id="marker6704"
       refX="0"
       refY="0"
       orient="auto"
       inkscape:stockid="TriangleOutS">
      <path
         transform="scale(0.2)"
         style="fill:#000000;fill-opacity:1;fill-rule:evenodd;stroke:#000000;stroke-width:1.00000003pt;stroke-opacity:1"
         d="M 5.77,0 -2.88,5 V -5 Z"
         id="path6702"
         inkscape:connector-curvature="0" />
    </marker>
    <marker
       inkscape:stockid="TriangleOutS"
       orient="auto"
       refY="0"
       refX="0"
       id="TriangleOutS"
       style="overflow:visible"
       inkscape:isstock="true"
       inkscape:collect="always">
      <path
         id="path1468"
         d="M 5.77,0 -2.88,5 V -5 Z"
         style="fill:#011f32;fill-opacity:1;fill-rule:evenodd;stroke:#011f32;stroke-width:1.00000003pt;stroke-opacity:1"
         transform="scale(0.2)"
         inkscape:connector-curvature="0" />
    </marker>
    <marker
       inkscape:stockid="TriangleOutM"
       orient="auto"
       refY="0"
       refX="0"
       id="TriangleOutM"
       style="overflow:visible"
       inkscape:isstock="true">
      <path
         id="path1465"
         d="M 5.77,0 -2.88,5 V -5 Z"
         style="fill:#000000;fill-opacity:1;fill-rule:evenodd;stroke:#000000;stroke-width:1.00000003pt;stroke-opacity:1"
         transform="scale(0.4)"
         inkscape:connector-curvature="0" />
    </marker>
    <marker
       inkscape:stockid="Arrow2Send"
       orient="auto"
       refY="0"
       refX="0"
       id="Arrow2Send"
       style="overflow:visible"
       inkscape:isstock="true">
      <path
         id="path1353"
         style="fill:#000000;fill-opacity:1;fill-rule:evenodd;stroke:#000000;stroke-width:0.625;stroke-linejoin:round;stroke-opacity:1"
         d="M 8.7185878,4.0337352 -2.2072895,0.01601326 8.7185884,-4.0017078 c -1.7454984,2.3720609 -1.7354408,5.6174519 -6e-7,8.035443 z"
         transform="matrix(-0.3,0,0,-0.3,0.69,0)"
         inkscape:connector-curvature="0" />
    </marker>
    <marker
       inkscape:stockid="Arrow1Send"
       orient="auto"
       refY="0"
       refX="0"
       id="Arrow1Send"
       style="overflow:visible"
       inkscape:isstock="true">
      <path
         id="path1335"
         d="M 0,0 5,-5 -12.5,0 5,5 Z"
         style="fill:#000000;fill-opacity:1;fill-rule:evenodd;stroke:#000000;stroke-width:1.00000003pt;stroke-opacity:1"
         transform="matrix(-0.2,0,0,-0.2,-1.2,0)"
         inkscape:connector-curvature="0" />
    </marker>
    <marker
       inkscape:stockid="TriangleOutS"
       orient="auto"
       refY="0"
       refX="0"
       id="TriangleOutS-5"
       style="overflow:visible"
       inkscape:isstock="true">
      <path
         inkscape:connector-curvature="0"
         id="path1468-3"
         d="M 5.77,0 -2.88,5 V -5 Z"
         style="fill:#011f32;fill-opacity:1;fill-rule:evenodd;stroke:#011f32;stroke-width:1.00000003pt;stroke-opacity:1"
         transform="scale(0.2)" />
    </marker>
    <marker
       inkscape:stockid="TriangleOutS"
       orient="auto"
       refY="0"
       refX="0"
       id="TriangleOutS-5-6"
       style="overflow:visible"
       inkscape:isstock="true">
      <path
         inkscape:connector-curvature="0"
         id="path1468-3-2"
         d="M 5.77,0 -2.88,5 V -5 Z"
         style="fill:#011f32;fill-opacity:1;fill-rule:evenodd;stroke:#011f32;stroke-width:1.00000003pt;stroke-opacity:1"
         transform="scale(0.2)" />
    </marker>
    <marker
       inkscape:stockid="TriangleOutS"
       orient="auto"
       refY="0"
       refX="0"
       id="TriangleOutS-5-6-1"
       style="overflow:visible"
       inkscape:isstock="true">
      <path
         inkscape:connector-curvature="0"
         id="path1468-3-2-2"
         d="M 5.77,0 -2.88,5 V -5 Z"
         style="fill:#011f32;fill-opacity:1;fill-rule:evenodd;stroke:#011f32;stroke-width:1.00000003pt;stroke-opacity:1"
         transform="scale(0.2)" />
    </marker>
    <marker
       inkscape:stockid="TriangleOutS"
       orient="auto"
       refY="0"
       refX="0"
       id="TriangleOutS-5-0"
       style="overflow:visible"
       inkscape:isstock="true">
      <path
         inkscape:connector-curvature="0"
         id="path1468-3-9"
         d="M 5.77,0 -2.88,5 V -5 Z"
         style="fill:#011f32;fill-opacity:1;fill-rule:evenodd;stroke:#011f32;stroke-width:1.00000003pt;stroke-opacity:1"
         transform="scale(0.2)" />
    </marker>
  </defs>
  <sodipodi:namedview
     id="base"
     pagecolor="#ffffff"
     bordercolor="#666666"
     borderopacity="1.0"
     inkscape:pageopacity="0.0"
     inkscape:pageshadow="2"
     inkscape:zoom="0.125"
     inkscape:cx="1423.7752"
     inkscape:cy="2180.4755"
     inkscape:document-units="mm"
     inkscape:current-layer="g1289"
     showgrid="false"
     inkscape:window-width="1908"
     inkscape:window-height="1165"
     inkscape:window-x="6"
     inkscape:window-y="29"
     inkscape:window-maximized="0"
     showguides="true"
     inkscape:guide-bbox="true"
     fit-margin-top="0"
     fit-margin-left="0"
     fit-margin-right="0"
     fit-margin-bottom="0">
    <inkscape:grid
       type="xygrid"
       id="grid2167"
       originx="229.68929"
       originy="108.55476" />
  </sodipodi:namedview>
  <metadata
     id="metadata5">
    <rdf:RDF>
      <cc:Work
         rdf:about="">
        <dc:format>image/svg+xml</dc:format>
        <dc:type
           rdf:resource="http://purl.org/dc/dcmitype/StillImage" />
        <dc:title></dc:title>
      </cc:Work>
    </rdf:RDF>
  </metadata>
  <g
     inkscape:label="Ebene 1"
     inkscape:groupmode="layer"
     id="layer1"
     transform="translate(229.68931,10.306603)">
    <path
       id="path922"
       d="m 100.14732,388.62142 c 0,4.68313 3.78354,8.46667 8.46667,8.46667 h 101.6 c 4.68313,0 8.46667,-3.78354 8.46667,-8.46667 v -76.2 H 100.14732 Z m 42.33334,-56.09166 c 0,-1.74625 1.42875,-3.175 3.175,-3.175 h 27.51667 c 1.74625,0 3.175,1.42875 3.175,3.175 v 2.11666 c 0,1.74625 -1.42875,3.175 -3.175,3.175 h -27.51667 c -1.74625,0 -3.175,-1.42875 -3.175,-3.175 z m 76.2,-53.975 H 100.14732 c -4.683116,0 -8.466666,3.78354 -8.466666,8.46666 v 12.7 c 0,2.32834 1.905,4.23334 4.23334,4.23334 H 222.91399 c 2.32834,0 4.23334,-1.905 4.23334,-4.23334 v -12.7 c 0,-4.68312 -3.78355,-8.46666 -8.46667,-8.46666 z"
       inkscape:connector-curvature="0"
       style="fill:#98a4ae;fill-opacity:1;stroke-width:0.26458332" />
    <path
       style="fill:currentColor;stroke-width:0.26458332"
       inkscape:connector-curvature="0"
       d=""
       class="fa-secondary"
       id="path1012" />
    <path
       id="path1077"
       class=""
       d="M 77.639214,9.9878343 198.47973,48.958314 h 44.34152 l 1.03981,-3.10885 a 4.2333333,4.2333333 0 0 0 -2.67229,-5.35781 L 84.351696,-10.088736 a 4.2333333,4.2333333 0 0 0 -5.355172,2.67229 l -4.0296,12.0464733 a 4.2333333,4.2333333 0 0 0 2.67229,5.357807 z m 5.574772,47.4371497 a 8.4666667,8.4666667 0 0 0 -8.466662,8.46667 v 33.866559 a 8.4666667,8.4666667 0 0 0 8.466662,8.466667 H 235.614 a 8.4666667,8.4666667 0 0 0 8.46666,-8.466667 V 57.424984 Z m 23.283344,29.633301 a 2.1166667,2.1166667 0 0 1 -2.11667,2.116658 h -8.466674 a 2.1166667,2.1166667 0 0 1 -2.11666,-2.116658 v -8.466632 a 2.1166667,2.1166667 0 0 1 2.11666,-2.116669 h 8.466674 a 2.1166667,2.1166667 0 0 1 2.11667,2.116669 z m 25.4,0 a 2.1166667,2.1166667 0 0 1 -2.11667,2.116658 h -8.46667 a 2.1166667,2.1166667 0 0 1 -2.11666,-2.116658 v -8.466632 a 2.1166667,2.1166667 0 0 1 2.11666,-2.116669 h 8.46667 a 2.1166667,2.1166667 0 0 1 2.11667,2.116669 z"
       inkscape:connector-curvature="0"
       style="fill:#98a4ae;fill-opacity:1;stroke-width:0.26458332" />
    <g
       id="g1172"
       transform="translate(98.954163,-0.52916663)"
       style="fill:#98a4ae;fill-opacity:1">
      <path
         style="fill:#98a4ae;fill-opacity:1;stroke-width:0.99999994"
         d="M 2015.748,27.091797 A 160,160 0 0 0 1851.1113,187.06055 c 0,2.7 0.101,5.39961 0.2012,8.09961 a 144,144 0 0 0 47.7988,279.90039 h 368 a 128,128 0 0 0 128,-128 128,128 0 0 0 -102.3984,-125.40039 96.66,96.66 0 0 0 6.3984,-34.59961 95.950001,95.950001 0 0 0 -149.2988,-79.80078 160,160 0 0 0 -134.0645,-80.167973 z m 68.6368,134.988283 c 14.1254,0 22.1621,7.55496 22.1621,21.42383 0,13.8861 -8.0367,21.92968 -22.1621,21.92968 -13.8848,0 -21.918,-8.04336 -21.918,-21.92968 0,-13.86887 8.0335,-21.42383 21.918,-21.42383 z m 68.289,23.17969 h 23.1387 v 34.59375 c 0,1.69852 0,2.43359 1.9492,2.43359 h 34.336 v 24.34961 h -36.2852 v 58.20117 c 0,14.37031 3.4135,19.9668 16.5566,19.9668 6.8277,0 13.8829,-1.70084 19.7286,-3.89453 l 6.58,21.43554 c -10.4765,5.10799 -25.815,9.73633 -39.7031,9.73633 -28.9783,0 -39.9336,-11.67854 -39.9336,-39.20898 v -63.79883 c 0,-1.45817 0,-2.4375 -1.957,-2.4375 h -17.043 v -21.67383 c 21.437,-2.44183 29.9533,-13.15899 32.6328,-39.70312 z m -181.0566,39.5957 c 10.4739,0 16.8088,0.96529 22.4101,2.43555 h 47.4922 v 20.69531 l -22.4062,1.70508 c 4.3759,5.60278 9.0078,13.39677 9.0078,24.59765 0,27.0308 -21.1878,42.85938 -51.8652,42.85938 -7.8015,0 -14.8651,-0.97196 -19.2442,-2.1875 l -8.039,12.90429 23.8632,1.45899 c 42.1345,2.6845 66.9668,3.90294 66.9668,36.28125 0,28.01354 -24.5905,43.83398 -66.9668,43.83398 -44.0775,0 -60.8789,-11.20313 -60.8789,-30.43945 0,-10.96341 4.871,-16.79495 13.3946,-24.84375 -8.0392,-3.39816 -10.7149,-9.48227 -10.7149,-16.06055 0,-5.36139 2.6761,-10.23107 7.0664,-14.86132 4.382,-4.62266 9.2502,-9.25727 15.0957,-14.61329 -11.9316,-5.84357 -20.9453,-18.50758 -20.9453,-36.53125 0,-28.00233 18.5111,-47.23437 55.7637,-47.23437 z m 84.0254,0.0625 h 50.4179 v 101.05859 c 0,3.90363 0.2338,4.38486 3.8965,4.87891 l 12.4219,1.70117 v 19.22852 h -69.4141 v -0.002 -19.22851 l 12.4239,-1.69922 c 3.4111,-0.49417 3.8945,-1.21922 3.8945,-4.88086 v -71.59766 c 0,-2.67331 -0.7272,-4.38452 -3.1699,-5.10937 l -13.1485,-4.63086 z m -81.8203,24.03515 c -13.3979,10e-6 -23.375,6.57845 -23.375,22.41211 0,11.9296 6.5757,20.21094 22.6543,20.21094 13.6273,0 22.8828,-8.03116 22.8828,-20.70508 0,-14.3627 -8.283,-21.91797 -22.1621,-21.91797 z m -26.795,111.79297 c -3.1702,3.8911 -6.33,8.0251 -6.33,12.9043 0,9.73377 12.4135,12.66406 29.4648,12.66406 14.1254,0 33.3652,-0.99018 33.3652,-14.12304 0,-7.80569 -9.2565,-8.28813 -20.9531,-9.02149 z"
         transform="matrix(0.26458333,0,0,0.26458333,0,0.52916663)"
         id="path1014"
         inkscape:connector-curvature="0" />
    </g>
    <path
       id="path911"
       d="M 1086.7584,1.334195 H 959.75731 c -7.01146,0 -12.7,5.688542 -12.7,12.7 v 84.666672 c 0,7.011453 5.68854,12.700003 12.7,12.700003 h 50.80059 l -4.2336,12.7 h -19.05032 c -3.51896,0 -6.35,2.83104 -6.35,6.35 0,3.51895 2.83104,6.35 6.35,6.35 h 71.96762 c 3.519,0 6.35,-2.83105 6.35,-6.35 0,-3.51896 -2.831,-6.35 -6.35,-6.35 h -19.0501 l -4.2334,-12.7 h 50.8003 c 7.0115,0 12.7001,-5.68855 12.7001,-12.700003 V 14.034195 c 0,-7.011458 -5.6886,-12.7 -12.7001,-12.7 z m -4.2333,93.133332 H 963.99064 V 18.267528 h 118.53446 z"
       inkscape:connector-curvature="0"
       style="fill:#98a4ae;fill-opacity:1;stroke-width:0.26458332" />
    <path
       id="path1222"
       d="m 1013.9025,51.381664 c -0.5643,-1.805625 -0.553,-5.292761 -0.2257,-5.292761 0.9479,0 0.8576,4.164241 0.2257,5.292761 z m -0.1919,5.326612 c -0.8689,2.279618 -1.9523,4.8865 -3.2051,7.075827 2.0653,-0.789954 4.4014,-1.941052 7.0985,-2.471455 -1.4332,-1.083384 -2.81,-2.640743 -3.8934,-4.604372 z m -10.6198,14.083893 c 0,0.09033 1.4897,-0.609391 3.9387,-4.536621 -0.7561,0.710966 -3.2841,2.764858 -3.9387,4.536621 z m 18.2712,-30.255532 h 15.3479 v 37.015342 c 0,1.50092 -1.2075,2.708428 -2.7085,2.708428 h -37.91884 c -1.50092,0 -2.70843,-1.207508 -2.70843,-2.708428 V 25.188844 c 0,-1.50092 1.20751,-2.708437 2.70843,-2.708437 h 22.57104 V 37.8282 c 0,1.489636 1.2187,2.708437 2.7084,2.708437 z m -0.9028,19.387931 c -2.2571,-1.376796 -3.758,-3.272712 -4.8188,-6.07144 0.5078,-2.087771 1.3091,-5.258908 0.6997,-7.245105 -0.5304,-3.317817 -4.785,-2.990547 -5.3944,-0.767386 -0.5643,2.065185 -0.045,4.976771 0.9141,8.689605 -1.3091,3.114708 -3.239,7.290241 -4.6046,9.682699 -0.011,0 -0.011,0.0113 -0.023,0.0113 -3.0584,1.568633 -8.30622,5.021879 -6.1507,7.673887 0.632,0.778679 1.8057,1.12852 2.4264,1.12852 2.0202,0 4.0291,-2.031332 6.8956,-6.974224 2.9117,-0.959232 6.1054,-2.155456 8.9154,-2.618146 2.4489,1.33165 5.3154,2.200602 7.2226,2.200602 3.2953,0 3.521,-3.61125 2.2232,-4.897765 -1.5687,-1.534791 -6.1279,-1.094668 -8.3059,-0.812531 z m 15.4607,-25.59476 -11.0595,-11.059438 c -0.5078,-0.507826 -1.1962,-0.789963 -1.9185,-0.789963 h -0.6771 v 14.44498 h 14.4451 v -0.688388 c 0,-0.710966 -0.2822,-1.399364 -0.79,-1.907191 z m -8.3623,28.811042 c 0.4627,-0.304695 -0.2822,-1.342944 -4.8301,-1.015671 4.1868,1.783057 4.8301,1.015671 4.8301,1.015671 z"
       inkscape:connector-curvature="0"
       style="fill:#011f32;fill-opacity:1;stroke-width:0.26458332" />
    <path
       id="path900"
       d="m 1103.6918,380.15476 h -64.1512 c -0.1958,5.24139 -3.892,8.46666 -8.6625,8.46666 h -16.0868 c -4.9452,0 -8.7369,-4.62227 -8.6707,-8.46666 h -63.29662 c -2.32834,0 -4.23334,1.905 -4.23334,4.23333 v 4.23333 c 0,9.31334 7.62,16.93334 16.93334,16.93334 h 135.46772 c 9.3134,0 16.9335,-7.62 16.9335,-16.93334 v -4.23333 c 0,-2.32833 -1.905,-4.23333 -4.2334,-4.23333 z m -12.7001,-97.36667 c 0,-6.985 -5.715,-12.7 -12.7,-12.7 H 968.22398 c -6.985,0 -12.7,5.715 -12.7,12.7 v 88.9 h 135.46772 z m -16.9334,71.96667 H 972.45731 v -67.73333 h 101.60099 z"
       inkscape:connector-curvature="0"
       style="fill:#98a4ae;fill-opacity:1;stroke-width:0.26458332" />
    <path
       id="path1222-3"
       d="m 1022.1182,320.9777 c -0.5643,-1.80564 -0.553,-5.2928 -0.2257,-5.2928 0.948,0 0.8577,4.16427 0.2257,5.2928 z m -0.1918,5.32665 c -0.869,2.27963 -1.9524,4.88653 -3.205,7.07587 2.0652,-0.78996 4.4012,-1.94106 7.0984,-2.47146 -1.4332,-1.08339 -2.81,-2.64077 -3.8934,-4.60441 z m -10.6195,14.08399 c 0,0.0903 1.4897,-0.6094 3.9386,-4.53665 -0.7561,0.71098 -3.284,2.76487 -3.9386,4.53665 z m 18.2709,-30.25574 h 15.348 v 37.0156 c 0,1.50094 -1.2076,2.70844 -2.7085,2.70844 h -37.9189 c -1.5011,0 -2.7086,-1.2075 -2.7086,-2.70844 v -52.3635 c 0,-1.50093 1.2076,-2.70846 2.7086,-2.70846 h 22.5709 v 15.3479 c 0,1.48965 1.2188,2.70846 2.7085,2.70846 z m -0.9028,19.38807 c -2.2571,-1.37681 -3.758,-3.27274 -4.8188,-6.07149 0.5078,-2.08779 1.309,-5.25895 0.6996,-7.24516 -0.5304,-3.31783 -4.7849,-2.99056 -5.3943,-0.76739 -0.5643,2.0652 -0.045,4.97681 0.9141,8.68967 -1.3091,3.11473 -3.2389,7.2903 -4.6044,9.68277 -0.011,0 -0.011,0.0113 -0.023,0.0113 -3.0583,1.56865 -8.3062,5.02191 -6.1506,7.67394 0.632,0.77869 1.8057,1.12854 2.4264,1.12854 2.0201,0 4.0289,-2.03135 6.8954,-6.97428 2.9116,-0.95924 6.1053,-2.15547 8.9153,-2.61816 2.4489,1.33166 5.3154,2.20061 7.2226,2.20061 3.2953,0 3.521,-3.61128 2.2232,-4.89779 -1.5686,-1.53481 -6.1279,-1.09469 -8.3059,-0.81255 z m 15.4608,-25.59494 -11.0596,-11.05952 c -0.5078,-0.50783 -1.1962,-0.78997 -1.9185,-0.78997 h -0.6771 v 14.44508 h 14.4452 v -0.68839 c 0,-0.71097 -0.2821,-1.39937 -0.79,-1.9072 z m -8.3624,28.81125 c 0.4627,-0.3047 -0.2821,-1.34297 -4.8301,-1.01569 4.1869,1.78307 4.8301,1.01569 4.8301,1.01569 z"
       inkscape:connector-curvature="0"
       style="fill:#011f32;fill-opacity:1;stroke-width:0.26458332" />
    <g
       id="g1289"
       transform="translate(98.425032,85.276251)">
      <path
         inkscape:connector-curvature="0"
         id="path933"
         transform="scale(0.26458333)"
         d="m -984.11719,-327.25977 c -23.20001,-0.34998 -56.59021,29.16945 -73.41011,41.43946 l -18.1817,13.45508 v 31.10546 h 183.18361 v -31.10546 l -18.18164,-13.45508 c -16.81002,-12.27001 -50.21017,-41.78944 -73.41016,-41.43946 z m -208.00001,141.03711 -29.6094,21.91211 c -11.6069,9.09624 -18.3886,23.02486 -18.3906,37.77149 v 10.64844 l 48,34.675776 z m 416.00001,0 v 105.007816 l 48,-34.675776 v -10.64844 c 0,-14.74001 -6.78063,-28.67148 -18.39062,-37.77149 z M -1240.1172,-76.400391 V 136.74023 c 0,26.50999 21.49,48 48,48 h 416.00001 c 26.50999,0 48,-21.49001 48,-48 V -76.400391 L -937.25781,74.679688 c -14.02001,10.120024 -30.43941,15.191406 -46.85938,15.191406 -16.42001,0 -32.83941,-5.061404 -46.85941,-15.191406 z"
         style="fill:#98a4ae;fill-opacity:1;stroke-width:0.99999994" />
      <path
         sodipodi:nodetypes="sssssssssssssssssscsccscccccc"
         style="fill:#011f32;fill-opacity:1;stroke-width:0.26458332"
         inkscape:connector-curvature="0"
         d="m -281.54775,-29.437495 h 42.33333 c 2.33892,0 4.23334,-1.89442 4.23334,-4.23334 v -4.23333 c 0,-2.33892 -1.89442,-4.23333 -4.23334,-4.23333 h -42.33333 c -2.33892,0 -4.23333,1.89441 -4.23333,4.23333 v 4.23333 c 0,2.33892 1.89441,4.23334 4.23333,4.23334 z m -4.23333,21.1666588 c 0,2.3389197 1.89441,4.2333397 4.23333,4.2333397 h 42.33333 c 2.33892,0 4.23334,-1.89442 4.23334,-4.2333397 v -4.2333288 c 0,-2.33892 -1.89442,-4.23333 -4.23334,-4.23333 h -42.33333 c -2.33892,0 -4.23333,1.89441 -4.23333,4.23333 z m 80.43333,-13.2185088 v -39.69815 c 0,-7.01411 -5.6859,-12.70001 -12.7,-12.70001 h -84.66667 c -7.0141,0 -12.7,5.6859 -12.7,12.70001 v 39.69961 l 12.7,9.17422 v -48.87383 h 84.66667 v 48.87383 z"
         id="path933-6" />
    </g>
    <path
       style="fill:none;stroke:#011f32;stroke-width:20.00000191;stroke-linecap:butt;stroke-linejoin:miter;stroke-miterlimit:4;stroke-dasharray:none;stroke-opacity:1;marker-end:url(#TriangleOutS)"
       d="M -69.857243,74.887495 H 23.561762"
       id="path1318"
       inkscape:connector-curvature="0" />
    <path
       style="fill:none;stroke:#011f32;stroke-width:20;stroke-linecap:butt;stroke-linejoin:miter;stroke-miterlimit:4;stroke-dasharray:none;stroke-opacity:1;marker-end:url(#TriangleOutS-5)"
       d="M 410.4069,74.887495 H 511.2041"
       id="path1318-5"
       inkscape:connector-curvature="0" />
    <path
       style="fill:none;stroke:#011f32;stroke-width:20;stroke-linecap:butt;stroke-linejoin:miter;stroke-miterlimit:4;stroke-dasharray:none;stroke-opacity:1;marker-start:url(#TriangleInS);marker-end:url(#TriangleOutS-5-6)"
       d="M 784.8537,74.887495 H 885.6509"
       id="path1318-5-9"
       inkscape:connector-curvature="0" />
    <path
       style="fill:none;stroke:#011f32;stroke-width:20;stroke-linecap:butt;stroke-linejoin:miter;stroke-miterlimit:4;stroke-dasharray:none;stroke-opacity:1;marker-end:url(#TriangleOutS-5-6-1)"
       d="m 784.8537,74.887495 c 102.6309,0 0.96874,251.883335 107.53239,251.883335"
       id="path1318-5-9-7"
       inkscape:connector-curvature="0"
       sodipodi:nodetypes="cc" />
    <path
       style="fill:none;stroke:#011f32;stroke-width:20;stroke-linecap:butt;stroke-linejoin:miter;stroke-miterlimit:4;stroke-dasharray:none;stroke-opacity:1;marker-end:url(#TriangleOutS-5-0)"
       d="M 159.41399,128.6025 V 229.3997"
       id="path1318-5-3"
       inkscape:connector-curvature="0" />
    <path
       id="path7164"
       d="M 1027.5494,74.784881 V 62.760077 c 0,-1.561732 1.266,-2.82773 2.8277,-2.82773 h 12.0249 a 2.8277298,2.8277298 0 0 1 1.9995,0.82823 l 12.4823,12.482189 c 1.1042,1.104287 1.1042,2.894712 0,3.999 l -12.0249,12.024806 c -1.1043,1.10428 -2.8947,1.10428 -3.999,0 L 1028.3776,76.78438 a 2.8277298,2.8277298 0 0 1 -0.8282,-1.999499 z m 6.5981,-11.082228 c -1.5618,0 -2.8278,1.265998 -2.8278,2.827731 0,1.56173 1.266,2.82773 2.8278,2.82773 1.5617,0 2.8277,-1.266 2.8277,-2.82773 0,-1.561733 -1.266,-2.827731 -2.8277,-2.827731 z"
       inkscape:connector-curvature="0"
       style="fill:#011f32;fill-opacity:1;stroke:#ffffff;stroke-width:6;stroke-miterlimit:4;stroke-dasharray:none;stroke-opacity:1;paint-order:markers stroke fill" />
    <path
       style="fill:#009b77;fill-opacity:1;stroke-width:0.26458332"
       d="m 300.44238,-8.8794183 c -6.16166,0 -11.15683,4.9951613 -11.15683,11.1568296 V 98.967012 c 0,6.161668 4.99517,11.156828 11.15683,11.156828 h 52.06385 c 6.16163,0 11.15631,-4.99516 11.15631,-11.156828 V 2.2774113 c 0,-6.1616683 -4.99468,-11.1568296 -11.15631,-11.1568296 z m 40.24189,20.2257293 c 0.43353,-0.01323 0.9014,0.122548 1.43631,0.542394 1.21172,-0.444824 2.37729,-0.613748 3.42029,0.3219 1.61051,-0.1994 2.13222,0.230459 2.53101,0.721282 0.35276,0 2.6537,-0.35308 3.712,1.196085 2.65351,-0.306777 3.49707,1.533909 2.54609,3.251791 0.53684,0.812918 1.10408,1.625653 -0.16902,3.205488 0.44481,0.874271 0.16907,1.825272 -0.88923,2.975636 0.29142,1.227059 -0.26072,2.101597 -1.24239,2.776455 0.18406,1.687212 -1.56488,2.668653 -2.08638,3.021429 -0.19939,0.981647 -0.6132,1.917185 -2.62252,2.423362 -0.33743,1.472447 -1.53381,1.718247 -2.69953,2.025012 3.84992,2.208693 7.14759,5.10755 7.13229,12.224468 l 0.56737,0.996891 c 4.40204,2.638201 8.37454,11.135505 2.14724,18.053034 -0.3988,2.16267 -1.08882,3.711811 -1.68702,5.429681 -0.90495,6.932871 -6.81012,10.169102 -8.37464,10.552549 -2.28539,1.717882 -4.70874,3.344032 -8.00646,4.479068 -3.0983,3.159646 -6.45765,4.355816 -9.84737,4.355816 h -0.15336 c -3.37439,0 -6.7488,-1.19617 -9.86248,-4.355816 -3.28234,-1.135036 -5.72105,-2.761186 -8.00644,-4.479068 -1.54913,-0.383447 -7.46971,-3.619678 -8.37463,-10.552549 -0.59822,-1.71787 -1.28822,-3.267011 -1.68702,-5.429681 -6.21195,-6.9022 -2.23948,-15.414833 2.1779,-18.053034 l 0.56737,-0.996891 c -0.0149,-7.116918 3.2824,-10.015775 7.13229,-12.224468 -1.16571,-0.306765 -2.36207,-0.567894 -2.69951,-2.025012 -2.00928,-0.521518 -2.42313,-1.441715 -2.62254,-2.423362 -0.52149,-0.352776 -2.27043,-1.334217 -2.08637,-3.021429 -0.9663,-0.674858 -1.51847,-1.549396 -1.24236,-2.776455 -1.05834,-1.150364 -1.33409,-2.101365 -0.88927,-2.975636 -1.27309,-1.564494 -0.70586,-2.377241 -0.16902,-3.205488 -0.95094,-1.717882 -0.12239,-3.558568 2.53103,-3.251791 1.05834,-1.549165 3.3587,-1.196085 3.7115,-1.196085 0.38344,-0.506153 0.92047,-0.920682 2.53097,-0.721282 1.04303,-0.935648 2.20858,-0.782053 3.42028,-0.3219 0.49082,-0.383471 0.93565,-0.521385 1.33442,-0.53669 0.76692,-0.01493 1.4266,0.444679 2.13215,0.659408 1.73321,-0.552164 2.11671,0.214826 2.97564,0.521591 1.8866,-0.398788 2.46956,0.460153 3.37452,1.365106 l 1.05827,-0.01493 c 2.85285,1.656529 4.26408,5.030868 4.77028,6.764092 0.50613,-1.733224 1.91737,-5.107563 4.77027,-6.764092 l 1.05826,0.01493 c 0.90498,-0.904953 1.48791,-1.763894 3.37451,-1.365106 0.84361,-0.322082 1.2419,-1.073755 2.97515,-0.521591 0.68062,-0.210906 1.30764,-0.643702 2.03022,-0.665112 z m -66.73872,0.227765 a 1.3945663,1.3945663 0 0 0 -1.39473,1.394732 v 1.394733 h -4.1837 a 1.3945663,1.3945663 0 0 0 -1.3942,1.394211 v 2.789465 a 1.3945663,1.3945663 0 0 0 1.3942,1.394757 h 4.1837 v 1.394199 a 1.3945663,1.3945663 0 0 0 1.39473,1.394732 h 9.76209 V 11.574076 Z m 95.29539,0 v 11.156829 h 9.7621 a 1.3945663,1.3945663 0 0 0 1.39422,-1.394732 v -1.394199 h 4.18368 a 1.3945663,1.3945663 0 0 0 1.39474,-1.394757 v -2.789465 a 1.3945663,1.3945663 0 0 0 -1.39474,-1.394211 h -4.18368 v -1.394733 a 1.3945663,1.3945663 0 0 0 -1.39422,-1.394732 z m -56.89186,1.786845 c 0.39883,0.47547 0.95104,0.951244 0.36821,1.503432 -0.81294,-0.506177 -1.62572,-1.012342 -3.54301,-1.365106 0.42947,0.475482 1.31896,0.966039 0.78212,1.441533 -1.02763,-0.383446 -2.14718,-0.659189 -3.38957,-0.827894 0.58291,0.490823 1.08886,0.966027 0.59803,1.349485 -1.089,-0.337398 -2.59186,-0.782319 -4.04899,-0.39886 l 0.91996,0.936072 c 0.10729,0.122718 -2.16258,0.107049 -3.66574,0.12222 0.53685,0.751565 1.10435,1.487788 1.42645,2.791541 -0.15336,0.153352 -0.88939,0.06129 -1.59494,0 0.72088,1.518482 1.96293,1.902427 2.25436,2.546602 -0.44482,0.32207 -1.05815,0.245169 -1.71769,0.01493 0.50615,1.058341 1.59511,1.794819 2.45404,2.653749 -0.21473,0.153352 -0.5982,0.245193 -1.48782,0.137792 0.7976,0.843612 1.74858,1.610408 2.8836,2.30062 -0.1994,0.245412 -0.88938,0.230168 -1.53359,0.24546 1.02768,0.997001 2.34636,1.518361 3.58879,2.177902 -0.61355,0.429483 -1.05812,0.322434 -1.53359,0.322434 0.87429,0.720894 2.36227,1.104122 3.74268,1.533581 -0.26073,0.398788 -0.52194,0.52136 -1.08949,0.628725 v 5.34e-4 c 1.4725,0.797649 3.55874,0.429119 4.17228,0.858577 -0.13812,0.3988 -0.55211,0.675052 -1.02761,0.889782 2.3621,0.13812 8.8039,-0.07683 10.03096,-4.954369 -2.40809,-2.653518 -6.80996,-5.766885 -14.37169,-9.601426 5.88985,1.963282 11.19667,4.601179 15.64475,8.20565 5.23032,-2.438777 1.62617,-8.574011 -0.91997,-11.012799 -0.13795,0.644212 -0.27642,1.043218 -0.44514,1.165924 -0.82824,-0.889611 -1.50308,-1.794795 -2.57677,-2.653724 0,0.490823 0.2456,1.043255 -0.38328,1.442043 -0.56749,-0.766894 -1.34992,-1.457251 -2.37759,-2.040086 0.49083,0.858929 0.0767,1.11944 -0.1841,1.472204 -0.78223,-0.67487 -1.53383,-1.365191 -2.97565,-1.886685 z m 28.49848,0 c -1.44181,0.536823 -2.1934,1.211802 -2.97566,1.886685 -0.27612,-0.352789 -0.67493,-0.613299 -0.18407,-1.472216 -1.02767,0.582847 -1.80958,1.27267 -2.37711,2.039564 -0.64419,-0.398776 -0.38379,-0.935369 -0.38379,-1.441534 -1.07364,0.85893 -1.7485,1.764137 -2.57676,2.653749 -0.16872,-0.122718 -0.32193,-0.521725 -0.44462,-1.165924 -2.54614,2.438764 -6.15079,8.574022 -0.88979,11.012786 4.44809,-3.60447 9.75538,-6.242865 15.64525,-8.206147 -7.56171,3.849894 -11.96411,6.948418 -14.37221,9.601924 1.24242,4.86226 7.66939,5.092428 10.03148,4.954368 -0.47547,-0.214717 -0.89005,-0.47564 -1.0281,-0.889781 0.58284,-0.414117 2.68445,-0.04624 4.14157,-0.859099 -0.56753,-0.107292 -0.8282,-0.214584 -1.08897,-0.628725 1.38044,-0.4448 2.86841,-0.812675 3.74272,-1.533581 -0.4755,0 -0.92061,0.09176 -1.53413,-0.32241 1.24238,-0.659553 2.56163,-1.180925 3.58929,-2.177914 -0.6442,-0.01493 -1.33471,-0.01493 -1.53411,-0.245448 1.13503,-0.690224 2.08602,-1.457057 2.8836,-2.300644 -0.88963,0.107291 -1.27309,0.01493 -1.48782,-0.13829 0.85894,-0.858942 1.93305,-1.594886 2.45455,-2.653215 -0.67489,0.230119 -1.27337,0.321839 -1.71819,-0.01493 0.29141,-0.659529 1.53399,-1.027611 2.25488,-2.546093 -0.70555,0.06129 -1.44211,0.153352 -1.59546,0 0.32209,-1.303729 0.87428,-2.024623 1.42644,-2.791541 -1.50313,-0.03058 -3.7731,-3.6e-5 -3.66572,-0.122718 l 0.92045,-0.93555 c -1.45712,-0.383447 -2.9605,0.06141 -4.04949,0.398873 -0.49082,-0.383471 0,-0.858687 0.59855,-1.349486 -1.24242,0.153352 -2.37778,0.444436 -3.3901,0.827895 -0.55217,-0.475495 0.35315,-0.966063 0.78263,-1.441546 -1.91727,0.352777 -2.73057,0.858917 -3.54353,1.365094 -0.58283,-0.552188 -0.0307,-1.02795 0.36822,-1.50342 z m -14.60884,20.077511 c -4.02867,0.08945 -7.80002,3.109739 -7.80002,4.877942 -0.0149,2.239364 3.29769,4.509289 8.22125,4.570582 5.03094,0.03059 8.23661,-1.825235 8.25192,-4.125965 0.0149,-2.592152 -4.57076,-5.368121 -8.2826,-5.322037 -0.13034,-0.0036 -0.26057,-0.0036 -0.39055,-5.22e-4 z m -52.29317,0.448781 a 1.3945663,1.3945663 0 0 0 -1.39473,1.394733 v 1.394732 h -4.1837 a 1.3945663,1.3945663 0 0 0 -1.3942,1.394223 v 2.789478 a 1.3945663,1.3945663 0 0 0 1.3942,1.39421 h 4.1837 v 1.394733 a 1.3945663,1.3945663 0 0 0 1.39473,1.394745 h 9.76209 V 33.887213 Z m 95.29539,0 v 11.156854 h 9.7621 a 1.3945663,1.3945663 0 0 0 1.39422,-1.394745 v -1.394733 h 4.18368 a 1.3945663,1.3945663 0 0 0 1.39474,-1.39421 v -2.789478 a 1.3945663,1.3945663 0 0 0 -1.39474,-1.394223 h -4.18368 v -1.394732 a 1.3945663,1.3945663 0 0 0 -1.39422,-1.394733 z m -54.81796,1.091039 c -5.79803,0.10802 -10.23535,4.072209 -10.03406,10.608209 0.23006,2.852894 15.16947,-9.984764 12.59266,-10.414222 -0.87428,-0.145743 -1.73029,-0.209402 -2.5586,-0.193987 z m 24.46301,0.219474 c -0.82935,-0.01651 -1.68707,0.04551 -2.56327,0.18929 -2.57679,0.429447 12.36256,13.282458 12.59265,10.414211 0.20131,-6.535989 -4.224,-10.488186 -10.02938,-10.603501 z m -3.25232,7.975774 c -1.37101,0.01493 -2.70722,0.382573 -3.88153,1.139902 -3.75787,2.423436 -4.43275,7.914712 -1.5185,12.270747 2.91424,4.356059 8.3288,5.920675 12.08664,3.497239 3.75786,-2.423447 4.43274,-7.914699 1.5185,-12.270746 -2.00354,-2.994789 -5.18885,-4.670021 -8.20511,-4.637142 z m -17.91677,0.444618 c -3.01624,-0.03277 -6.20154,1.642365 -8.20511,4.637153 -2.91425,4.35606 -2.23937,9.847312 1.51849,12.270759 3.74252,2.423423 9.15656,0.858808 12.08614,-3.497239 2.91427,-4.356059 2.2399,-9.846814 -1.51799,-12.270237 -1.17431,-0.757317 -2.51052,-1.125483 -3.88153,-1.140436 z m 31.85111,4.866496 c -3.52084,0.0545 -0.90235,16.520909 2.29233,15.124174 3.63513,-2.868247 4.80098,-11.288832 -1.93245,-15.077374 -0.12653,-0.03362 -0.2463,-0.04855 -0.35988,-0.04685 z m -46.15207,0.214765 c -0.11409,-0.0012 -0.23441,0.01323 -0.36144,0.04685 -6.73345,3.773212 -5.56812,12.193797 -1.93296,15.077386 3.2095,1.411591 5.82917,-15.068891 2.2944,-15.124187 z m -29.47039,7.500983 a 1.3945663,1.3945663 0 0 0 -1.39473,1.394745 v 1.394211 h -4.1837 a 1.3945663,1.3945663 0 0 0 -1.3942,1.394733 v 2.788943 a 1.3945663,1.3945663 0 0 0 1.3942,1.394733 h 4.1837 v 1.394757 a 1.3945663,1.3945663 0 0 0 1.39473,1.39472 h 9.76209 V 56.200362 Z m 95.29539,0 v 11.156842 h 9.7621 a 1.3945663,1.3945663 0 0 0 1.39422,-1.39472 v -1.394757 h 4.18368 a 1.3945663,1.3945663 0 0 0 1.39474,-1.394733 v -2.788943 a 1.3945663,1.3945663 0 0 0 -1.39474,-1.394733 h -4.18368 v -1.394211 a 1.3945663,1.3945663 0 0 0 -1.39422,-1.394745 z m -42.61167,3.804065 c -5.00027,0.03059 -9.04967,3.727164 -9.01898,8.282599 v 0.09212 c 0.0306,4.540118 4.11076,8.221222 9.11104,8.190564 5.00024,-0.03059 9.0491,-3.727164 9.01843,-8.282611 v -0.09212 c -0.0306,-4.540105 -4.11023,-8.221197 -9.11049,-8.190552 z m 20.0094,3.107724 c -2.12602,0.05316 -4.65991,2.034296 -7.06418,4.714649 -2.80687,3.236353 -4.35622,9.14205 -2.31623,11.043979 1.94794,1.472471 7.20917,1.272585 11.08976,-4.034426 2.82223,-3.558471 1.87104,-9.509391 0.26053,-11.089226 -0.5982,-0.456318 -1.26121,-0.652708 -1.96988,-0.634976 z m -40.69745,1.26733 c -0.65394,0.01323 -1.26646,0.17407 -1.81335,0.502875 -1.67187,1.257742 -1.97856,5.521462 0.39884,9.724145 3.5278,5.000246 8.5126,5.491082 10.55259,4.279365 2.16267,-1.595165 0.98161,-7.009614 -1.61057,-10.077249 -2.32468,-2.660205 -5.19198,-4.47794 -7.52751,-4.429136 z m -31.99567,14.134031 a 1.3945663,1.3945663 0 0 0 -1.39473,1.394745 v 1.394198 h -4.1837 a 1.3945663,1.3945663 0 0 0 -1.3942,1.394733 v 2.788956 a 1.3945663,1.3945663 0 0 0 1.3942,1.394732 h 4.1837 v 1.394745 a 1.3945663,1.3945663 0 0 0 1.39473,1.394199 h 9.76209 V 78.513512 Z m 95.29539,0 V 89.66982 h 9.7621 a 1.3945663,1.3945663 0 0 0 1.39422,-1.394199 v -1.394745 h 4.18368 a 1.3945663,1.3945663 0 0 0 1.39474,-1.394732 v -2.788956 a 1.3945663,1.3945663 0 0 0 -1.39474,-1.394733 h -4.18368 v -1.394198 a 1.3945663,1.3945663 0 0 0 -1.39422,-1.394745 z m -41.61008,0.590772 c -0.23553,-0.0012 -0.46758,0.0012 -0.69478,0.01214 -3.60448,-0.09212 -9.15734,1.426556 -9.09593,3.374496 -0.0614,1.319107 4.3561,5.13844 8.86556,4.954381 4.35603,0.07671 8.85018,-3.742493 8.7735,-5.429681 -0.0149,-1.63927 -4.31548,-2.887387 -7.84835,-2.910642 z"
       id="path7248"
       inkscape:connector-curvature="0" />
  </g>
</svg>
