<?xml version="1.0" encoding="UTF-8" standalone="no"?>
<!-- Created with Inkscape (http://www.inkscape.org/) -->

<svg
   xmlns:dc="http://purl.org/dc/elements/1.1/"
   xmlns:cc="http://creativecommons.org/ns#"
   xmlns:rdf="http://www.w3.org/1999/02/22-rdf-syntax-ns#"
   xmlns:svg="http://www.w3.org/2000/svg"
   xmlns="http://www.w3.org/2000/svg"
   xmlns:sodipodi="http://sodipodi.sourceforge.net/DTD/sodipodi-0.dtd"
   xmlns:inkscape="http://www.inkscape.org/namespaces/inkscape"
   version="1.1"
   id="svg8379"
   width="347.60629"
   height="239.88977"
   viewBox="0 0 347.60629 239.88977"
   sodipodi:docname="interface.png.svg"
   inkscape:version="0.92.5 (2060ec1f9f, 2020-04-08)">
  <metadata
     id="metadata8385">
    <rdf:RDF>
      <cc:Work
         rdf:about="">
        <dc:format>image/svg+xml</dc:format>
        <dc:type
           rdf:resource="http://purl.org/dc/dcmitype/StillImage" />
        <dc:title></dc:title>
      </cc:Work>
    </rdf:RDF>
  </metadata>
  <defs
     id="defs8383" />
  <sodipodi:namedview
     pagecolor="#ffffff"
     bordercolor="#666666"
     borderopacity="1"
     objecttolerance="10"
     gridtolerance="10"
     guidetolerance="10"
     inkscape:pageopacity="0"
     inkscape:pageshadow="2"
     inkscape:window-width="950"
     inkscape:window-height="578"
     id="namedview8381"
     showgrid="false"
     showguides="false"
     inkscape:zoom="2"
     inkscape:cx="120.0945"
     inkscape:cy="6.9378325"
     inkscape:window-x="960"
     inkscape:window-y="29"
     inkscape:window-maximized="0"
     inkscape:current-layer="svg8379"
     fit-margin-top="0"
     fit-margin-left="0"
     fit-margin-right="0"
     fit-margin-bottom="0" />
  <rect
     style="opacity:1;fill:#009b77;fill-opacity:1;fill-rule:evenodd;stroke:none;stroke-width:1.99999988;stroke-linecap:round;stroke-linejoin:round;stroke-miterlimit:4;stroke-dasharray:none;stroke-dashoffset:0;stroke-opacity:1;paint-order:markers stroke fill"
     id="rect9206"
     width="347.60629"
     height="239.88977"
     x="0"
     y="0"
     rx="0"
     ry="0" />
  <g
     id="g3057"
     transform="matrix(-1.0666666,0,0,-1.0666666,-1320.5491,2761.2933)"
     style="fill:#aacfbd;fill-opacity:1;stroke:none;stroke-width:1.87500012;stroke-miterlimit:4;stroke-dasharray:none">
    <path
       inkscape:connector-curvature="0"
       id="rect3808-3-9-1"
       transform="matrix(0.93750002,0,0,0.93750002,0,535.03926)"
       d="m -1606.5996,1963.7285 v 95.0664 c 0,4.2484 -3.1108,7.668 -6.9766,7.668 h -1.0449 c -3.8657,0 -6.9785,-3.4196 -6.9785,-7.668 v -95.0664 h -34.1328 c -0.2094,0 -0.3672,0.1578 -0.3672,0.3672 v 214.5664 l 0.3672,0.3672 h 322.2676 l 0.3652,-0.3672 v -214.5664 l -0.3652,-0.3672 z m 108.2578,21.6582 h 27.0898 c 3.1686,0 5.7325,2.5641 5.7325,5.7324 v 27.0899 c 0,3.1684 -2.5641,5.7285 -5.7325,5.7285 h -27.0898 c -3.1682,0 -5.7305,-2.5603 -5.7305,-5.7285 v -27.0899 c 0,-3.1681 2.5622,-5.7324 5.7305,-5.7324 z m 54.6953,0 h 27.0899 c 3.1682,0 5.7304,2.5643 5.7304,5.7324 v 27.0899 c 0,3.1682 -2.5623,5.7285 -5.7304,5.7285 h -27.0899 c -3.1682,0 -5.7324,-2.5601 -5.7324,-5.7285 v -27.0899 c 0,-3.1683 2.564,-5.7324 5.7324,-5.7324 z m -54.6953,0.7559 c -2.7626,0 -4.9746,2.2139 -4.9746,4.9765 v 27.0899 c 0,2.7628 2.2118,4.9726 4.9746,4.9726 h 27.0898 c 2.7628,0 4.9766,-2.2099 4.9766,-4.9726 v -27.0899 c 0,-2.7624 -2.2139,-4.9765 -4.9766,-4.9765 z m 54.6953,0 c -2.7627,0 -4.9746,2.214 -4.9746,4.9765 v 27.0899 c 0,2.7627 2.2118,4.9726 4.9746,4.9726 h 27.0899 c 2.7625,0 4.9726,-2.2098 4.9726,-4.9726 v -27.0899 c 0,-2.7626 -2.2103,-4.9765 -4.9726,-4.9765 z m -54.6953,55.9375 h 27.0898 c 3.1685,0 5.7325,2.564 5.7325,5.7324 v 27.0898 c 0,3.1686 -2.5641,5.7305 -5.7325,5.7305 h -27.0898 c -3.1682,0 -5.7305,-2.5621 -5.7305,-5.7305 v -27.0898 c 0,-3.1682 2.5622,-5.7324 5.7305,-5.7324 z m 54.6953,0 h 27.0899 c 3.1682,0 5.7304,2.5642 5.7304,5.7324 v 27.0898 c 0,3.1684 -2.5623,5.7305 -5.7304,5.7305 h -27.0899 c -3.1682,0 -5.7324,-2.562 -5.7324,-5.7305 v -27.0898 c 0,-3.1684 2.564,-5.7324 5.7324,-5.7324 z m -54.6953,0.7578 c -2.7626,0 -4.9746,2.2118 -4.9746,4.9746 v 27.0898 c 0,2.7628 2.2118,4.9727 4.9746,4.9727 h 27.0898 c 2.7628,0 4.9766,-2.2101 4.9766,-4.9727 v -27.0898 c 0,-2.7626 -2.2139,-4.9746 -4.9766,-4.9746 z m 54.6953,0 c -2.7627,0 -4.9746,2.212 -4.9746,4.9746 v 27.0898 c 0,2.7626 2.2118,4.9727 4.9746,4.9727 h 27.0899 c 2.7625,0 4.9726,-2.2099 4.9726,-4.9727 v -27.0898 c 0,-2.7628 -2.2102,-4.9746 -4.9726,-4.9746 z"
       style="fill:#aacfbd;fill-opacity:1;stroke:none;stroke-width:2;stroke-miterlimit:4;stroke-dasharray:none;stroke-opacity:1"
       sodipodi:nodetypes="csssscsscccccccssssssssssssssssssssssssssssssssssssssssssssssssssssssssssssssssssssssss" />
  </g>
  <path
     style="opacity:1;fill:#003865;fill-opacity:1;fill-rule:evenodd;stroke:#011f32;stroke-width:0.8764357;stroke-linecap:round;stroke-linejoin:round;stroke-miterlimit:4;stroke-dasharray:none;stroke-dashoffset:0;stroke-opacity:1;paint-order:markers stroke fill"
     d="m 192.44527,87.501462 v 33.300798 h 10.8243 c 2.4845,0 4.4843,2.0011 4.4843,4.4863 v 45.4766 c 0,2.4851 -1.9998,4.4863 -4.4843,4.4863 h -10.8243 v 33.2988 h 106.3575 V 87.501462 Z m 9.1231,4.2969 a 5.5670738,5.5686507 0 0 1 5.5683,5.5683 5.5670738,5.5686507 0 0 1 -5.5683,5.568398 5.5670738,5.5686507 0 0 1 -5.5664,-5.568398 5.5670738,5.5686507 0 0 1 5.5664,-5.5683 z m 87.8359,0 a 5.5670738,5.5686507 0 0 1 5.5684,5.5683 5.5670738,5.5686507 0 0 1 -5.5684,5.568398 5.5670738,5.5686507 0 0 1 -5.5664,-5.568398 5.5670738,5.5686507 0 0 1 5.5664,-5.5683 z m -87.8359,101.318298 a 5.5670738,5.5686507 0 0 1 5.5683,5.5684 5.5670738,5.5686507 0 0 1 -5.5683,5.5703 5.5670738,5.5686507 0 0 1 -5.5664,-5.5703 5.5670738,5.5686507 0 0 1 5.5664,-5.5684 z m 87.8359,0 a 5.5670738,5.5686507 0 0 1 5.5684,5.5684 5.5670738,5.5686507 0 0 1 -5.5684,5.5703 5.5670738,5.5686507 0 0 1 -5.5664,-5.5703 5.5670738,5.5686507 0 0 1 5.5664,-5.5684 z"
     id="rect8953-6-0"
     inkscape:connector-curvature="0" />
  <path
     style="opacity:1;fill:#011f32;fill-opacity:1;fill-rule:evenodd;stroke:#011f32;stroke-width:0.8764357;stroke-linecap:round;stroke-linejoin:round;stroke-miterlimit:4;stroke-dasharray:none;stroke-dashoffset:0;stroke-opacity:1;paint-order:markers stroke fill"
     d="M 281.39237,205.53516 V 90.517762 h -71.5316 v 39.261298 h -9.7084 v 36.4948 h 9.7084 v 39.2613 z"
     id="path9274"
     inkscape:connector-curvature="0" />
  <g
     style="fill:#98a4ae;fill-opacity:1;stroke-width:1.39907908"
     id="g9041"
     transform="matrix(-0.15658722,0,0,-0.15663157,29.762872,-414.09784)">
    <circle
       r="16.7887"
       cy="-3675.7378"
       cx="-1682.8203"
       id="path8987-6"
       style="opacity:1;fill:#98a4ae;fill-opacity:1;fill-rule:evenodd;stroke:#011f32;stroke-width:5.59631538;stroke-linecap:round;stroke-linejoin:round;stroke-miterlimit:4;stroke-dasharray:none;stroke-dashoffset:0;stroke-opacity:1;paint-order:markers stroke fill" />
    <circle
       r="16.7887"
       cy="-3617.8003"
       cx="-1682.8203"
       id="path8987-6-2"
       style="opacity:1;fill:#98a4ae;fill-opacity:1;fill-rule:evenodd;stroke:#011f32;stroke-width:5.59631538;stroke-linecap:round;stroke-linejoin:round;stroke-miterlimit:4;stroke-dasharray:none;stroke-dashoffset:0;stroke-opacity:1;paint-order:markers stroke fill" />
    <circle
       r="16.7887"
       cy="-3559.8628"
       cx="-1682.8203"
       id="path8987-6-6"
       style="opacity:1;fill:#98a4ae;fill-opacity:1;fill-rule:evenodd;stroke:#011f32;stroke-width:5.59631538;stroke-linecap:round;stroke-linejoin:round;stroke-miterlimit:4;stroke-dasharray:none;stroke-dashoffset:0;stroke-opacity:1;paint-order:markers stroke fill" />
    <circle
       r="16.7887"
       cy="-3501.9253"
       cx="-1682.8203"
       id="path8987-6-1"
       style="opacity:1;fill:#98a4ae;fill-opacity:1;fill-rule:evenodd;stroke:#011f32;stroke-width:5.59631538;stroke-linecap:round;stroke-linejoin:round;stroke-miterlimit:4;stroke-dasharray:none;stroke-dashoffset:0;stroke-opacity:1;paint-order:markers stroke fill" />
  </g>
  <g
     id="g1725"
     transform="matrix(1.0666666,0,0,1.0666666,-72.244528,-649.10094)"
     style="fill:#011f32;fill-opacity:1">
    <g
       id="g1710"
       style="fill:#011f32;fill-opacity:1">
      <path
         style="fill:#011f32;fill-opacity:1;stroke-width:0.93749994"
         d="m 211.55102,717.66102 c -1.46632,0.01 -2.65686,1.1961 -2.65686,2.6624 v 23.0182 c 0,1.4663 1.19054,2.6569 2.65686,2.6569 h 15.93566 c 1.46633,0 2.65503,-1.1906 2.65503,-2.6569 v -0.7672 h -2.65503 v 0.7672 h -15.93566 v -23.0182 h 2.50488 v -2.6624 z"
         id="path3107-2"
         inkscape:connector-curvature="0" />
      <path
         inkscape:connector-curvature="0"
         style="fill:#011f32;fill-opacity:1;stroke-width:0.93749988"
         d="m 235.64871,718.72102 -4.64243,-4.6424 c -0.498,-0.498 -1.17306,-0.7802 -1.87579,-0.7802 h -11.29344 c -1.46632,0.01 -2.65598,1.1952 -2.65598,2.6615 v 23.0185 c 0,1.4663 1.18966,2.656 2.65598,2.656 h 15.93587 c 1.46632,0 2.65598,-1.1897 2.65598,-2.656 v -18.3761 c 0,-0.7027 -0.2822,-1.3833 -0.78019,-1.8813 z m -2.09159,1.6656 h -4.21083 v -4.2109 z m -15.72007,18.5918 v -23.0185 h 8.85326 v 5.7546 c 0,0.736 0.59206,1.328 1.32799,1.328 h 5.75462 v 15.9359 z"
         id="path3107-2-2" />
      <path
         id="path1038"
         d="m 221.34823,729.77882 h 3.41677 v -3.4167 c 0,-0.4193 0.34002,-0.7592 0.75928,-0.7592 h 0.75928 c 0.41926,0 0.75929,0.3399 0.75929,0.7592 v 3.4167 h 3.41675 c 0.41927,0 0.75929,0.3401 0.75929,0.7594 v 0.7593 c 0,0.4191 -0.34002,0.7592 -0.75929,0.7592 h -3.41675 v 3.4167 c 0,0.4193 -0.34003,0.7594 -0.75929,0.7594 h -0.75928 c -0.41926,0 -0.75928,-0.3401 -0.75928,-0.7594 v -3.4167 h -3.41677 c -0.41927,0 -0.75928,-0.3401 -0.75928,-0.7592 v -0.7593 c 0,-0.4193 0.34001,-0.7594 0.75928,-0.7594 z"
         inkscape:connector-curvature="0"
         style="fill:#011f32;fill-opacity:1;stroke-width:0.93749976" />
    </g>
    <g
       id="g1714"
       style="fill:#011f32;fill-opacity:1">
      <path
         inkscape:connector-curvature="0"
         style="fill:#011f32;fill-opacity:1;stroke-width:0.9375"
         d="m 180.77764,720.71622 -4.64243,-4.6424 c -0.498,-0.498 -1.17306,-0.7802 -1.87579,-0.7802 h -11.29344 c -1.46632,0.01 -2.65598,1.1952 -2.65598,2.6615 v 23.0185 c 0,1.4663 1.18966,2.656 2.65598,2.656 h 15.93587 c 1.46632,0 2.65598,-1.1897 2.65598,-2.656 v -18.3761 c 0,-0.7027 -0.2822,-1.3833 -0.78019,-1.8813 z m -2.09159,1.6656 h -4.21083 v -4.2109 z m -15.72007,18.5918 v -23.0185 h 8.85326 v 5.7546 c 0,0.736 0.59206,1.328 1.32799,1.328 h 5.75462 v 15.9359 z"
         id="path3107" />
      <path
         id="path1049"
         d="m 175.62453,734.82592 -2.82194,-1.6282 2.82194,-1.6282 c 0.15904,-0.092 0.21344,-0.2948 0.12163,-0.4538 l -0.66476,-1.1508 c -0.0918,-0.1587 -0.295,-0.2134 -0.45402,-0.1219 l -2.82196,1.6282 v -3.2562 c 0,-0.1835 -0.14887,-0.3322 -0.33237,-0.3322 h -1.3295 c -0.18352,0 -0.33238,0.149 -0.33238,0.3322 v 3.2564 l -2.82194,-1.6283 c -0.15904,-0.092 -0.36229,-0.038 -0.45405,0.122 l -0.66475,1.1506 c -0.0918,0.1588 -0.0373,0.362 0.12163,0.4538 l 2.82195,1.6282 -2.82195,1.6282 c -0.15904,0.092 -0.21343,0.295 -0.12163,0.4538 l 0.66475,1.1508 c 0.0918,0.1587 0.29501,0.2133 0.45405,0.1219 l 2.82194,-1.6282 v 3.2562 c 0,0.1837 0.14888,0.3323 0.33238,0.3323 h 1.3295 c 0.18352,0 0.33237,-0.1491 0.33237,-0.3323 v -3.2564 l 2.82196,1.6283 c 0.15902,0.092 0.36227,0.038 0.45402,-0.122 l 0.66476,-1.1507 c 0.0918,-0.1588 0.0373,-0.3619 -0.12163,-0.4537 z"
         inkscape:connector-curvature="0"
         style="fill:#011f32;fill-opacity:1;stroke-width:0.93749988" />
    </g>
    <path
       style="fill:#011f32;fill-opacity:1;stroke-width:0.9375"
       inkscape:connector-curvature="0"
       d="m 161.36433,793.50562 a 2.4130746,2.4130746 0 0 0 2.41309,2.4131 h 14.47844 a 2.4130746,2.4130746 0 0 0 2.41305,-2.4131 v -16.8915 h -19.30458 z m 13.6741,-12.8697 a 0.80435815,0.80435815 0 0 1 1.60871,0 v 11.261 a 0.80435815,0.80435815 0 0 1 -1.60871,0 z m -4.82615,0 a 0.80436,0.80436 0 0 1 1.60872,0 v 11.261 a 0.80436,0.80436 0 0 1 -1.60872,0 z m -4.82615,0 a 0.80435815,0.80435815 0 0 1 1.60871,0 v 11.261 a 0.80435815,0.80435815 0 0 1 -1.60871,0 z m 16.08716,-8.8479 h -6.03271 l -0.47253,-0.9401 a 1.2065373,1.2065373 0 0 0 -1.08087,-0.6686 h -5.74614 a 1.1924611,1.1924611 0 0 0 -1.07581,0.6686 l -0.47257,0.9401 h -6.03268 a 0.80435815,0.80435815 0 0 0 -0.80437,0.8043 v 1.6087 a 0.80435815,0.80435815 0 0 0 0.80437,0.8044 h 20.91331 a 0.80435815,0.80435815 0 0 0 0.80434,-0.8044 v -1.6087 a 0.80435815,0.80435815 0 0 0 -0.80434,-0.8043 z"
       id="path1060" />
    <path
       id="path1119"
       d="m 222.29235,770.54232 c -6.79761,0 -12.30812,5.5105 -12.30812,12.3081 0,6.7976 5.51051,12.3081 12.30812,12.3081 6.79761,0 12.30813,-5.5105 12.30813,-12.3081 0,-6.7976 -5.51052,-12.3081 -12.30813,-12.3081 z m 0,2.3822 c 5.48565,0 9.92591,4.4394 9.92591,9.9259 0,5.4856 -4.43941,9.9259 -9.92591,9.9259 -5.48565,0 -9.92591,-4.4394 -9.92591,-9.9259 0,-5.4857 4.43942,-9.9259 9.92591,-9.9259 m 6.95826,6.4651 -1.11845,-1.1275 c -0.23162,-0.2335 -0.60871,-0.2351 -0.84221,0 l -7.01524,6.9589 -2.96745,-2.9916 c -0.23162,-0.2335 -0.6087,-0.235 -0.84221,0 l -1.12753,1.1185 c -0.23351,0.2316 -0.23505,0.6087 -0.003,0.8422 l 4.50542,4.5419 c 0.23162,0.2335 0.60871,0.2351 0.84222,0 l 8.56551,-8.4968 c 0.23346,-0.2316 0.23494,-0.6087 0.003,-0.8422 z"
       style="fill:#011f32;fill-opacity:1;stroke-width:0.93750012"
       inkscape:connector-curvature="0" />
  </g>
  <g
     id="g1780"
     transform="matrix(-1.0666666,0,0,-1.0666666,334.81607,960.17186)"
     style="fill:#011f32;fill-opacity:1;stroke:none;stroke-opacity:1">
    <path
       d="m 230.93629,861.5108 1.00708,-1.77613 q 4.41284,2.52686 7.80029,2.52686 2.76489,0 4.57764,-1.0437 2.23389,-1.30005 2.23389,-3.86353 0,-3.31421 -3.99171,-4.41285 -3.71703,-0.86059 -7.43407,-1.72119 -3.99171,-1.5747 -3.99171,-6.02417 0,-3.36914 2.83814,-5.32836 2.50855,-1.73951 6.02417,-1.73951 3.77198,0 8.80737,1.94092 l -0.73242,1.9043 q -4.57763,-1.79444 -8.07495,-1.79444 -2.61841,0 -4.54102,1.17188 -2.27051,1.39161 -2.27051,3.84521 0,3.40577 3.99171,4.54102 3.71704,0.86059 7.43407,1.70288 3.99171,1.53808 3.99171,5.91431 0,3.479 -2.80152,5.34668 -2.41699,1.61133 -6.06079,1.61133 -3.90015,0 -8.80737,-2.80151 z"
       id="path1735"
       inkscape:connector-curvature="0"
       style="font-style:normal;font-variant:normal;font-weight:normal;font-stretch:normal;font-size:40px;line-height:1.25;font-family:Abydos;-inkscape-font-specification:Abydos;letter-spacing:0px;word-spacing:0px;fill:#011f32;fill-opacity:1;stroke:none;stroke-width:0.9375;stroke-opacity:1" />
    <path
       d="m 212.14967,839.51983 q 2.85644,-1.22681 5.10864,-1.22681 4.02832,0 6.97632,2.58179 3.09448,2.69164 3.09448,6.64672 0,3.95508 -3.09448,6.64674 -2.948,2.58178 -6.97632,2.58178 -2.21558,0 -5.10864,-1.2085 l 0.78735,-1.88598 q 2.49023,1.0437 4.32129,1.0437 3.16772,0 5.52978,-1.97754 2.49024,-2.08741 2.49024,-5.2002 0,-3.11279 -2.49024,-5.20019 -2.36206,-1.97754 -5.52978,-1.97754 -1.79444,0 -4.32129,1.06201 z"
       id="path1737"
       inkscape:connector-curvature="0"
       style="font-style:normal;font-variant:normal;font-weight:normal;font-stretch:normal;font-size:40px;line-height:1.25;font-family:Abydos;-inkscape-font-specification:Abydos;letter-spacing:0px;word-spacing:0px;fill:#011f32;fill-opacity:1;stroke:none;stroke-width:0.9375;stroke-opacity:1" />
    <path
       d="m 191.69678,839.17192 1.84937,-0.86059 2.78321,5.98755 h 8.05664 l 2.80151,-5.98755 1.84936,0.86059 -7.74535,16.64429 h -1.86768 z m 5.58472,7.17774 3.07617,6.59179 3.07617,-6.59179 z"
       id="path1739"
       inkscape:connector-curvature="0"
       style="font-style:normal;font-variant:normal;font-weight:normal;font-stretch:normal;font-size:40px;line-height:1.25;font-family:Abydos;-inkscape-font-specification:Abydos;letter-spacing:0px;word-spacing:0px;fill:#011f32;fill-opacity:1;stroke:none;stroke-width:0.9375;stroke-opacity:1" />
    <path
       d="m 175.69337,840.28887 1.84936,-0.62256 8.99048,12.01172 v -13.03711 h 2.05078 v 16.11328 l -1.84936,0.62256 -8.99048,-12.01172 v 13.03711 h -2.05078 z"
       id="path1741"
       inkscape:connector-curvature="0"
       style="font-style:normal;font-variant:normal;font-weight:normal;font-stretch:normal;font-size:40px;line-height:1.25;font-family:Abydos;-inkscape-font-specification:Abydos;letter-spacing:0px;word-spacing:0px;fill:#011f32;fill-opacity:1;stroke:none;stroke-width:0.9375;stroke-opacity:1" />
    <path
       d="m 154.21509,861.5108 1.00708,-1.77613 q 4.41285,2.52686 7.8003,2.52686 2.76489,0 4.57764,-1.0437 2.23388,-1.30005 2.23388,-3.86353 0,-3.31421 -3.99169,-4.41285 -3.71705,-0.86059 -7.43409,-1.72119 -3.99169,-1.5747 -3.99169,-6.02417 0,-3.36914 2.83813,-5.32836 2.50854,-1.73951 6.02417,-1.73951 3.77197,0 8.80737,1.94092 l -0.73242,1.9043 q -4.57764,-1.79444 -8.07495,-1.79444 -2.61841,0 -4.54102,1.17188 -2.2705,1.39161 -2.2705,3.84521 0,3.40577 3.99169,4.54102 3.71704,0.86059 7.43409,1.70288 3.99169,1.53808 3.99169,5.91431 0,3.479 -2.80151,5.34668 -2.41699,1.61133 -6.06079,1.61133 -3.90015,0 -8.80738,-2.80151 z"
       id="path1743"
       inkscape:connector-curvature="0"
       style="font-style:normal;font-variant:normal;font-weight:normal;font-stretch:normal;font-size:40px;line-height:1.25;font-family:Abydos;-inkscape-font-specification:Abydos;letter-spacing:0px;word-spacing:0px;fill:#011f32;fill-opacity:1;stroke:none;stroke-width:0.9375;stroke-opacity:1" />
    <path
       d="m 134.56788,854.35137 h 6.99463 v -15.71045 h 2.05078 v 15.71045 h 6.99463 v 2.05078 h -16.04004 z"
       id="path1745"
       inkscape:connector-curvature="0"
       style="font-style:normal;font-variant:normal;font-weight:normal;font-stretch:normal;font-size:40px;line-height:1.25;font-family:Abydos;-inkscape-font-specification:Abydos;letter-spacing:0px;word-spacing:0px;fill:#011f32;fill-opacity:1;stroke:none;stroke-width:0.9375;stroke-opacity:1" />
    <path
       d="m 114.11499,839.17192 1.84937,-0.86059 2.7832,5.98755 h 8.05665 l 2.80151,-5.98755 1.84937,0.86059 -7.74537,16.64429 h -1.86767 z m 5.58473,7.17774 3.07617,6.59179 3.07617,-6.59179 z"
       id="path1747"
       inkscape:connector-curvature="0"
       style="font-style:normal;font-variant:normal;font-weight:normal;font-stretch:normal;font-size:40px;line-height:1.25;font-family:Abydos;-inkscape-font-specification:Abydos;letter-spacing:0px;word-spacing:0px;fill:#011f32;fill-opacity:1;stroke:none;stroke-width:0.9375;stroke-opacity:1" />
    <path
       d="m 94.962167,854.35137 h 6.994623 v -15.71045 h 2.05078 v 15.71045 h 6.99463 v 2.05078 H 94.962167 Z"
       id="path1749"
       inkscape:connector-curvature="0"
       style="font-style:normal;font-variant:normal;font-weight:normal;font-stretch:normal;font-size:40px;line-height:1.25;font-family:Abydos;-inkscape-font-specification:Abydos;letter-spacing:0px;word-spacing:0px;fill:#011f32;fill-opacity:1;stroke:none;stroke-width:0.9375;stroke-opacity:1" />
    <path
       d="m 88.699957,838.64092 h 2.050782 v 17.76123 h -2.050782 z"
       id="path1751"
       inkscape:connector-curvature="0"
       style="font-style:normal;font-variant:normal;font-weight:normal;font-stretch:normal;font-size:40px;line-height:1.25;font-family:Abydos;-inkscape-font-specification:Abydos;letter-spacing:0px;word-spacing:0px;fill:#011f32;fill-opacity:1;stroke:none;stroke-width:0.9375;stroke-opacity:1" />
    <path
       d="m 65.866704,847.52153 q 0,-3.66211 2.85645,-6.15234 2.746575,-2.38037 6.463622,-2.38037 3.717037,0 6.445313,2.38037 2.85644,2.49023 2.85644,6.15234 0,3.66211 -2.85644,6.15235 -2.728276,2.38037 -6.445313,2.38037 -3.717047,0 -6.463622,-2.38037 -2.85645,-2.49024 -2.85645,-6.15235 z m 2.050781,0 q 0,2.80152 2.270513,4.6875 2.142328,1.79443 4.998778,1.79443 2.856441,0 4.998778,-1.79443 2.252194,-1.88598 2.252194,-4.6875 0,-2.80151 -2.252194,-4.6875 -2.142337,-1.79443 -4.998778,-1.79443 -2.85645,0 -4.998778,1.79443 -2.270513,1.88599 -2.270513,4.6875 z"
       id="path1753"
       inkscape:connector-curvature="0"
       style="font-style:normal;font-variant:normal;font-weight:normal;font-stretch:normal;font-size:40px;line-height:1.25;font-family:Abydos;-inkscape-font-specification:Abydos;letter-spacing:0px;word-spacing:0px;fill:#011f32;fill-opacity:1;stroke:none;stroke-width:0.9375;stroke-opacity:1" />
    <path
       d="m 49.863287,840.28887 1.849365,-0.62256 8.990479,12.01172 v -13.03711 h 2.050782 v 16.11328 l -1.849367,0.62256 -8.990478,-12.01172 v 13.03711 h -2.050781 z"
       id="path1755"
       inkscape:connector-curvature="0"
       style="font-style:normal;font-variant:normal;font-weight:normal;font-stretch:normal;font-size:40px;line-height:1.25;font-family:Abydos;-inkscape-font-specification:Abydos;letter-spacing:0px;word-spacing:0px;fill:#011f32;fill-opacity:1;stroke:none;stroke-width:0.9375;stroke-opacity:1" />
  </g>
  <path
     inkscape:connector-curvature="0"
     style="opacity:1;fill:none;fill-opacity:1;fill-rule:evenodd;stroke:#c99313;stroke-width:1.5;stroke-linecap:round;stroke-linejoin:round;stroke-miterlimit:4;stroke-dasharray:none;stroke-dashoffset:0;stroke-opacity:1;paint-order:markers stroke fill"
     d="m 201.70507,91.797362 a 5.5670738,5.5686507 0 0 0 -5.5664,5.5683 5.5670738,5.5686507 0 0 0 5.5664,5.568398 5.5670738,5.5686507 0 0 0 5.5683,-5.568398 5.5670738,5.5686507 0 0 0 -5.5683,-5.5683 z m 87.8359,0 a 5.5670738,5.5686507 0 0 0 -5.5664,5.5683 5.5670738,5.5686507 0 0 0 5.5664,5.568398 5.5670738,5.5686507 0 0 0 5.5684,-5.568398 5.5670738,5.5686507 0 0 0 -5.5684,-5.5683 z m -87.8359,101.318298 a 5.5670738,5.5686507 0 0 0 -5.5664,5.5684 5.5670738,5.5686507 0 0 0 5.5664,5.5703 5.5670738,5.5686507 0 0 0 5.5683,-5.5703 5.5670738,5.5686507 0 0 0 -5.5683,-5.5684 z m 87.8359,0 a 5.5670738,5.5686507 0 0 0 -5.5664,5.5684 5.5670738,5.5686507 0 0 0 5.5664,5.5703 5.5670738,5.5686507 0 0 0 5.5684,-5.5703 5.5670738,5.5686507 0 0 0 -5.5684,-5.5684 z"
     id="path8987" />
  <path
     style="fill:#fafafa;fill-opacity:1;stroke-width:0.99999994"
     d="m 226.68457,196.30706 h -1.2473 v -2.9105 -2.9105 h 1.6632 1.6631 v 0.4157 0.4158 h 0.4158 0.4158 v 1.2474 1.2473 h -0.4158 -0.4158 v 0.8316 0.8316 h -0.4158 -0.4158 v 0.4158 0.4158 z m 0.4159,-0.8316 h 0.8315 v -0.8316 -0.8316 h 0.4158 0.4158 v -1.2473 -1.2474 h -1.2474 -1.2473 v 2.079 2.0789 z m 5.4051,0.8316 h -1.2474 v -0.4158 -0.4158 h -0.4157 -0.4157 v -1.2474 -1.2473 h 0.4157 0.4157 v -0.4158 -0.4158 h 1.2474 1.2474 v 0.4158 0.4158 h 0.4157 0.4158 v 1.2473 1.2474 h -0.4158 -0.4157 v 0.4158 0.4158 z m 0,-0.8316 h 1.2474 v -1.2474 -1.2473 h -1.2474 -1.2474 v 1.2473 1.2474 z m 3.3263,0.8316 h -0.4158 v -2.9105 -2.9105 h 0.4158 0.4158 v 1.6631 1.6631 h 0.4158 0.4157 v -0.4157 -0.4158 h 0.8316 0.8316 v -0.4158 -0.4158 h 0.4158 0.4158 v 0.4158 0.4158 h -0.4158 -0.4158 v 0.4158 0.4157 h -0.4158 -0.4158 v 0.4158 0.4158 h 0.4158 0.4158 v 0.4158 0.4158 h 0.4158 0.4158 v 0.4158 0.4158 h -0.4158 -0.4158 v -0.4158 -0.4158 h -0.8316 -0.8316 v -0.4158 -0.4158 h -0.4157 -0.4158 v 0.8316 0.8316 z m 6.2368,0 h -0.8316 v -0.4158 -0.4158 h -0.4157 -0.4159 v -1.6632 -1.6631 h 0.4159 0.4157 v 1.6631 1.6632 h 0.8316 0.8316 v 0.4158 0.4158 z m 2.0789,0 h -0.4157 v -0.8316 -0.8316 h -0.4159 -0.4157 v -0.4158 -0.4158 h 0.4157 0.4159 v -0.8315 -0.8316 h 0.4157 0.4158 v 2.0789 2.079 z m 1.6631,0 h -0.4158 v -2.079 -2.0789 h 0.8316 0.8316 v 0.4158 0.4158 h -0.4158 -0.4158 v 1.6631 1.6632 z m 1.6631,0 h -0.4157 v -1.2474 -1.2474 h 0.4157 0.4158 v -0.8315 -0.8316 h 0.4158 0.4158 v 0.8316 0.8315 h 0.4158 0.4158 v 1.2474 1.2474 h -0.4158 -0.4158 v -1.2474 -1.2474 h -0.4158 -0.4158 v 1.2474 1.2474 z m 4.9895,0 h -1.2474 v -0.4158 -0.4158 h -0.4158 -0.4158 v -1.2474 -1.2473 h 0.4158 0.4158 v -0.4158 -0.4158 h 1.2474 1.2473 v 0.4158 0.4158 h 0.4158 0.4158 v 0.8315 0.8316 h -1.6631 -1.6632 v 0.4158 0.4158 h 1.2474 1.2473 v 0.4158 0.4158 z m 0,-2.4948 h 1.2473 v -0.4157 -0.4158 h -1.2473 -1.2474 v 0.4158 0.4157 z m 3.3263,2.4948 h -0.4158 v -2.079 -2.0789 h 0.4158 0.4158 v 0.8316 0.8315 h 0.4158 0.4157 v 0.4158 0.4158 h -0.4157 -0.4158 v 0.8316 0.8316 z m 3.3262,0 h -0.4157 v -1.2474 -1.2474 h -0.4158 -0.4158 v -0.4157 -0.4158 h -0.4157 -0.4159 v -0.4158 -0.4158 h 0.8316 0.8316 v 0.8316 0.8315 h 0.4157 0.4158 v 1.2474 1.2474 z m 3.7421,0 h -0.8316 v -0.4158 -0.4158 h -0.4158 -0.4158 v -1.2474 -1.2473 h -0.8315 -0.8316 v -0.4158 -0.4158 h 0.8316 0.8315 v -0.8316 -0.8315 h 0.4158 0.4158 v 0.8315 0.8316 h 0.8316 0.8316 v 0.4158 0.4158 h -0.8316 -0.8316 v 1.2473 1.2474 h 0.8316 0.8316 v 0.4158 0.4158 z m 8.3157,0 h -0.8316 v -0.4158 -0.4158 h -0.4157 -0.4158 v -0.4158 -0.4158 h 0.4158 0.4157 v 0.4158 0.4158 h 0.8316 0.8316 v -0.4158 -0.4158 h 0.4158 0.4158 v -0.4158 -0.4158 h -0.8316 -0.8316 v -0.4157 -0.4158 h 0.4158 0.4158 v -0.4158 -0.4158 h 0.4158 0.4158 v -0.4158 -0.4158 h -1.2474 -1.2474 v 0.4158 0.4158 h -0.4157 -0.4158 v -0.4158 -0.4158 h 0.4158 0.4157 v -0.4158 -0.4157 h 1.2474 1.2474 v 0.4157 0.4158 h 0.4157 0.4158 v 0.4158 0.4158 h -0.4158 -0.4157 v 0.8316 0.8315 h 0.4157 0.4158 v 0.4158 0.4158 h -0.4158 -0.4157 v 0.4158 0.4158 h -0.4158 -0.4158 v 0.4158 0.4158 z m -36.1733,-9.9788 h -1.2473 v -0.4158 -0.4158 h -0.4158 -0.4158 v -0.4158 -0.4158 h 0.4158 0.4158 v 0.4158 0.4158 h 1.2473 1.2474 v -0.8316 -0.8316 h -1.2474 -1.2473 v -0.4157 -0.4158 h -0.4158 -0.4158 v -0.8316 -0.8316 h 0.4158 0.4158 v -0.4158 -0.4158 h 1.2473 1.2474 v 0.4158 0.4158 h 0.4158 0.4157 v 0.4158 0.4158 h -0.4157 -0.4158 v -0.4158 -0.4158 h -1.2474 -1.2473 v 0.8316 0.8316 h 1.6631 1.6631 v 1.2474 1.2473 h -0.4157 -0.4158 v 0.4158 0.4158 z m 4.9895,0 h -1.2474 v -0.4158 -0.4158 h -0.4158 -0.4158 v -1.2473 -1.2474 h 0.4158 0.4158 v -0.4158 -0.4158 h 1.2474 1.2473 v 0.4158 0.4158 h 0.4158 0.4158 v 0.8315 0.8316 h -1.6632 -1.6631 v 0.4158 0.4158 h 1.2474 1.2473 v 0.4158 0.4158 z m 0,-2.4948 h 1.2473 v -0.4157 -0.4158 h -1.2473 -1.2474 v 0.4158 0.4157 z m 4.9894,2.4948 h -2.0789 v -0.4158 -0.4158 h 0.8316 0.8315 v -1.2473 -1.2474 h -0.8315 -0.8316 v -0.4158 -0.4158 h 1.2473 1.2473 v 1.6631 1.6632 h 0.8316 0.8316 v 0.4158 0.4158 z m 5.4051,0 h -0.8315 v -0.4158 -0.4158 h -0.4158 -0.4158 v -1.2473 -1.2474 h -0.8316 -0.8315 v -0.4158 -0.4158 h 0.8315 0.8316 v -0.8316 -0.8316 h 0.4158 0.4158 v 0.8316 0.8316 h 0.8315 0.8316 v 0.4158 0.4158 h -0.8316 -0.8315 v 1.2474 1.2473 h 0.8315 0.8316 v 0.4158 0.4158 z m 4.5737,0 h -1.2474 v -0.4158 -0.4158 h -0.4157 -0.4158 v -1.2473 -1.2474 h 0.4158 0.4157 v -0.4158 -0.4158 h 1.2474 1.2474 v 0.4158 0.4158 h 0.4158 0.4157 v 0.8315 0.8316 h -1.6631 -1.6632 v 0.4158 0.4158 h 1.2474 1.2474 v 0.4158 0.4158 z m 0,-2.4948 h 1.2474 v -0.4157 -0.4158 h -1.2474 -1.2474 v 0.4158 0.4157 z m 9.9788,2.4948 h -2.0789 v -0.4158 -0.4158 h 0.8316 0.8315 v -2.0789 -2.079 h -0.4158 -0.4157 v 0.4158 0.4158 h -0.4158 -0.4158 v -0.4158 -0.4158 h 0.4158 0.4158 v -0.4158 -0.4158 h 0.8315 0.8316 v 2.4948 2.4947 h 0.8316 0.8315 v 0.4158 0.4158 z m -19.9576,-4.9895 h -0.4158 v -0.4158 -0.4158 h 0.4158 0.4157 v 0.4158 0.4158 z m -16.2156,-10.8103 h -3.3263 v -31.5997 -31.5996 h 23.6997 23.6998 v 14.1366 14.1367 h -0.4158 -0.4158 v -0.4158 -0.4158 h -0.4158 -0.4158 v 0.4158 0.4158 h -0.4158 -0.4158 v 12.4735 12.4737 h 1.2474 1.2474 v 4.9893 4.9895 h -4.1579 -4.1579 v -0.4159 -0.4157 h 1.2474 1.2473 v -0.4158 -0.4158 h -4.9894 -4.9894 v 0.8316 0.8316 h -2.9105 -2.9105 v -0.8316 -0.8316 h -1.2473 -1.2474 v 0.8316 0.8316 h -1.2474 -1.2473 v -0.4159 -0.4157 h -2.4946 -2.4948 v -0.4158 -0.4158 h -1.6631 -1.6632 v 0.8316 0.8316 h -1.2473 -1.2474 v -0.8316 -0.8316 h -1.6631 -1.6632 v 0.8316 0.8316 z m 3.742,-2.4948 h 0.4158 v -0.4157 -0.4159 h 0.4158 0.4158 v 0.4159 0.4157 h 3.3262 3.3263 v -0.8316 -0.8315 h -0.8315 -0.8316 v 0.4158 0.4157 h -0.4158 -0.4158 v -0.4157 -0.4158 h -1.2473 -1.2474 v 0.4158 0.4157 h -0.4158 -0.4158 v -0.4157 -0.4158 h -1.2473 -1.2474 v 0.8315 0.8316 z m 12.8893,-2.4947 h 13.3052 v -0.4158 -0.4158 h -13.3052 -13.3051 v 0.4158 0.4158 z m -5.8209,-1.6632 h 7.4841 v -0.4157 -0.4158 h 8.3157 8.3157 v -0.4158 -0.4158 h 0.8315 0.8316 v -0.4158 -0.4157 h 0.4158 0.4158 v -0.4158 -0.4157 h -0.8316 -0.8316 v 0.4157 0.4158 h -2.0789 -2.0789 v -0.4158 -0.4157 h -0.4158 -0.4158 v 0.4157 0.4158 h -2.4947 -2.4947 v -0.4158 -0.4157 h -1.2473 -1.2474 v 0.4157 0.4158 h -2.9105 -2.9105 v -0.4158 -0.4157 h -0.4158 -0.4158 v 0.4157 0.4158 h -6.6525 -6.6526 v 1.2473 1.2473 z m -4.9895,-4.1577 h 2.4947 v -0.4158 -0.4158 h 12.8894 12.8893 v 0.4158 0.4158 h 0.4158 0.4158 v -0.4158 -0.4158 h 0.4157 0.4158 v -0.4158 -0.4158 h -14.5524 -14.5525 v 0.4158 0.4158 h -0.4158 -0.4158 v -0.4158 -0.4158 h -0.8315 -0.8316 v 0.4158 0.4158 h -0.4158 -0.4158 v 0.4158 0.4158 z m 12.8893,-2.4947 h 15.3841 v -0.4158 -0.4158 h 1.2473 1.2474 v -0.4158 -0.4158 h -16.6314 -16.6314 v 0.8316 0.8316 z m -13.3051,-2.4948 h 1.2474 v -0.4158 -0.4157 h 0.4158 0.4158 v 0.4157 0.4158 h 0.4158 0.4157 v -0.4158 -0.4157 h 0.8316 0.8316 v 0.4157 0.4158 h 2.9105 2.9105 v -0.4158 -0.4157 h 0.4158 0.4157 v 0.4157 0.4158 h 1.6632 1.6631 v -0.4158 -0.4157 h 0.4158 0.4158 v -0.4159 -0.4157 h 0.4158 0.4157 v 0.4157 0.4159 h 0.8316 0.8316 v -0.4159 -0.4157 h 1.6631 1.6632 v 0.4157 0.4159 h 0.4158 0.4158 v -0.4159 -0.4157 h 0.8315 0.8316 v -0.4158 -0.4158 h 4.5736 4.5736 v -0.4158 -0.4158 h -0.8315 -0.8316 v -0.4157 -0.4159 h -16.6314 -16.6314 v 1.6632 1.6632 h 0.4158 0.4158 v 0.4157 0.4158 z m 0.4158,-4.9894 h 2.4947 v -0.4158 -0.4158 h 6.2368 6.2368 v -0.4158 -0.4158 h 0.4158 0.4157 v 0.4158 0.4158 h 3.3263 3.3263 v -0.4158 -0.4158 h 0.4159 0.4157 v 0.4158 0.4158 h 4.5736 4.5736 v -0.4158 -0.4158 h -0.8315 -0.8316 v -0.8315 -0.8315 h 0.4158 0.4158 v 0.4158 0.4157 h 0.4158 0.4157 v -1.2473 -1.2474 h -1.2473 -1.2474 v 0.4158 0.4158 h -0.4158 -0.4157 v -0.4158 -0.4158 h -0.8316 -0.8316 v 1.2474 1.2473 h -0.4158 -0.4158 v -1.2473 -1.2474 h -11.2261 -11.2262 v 0.4158 0.4158 h -0.4158 -0.4158 v -0.4158 -0.4158 h -0.8316 -0.8315 v 0.4158 0.4158 h -0.4158 -0.4158 v -0.4158 -0.4158 h -0.8316 -0.8315 v 0.4158 0.4158 h -0.8316 -0.8316 v 2.0788 2.079 z m 1.6632,-5.8209 h 4.1578 v -0.4158 -0.4158 h 12.0578 12.0577 v -0.4158 -0.4158 h -16.2156 -16.2156 v 0.8316 0.8316 z m 9.1472,-2.4948 h 13.3052 v -0.4158 -0.4157 h -7.0684 -7.0683 v -0.4158 -0.4158 h -0.8315 -0.8316 v 0.4158 0.4158 h -5.4053 -5.4052 v 0.4157 0.4158 z m -10.3946,-1.6631 h 2.9105 v -0.8316 -0.8316 h -2.9105 -2.9105 v 0.8316 0.8316 z m 6.2368,0 h 0.8316 v -0.8316 -0.8316 h -0.8316 -0.8316 v 0.8316 0.8316 z m 8.7315,0 h 0.4157 v -0.4158 -0.4158 h 0.4158 0.4158 v -0.4158 -0.4158 h -1.2473 -1.2474 v 0.4158 0.4158 h 0.4158 0.4158 v 0.4158 0.4158 z m 3.3263,0 h 0.4157 v -0.4158 -0.4158 h -0.4157 -0.4158 v 0.4158 0.4158 z m 6.2367,0 h 0.8316 v -0.4158 -0.4158 h -0.4158 -0.4158 v -0.4158 -0.4158 h -0.4158 -0.4157 v 0.8316 0.8316 z m -13.7209,-0.8316 h 0.4158 v -0.4158 -0.4158 h -0.4158 -0.4158 v 0.4158 0.4158 z m 22.0366,0 h 0.8316 v -0.4158 -0.4158 h -0.8316 -0.8316 v 0.4158 0.4158 z m -23.2839,-1.6631 h 12.4735 v -0.4159 -0.4157 h 4.9894 4.9894 v -0.4158 -0.4158 h -2.0789 -2.0789 v -0.4158 -0.4158 h -1.2474 -1.2473 v 0.4158 0.4158 h -14.1367 -14.1367 v 0.8316 0.8316 z m -16.2156,-0.8316 h 1.2474 v -1.2474 -1.2474 h -1.2474 -1.2473 v 1.2474 1.2474 z m 4.5736,-1.6632 h 0.8316 v -0.4157 -0.4159 h 1.2473 1.2474 v 0.4159 0.4157 h 0.8315 0.8316 v -0.4157 -0.4159 h 0.4158 0.4158 v -0.4157 -0.4158 h -3.3263 -3.3263 v 0.8315 0.8316 z m 5.821,-3.3262 h 6.6525 v -0.4158 -0.4158 h -6.6525 -6.6526 v 0.4158 0.4158 z m 26.1944,-1.6631 h 3.7421 v -0.4158 -0.4158 h 0.8316 0.8315 v -0.4158 -0.4158 h 0.8316 0.8316 v -0.4158 -0.4157 h -1.2474 -1.2473 v -0.4158 -0.4158 h -0.4158 -0.4158 v 0.4158 0.4158 h -3.7421 -3.7421 v 1.2473 1.2474 z m 2.4947,-0.8316 h -0.4158 v -0.4158 -0.4158 h 0.4158 0.4158 v 0.4158 0.4158 z m -5.821,-2.4947 h 0.4158 v -0.8316 -0.8316 h -0.4158 -0.4158 v 0.8316 0.8316 z m 3.3263,0 h 2.0789 v -0.8316 -0.8316 h -2.0789 -2.0789 v 0.8316 0.8316 z m -29.9365,-0.8316 h 2.9105 v -0.4158 -0.4158 h -1.2473 -1.2474 v -0.4158 -0.4157 h 1.6631 1.6632 v -0.4158 -0.4158 h -0.8316 -0.8316 v -0.4158 -0.4158 h -2.4947 -2.4947 v 1.6632 1.6631 z m 20.3735,0 h 3.3263 v -0.4158 -0.4158 h 0.4157 0.4158 v -1.6631 -1.6632 h -0.4158 -0.4157 v -0.4157 -0.4158 h 0.4157 0.4158 v -1.2474 -1.2473 h -2.0788 -2.079 v 0.4158 0.4157 h -0.4158 -0.4158 v -0.4157 -0.4158 h -1.2473 -1.2474 v 3.742 3.7421 z m 8.3157,-1.6631 h 0.8315 v -0.4158 -0.4158 h -0.4158 -0.4157 v -0.4158 -0.4158 h 0.8315 0.8316 v 0.4158 0.4158 h 0.4158 0.4158 v -0.4158 -0.4158 h 1.2473 1.2474 v -0.4158 -0.4158 h -2.9105 -2.9105 v -0.4157 -0.4158 h 0.8316 0.8315 v -0.4158 -0.4158 h -0.8315 -0.8316 v 0.4158 0.4158 h -0.4158 -0.4158 v -0.4158 -0.4158 h -0.4158 -0.4158 v 0.4158 0.4158 h 0.4158 0.4158 v 0.4158 0.4157 h -0.4158 -0.4158 v 0.8316 0.8316 h 0.4158 0.4158 v -0.4158 -0.4158 h 0.4158 0.4158 v 0.8316 0.8316 z m -17.8788,-0.8316 h 1.2474 v -1.6632 -1.6631 h -1.2474 -1.2473 v 0.8316 0.8315 h -0.4158 -0.4157 v 0.4158 0.4158 h 0.4157 0.4158 v 0.4158 0.4158 z m 24.9471,-0.8316 h 0.4158 v -0.4158 -0.4158 h -0.4158 -0.4158 v 0.4158 0.4158 z m -37.4206,-0.8316 h 2.9105 v -0.4157 -0.4158 h 0.8315 0.8316 v 0.4158 0.4157 h 2.4947 2.4948 v -0.4157 -0.4158 h -2.4948 -2.4947 v -0.4158 -0.4158 h -0.8316 -0.8315 v 0.4158 0.4158 h -0.8316 -0.8316 v -1.2474 -1.2473 h -0.8315 -0.8316 v 1.2473 1.2474 h -0.4158 -0.4158 v -0.4158 -0.4158 h -0.4158 -0.4158 v 0.4158 0.4158 h -0.4157 -0.4157 v 0.4158 0.4157 z m 5.821,-1.6631 h 0.4158 v -0.4158 -0.4158 h -0.4158 -0.4158 v 0.4158 0.4158 z m 2.9105,0 h 1.6632 v -0.4158 -0.4158 h -1.2474 -1.2474 v -0.4157 -0.4158 h -0.4157 -0.4159 v 0.8315 0.8316 z m 20.7892,-0.8316 h 1.6631 v -0.4157 -0.4158 h -1.6631 -1.6632 v 0.4158 0.4157 z m 3.3263,-4.1578 h 0.8315 v -0.4158 -0.4158 h 0.8316 0.8316 v -0.8315 -0.8316 h 0.4158 0.4158 v -0.4158 -0.4158 h -0.4158 -0.4158 v -0.4158 -0.4157 h -2.4947 -2.4947 v 0.4157 0.4158 h -0.4158 -0.4158 v -0.4158 -0.4157 h -2.4947 -2.4947 v 1.2473 1.2474 h 0.8316 0.8315 v 0.4158 0.4157 h 2.9105 2.9105 v 0.4158 0.4158 z m -41.1627,-10.8104 h -1.2474 v -0.4157 -0.4158 h -0.4157 -0.4158 v -0.4158 -0.4158 h 0.4158 0.4157 v 0.4158 0.4158 h 0.8316 0.8316 v -0.8316 -0.8316 h -0.4158 -0.4158 v -0.4158 -0.4158 h -0.4158 -0.4158 v -0.4157 -0.415798 h -0.4157 -0.4158 v -1.2474 -1.2473 h 0.4158 0.4157 v -0.4158 -0.4158 h 1.2474 1.2474 v 0.4158 0.4158 h 0.4157 0.4159 v 0.4157 0.4158 h -0.4159 -0.4157 v -0.4158 -0.4157 h -0.8316 -0.8316 v 0.8315 0.8316 h 0.4158 0.4158 v 0.4158 0.4158 h 0.4158 0.4158 v 0.415798 0.4157 h 0.4157 0.4159 v 1.2474 1.2474 h -0.4159 -0.4157 v 0.4158 0.4157 z m 4.9895,0 h -1.2474 v -0.4157 -0.4158 h -0.4158 -0.4158 v -2.079 -2.078898 h 0.4158 0.4158 v -0.4158 -0.4158 h 1.2474 1.2472 v 0.4158 0.4158 h 0.4158 0.4158 v 0.4158 0.4158 h -0.4158 -0.4158 v -0.4158 -0.4158 h -0.8314 -0.8316 v 2.078898 2.079 h 0.8316 0.8314 v -0.4158 -0.4158 h 0.4158 0.4158 v 0.4158 0.4158 h -0.4158 -0.4158 v 0.4158 0.4157 z m 5.8209,0 h -2.0789 v -0.4157 -0.4158 h -0.4158 -0.4158 v -0.8316 -0.8316 h 0.4158 0.4158 v -0.4158 -0.4158 h 1.2473 1.2474 v -0.831498 -0.8316 h -1.2474 -1.2473 v 0.4158 0.4158 h -0.4158 -0.4158 v -0.4158 -0.4158 h 0.4158 0.4158 v -0.4158 -0.4158 h 1.6631 1.6631 v 0.4158 0.4158 h 0.4158 0.4158 v 2.494698 2.4947 z m -0.4158,-0.8315 h 0.8316 v -0.8316 -0.8316 h -0.8316 -0.8316 v 0.8316 0.8316 z m 4.1579,0.8315 h -0.8316 v -2.9105 -2.910498 h 2.079 2.0789 v 0.4158 0.4158 h 0.4157 0.4159 v 2.494698 2.4947 h -0.8316 -0.8316 v -2.4947 -2.494698 h -0.8316 -0.8316 v 2.494698 2.4947 z m 5.8209,0 h -0.8315 v -2.9105 -2.910498 h 2.0789 2.0789 v 0.4158 0.4158 h 0.4158 0.4158 v 2.494698 2.4947 h -0.8316 -0.8316 v -2.4947 -2.494698 h -0.8315 -0.8316 v 2.494698 2.4947 z m 7.4842,0 h -1.6632 v -0.4157 -0.4158 h -0.4158 -0.4158 v -2.079 -2.078898 h 0.4158 0.4158 v -0.4158 -0.4158 h 1.6632 1.6631 v 0.4158 0.4158 h 0.4158 0.4158 v 1.247398 1.2473 h -1.6632 -1.6631 v 0.8316 0.8316 h 1.2474 1.2473 v -0.4158 -0.4158 h 0.4158 0.4158 v 0.4158 0.4158 h -0.4158 -0.4158 v 0.4158 0.4157 z m 0,-3.3263 h 0.8315 v -0.831498 -0.8316 h -0.8315 -0.8316 v 0.8316 0.831498 z m 9.563,3.3263 h -1.2474 v -0.4157 -0.4158 h 0.8316 0.8316 v -0.4158 -0.4158 h 0.4158 0.4158 v -0.4158 -0.4158 h -1.2474 -1.2474 v -0.4158 -0.4158 h -0.4158 -0.4157 v -1.663098 -1.6631 h 0.4157 0.4158 v -0.4158 -0.4158 h 1.6632 1.6631 v 0.4158 0.4158 h 0.4158 0.4158 v 2.4947 2.494698 h -0.4158 -0.4158 v 0.4158 0.4158 h -0.4158 -0.4157 v 0.4158 0.4157 z m 0.4158,-3.3263 h 0.8316 v -1.663098 -1.6631 h -0.8316 -0.8316 v 1.6631 1.663098 z m 5.821,3.3263 h -1.6632 v -0.4157 -0.4158 h -0.4157 -0.4158 v -0.4158 -0.4158 h 0.4158 0.4157 v 0.4158 0.4158 h 1.2474 1.2474 v -1.6632 -1.663098 h -1.2474 -1.2474 v -0.4158 -0.4158 h 0.4158 0.4158 v -0.4158 -0.4158 h 0.4158 0.4158 v -0.4158 -0.4157 h -1.2474 -1.2473 v -0.4158 -0.4158 h 2.4947 2.4947 v 0.4158 0.4158 h -0.4158 -0.4158 v 0.4157 0.4158 h -0.4157 -0.4158 v 0.4158 0.4158 h 0.4158 0.4157 v 0.4158 0.4158 h 0.4158 0.4158 v 1.663098 1.6632 h -0.4158 -0.4158 v 0.4158 0.4157 z m 3.7421,0 h -0.4158 v -0.8315 -0.8316 h 0.4158 0.4158 v -0.8316 -0.8316 h 0.4157 0.4158 v -0.831498 -0.8316 h 0.4158 0.4157 v -0.8316 -0.8315 h 0.4158 0.4158 v -0.4158 -0.4158 h 0.4158 0.4158 v 0.4158 0.4158 h -0.4158 -0.4158 v 0.8315 0.8316 h -0.4158 -0.4158 v 0.8316 0.831498 h -0.4157 -0.4158 v 0.8316 0.8316 h -0.4158 -0.4157 v 0.8316 0.8315 z m 2.9104,0 h -0.8316 v -0.8315 -0.8316 h 0.8316 0.8316 v 0.8316 0.8315 z m -2.4946,-5.820998 h -0.8316 v -0.8315 -0.8316 h 0.8316 0.8315 v 0.8316 0.8315 z"
     id="path9567"
     inkscape:connector-curvature="0" />
</svg>
