<?xml version="1.0" encoding="UTF-8" standalone="no"?>
<!-- Created with Inkscape (http://www.inkscape.org/) -->

<svg
   xmlns:dc="http://purl.org/dc/elements/1.1/"
   xmlns:cc="http://creativecommons.org/ns#"
   xmlns:rdf="http://www.w3.org/1999/02/22-rdf-syntax-ns#"
   xmlns:svg="http://www.w3.org/2000/svg"
   xmlns="http://www.w3.org/2000/svg"
   xmlns:sodipodi="http://sodipodi.sourceforge.net/DTD/sodipodi-0.dtd"
   xmlns:inkscape="http://www.inkscape.org/namespaces/inkscape"
   version="1.1"
   id="svg8379"
   width="500"
   height="345.05957"
   viewBox="0 0 500 345.05957"
   sodipodi:docname="interface.svg"
   inkscape:version="0.92.5 (2060ec1f9f, 2020-04-08)">
  <metadata
     id="metadata8385">
    <rdf:RDF>
      <cc:Work
         rdf:about="">
        <dc:format>image/svg+xml</dc:format>
        <dc:type
           rdf:resource="http://purl.org/dc/dcmitype/StillImage" />
        <dc:title></dc:title>
      </cc:Work>
    </rdf:RDF>
  </metadata>
  <defs
     id="defs8383" />
  <sodipodi:namedview
     pagecolor="#ffffff"
     bordercolor="#666666"
     borderopacity="1"
     objecttolerance="10"
     gridtolerance="10"
     guidetolerance="10"
     inkscape:pageopacity="0"
     inkscape:pageshadow="2"
     inkscape:window-width="1908"
     inkscape:window-height="1165"
     id="namedview8381"
     showgrid="false"
     showguides="false"
     inkscape:zoom="1.4142136"
     inkscape:cx="208.37027"
     inkscape:cy="88.684031"
     inkscape:window-x="6"
     inkscape:window-y="29"
     inkscape:window-maximized="0"
     inkscape:current-layer="svg8379"
     fit-margin-top="0"
     fit-margin-left="0"
     fit-margin-right="0"
     fit-margin-bottom="0" />
  <rect
     style="opacity:1;fill:#009b77;fill-opacity:1;fill-rule:evenodd;stroke:none;stroke-width:1.99999976;stroke-linecap:round;stroke-linejoin:round;stroke-miterlimit:4;stroke-dasharray:none;stroke-dashoffset:0;stroke-opacity:1;paint-order:markers stroke fill"
     id="rect9206"
     width="500"
     height="345.05957"
     x="0"
     y="0"
     rx="0"
     ry="0" />
  <g
     id="g3057"
     transform="matrix(-1.5343028,0,0,-1.5343028,-1899.4896,3971.869)"
     style="fill:#aacfbd;fill-opacity:1;stroke:none;stroke-width:1.30352366;stroke-miterlimit:4;stroke-dasharray:none">
    <path
       inkscape:connector-curvature="0"
       id="rect3808-3-9-1"
       transform="matrix(0.93750002,0,0,0.93750002,0,535.03926)"
       d="m -1606.5996,1963.7285 v 95.0664 c 0,4.2484 -3.1108,7.668 -6.9766,7.668 h -1.0449 c -3.8657,0 -6.9785,-3.4196 -6.9785,-7.668 v -95.0664 h -34.1328 c -0.2094,0 -0.3672,0.1578 -0.3672,0.3672 v 214.5664 l 0.3672,0.3672 h 322.2676 l 0.3652,-0.3672 v -214.5664 l -0.3652,-0.3672 z m 108.2578,21.6582 h 27.0898 c 3.1686,0 5.7325,2.5641 5.7325,5.7324 v 27.0899 c 0,3.1684 -2.5641,5.7285 -5.7325,5.7285 h -27.0898 c -3.1682,0 -5.7305,-2.5603 -5.7305,-5.7285 v -27.0899 c 0,-3.1681 2.5622,-5.7324 5.7305,-5.7324 z m 54.6953,0 h 27.0899 c 3.1682,0 5.7304,2.5643 5.7304,5.7324 v 27.0899 c 0,3.1682 -2.5623,5.7285 -5.7304,5.7285 h -27.0899 c -3.1682,0 -5.7324,-2.5601 -5.7324,-5.7285 v -27.0899 c 0,-3.1683 2.564,-5.7324 5.7324,-5.7324 z m -54.6953,0.7559 c -2.7626,0 -4.9746,2.2139 -4.9746,4.9765 v 27.0899 c 0,2.7628 2.2118,4.9726 4.9746,4.9726 h 27.0898 c 2.7628,0 4.9766,-2.2099 4.9766,-4.9726 v -27.0899 c 0,-2.7624 -2.2139,-4.9765 -4.9766,-4.9765 z m 54.6953,0 c -2.7627,0 -4.9746,2.214 -4.9746,4.9765 v 27.0899 c 0,2.7627 2.2118,4.9726 4.9746,4.9726 h 27.0899 c 2.7625,0 4.9726,-2.2098 4.9726,-4.9726 v -27.0899 c 0,-2.7626 -2.2103,-4.9765 -4.9726,-4.9765 z m -54.6953,55.9375 h 27.0898 c 3.1685,0 5.7325,2.564 5.7325,5.7324 v 27.0898 c 0,3.1686 -2.5641,5.7305 -5.7325,5.7305 h -27.0898 c -3.1682,0 -5.7305,-2.5621 -5.7305,-5.7305 v -27.0898 c 0,-3.1682 2.5622,-5.7324 5.7305,-5.7324 z m 54.6953,0 h 27.0899 c 3.1682,0 5.7304,2.5642 5.7304,5.7324 v 27.0898 c 0,3.1684 -2.5623,5.7305 -5.7304,5.7305 h -27.0899 c -3.1682,0 -5.7324,-2.562 -5.7324,-5.7305 v -27.0898 c 0,-3.1684 2.564,-5.7324 5.7324,-5.7324 z m -54.6953,0.7578 c -2.7626,0 -4.9746,2.2118 -4.9746,4.9746 v 27.0898 c 0,2.7628 2.2118,4.9727 4.9746,4.9727 h 27.0898 c 2.7628,0 4.9766,-2.2101 4.9766,-4.9727 v -27.0898 c 0,-2.7626 -2.2139,-4.9746 -4.9766,-4.9746 z m 54.6953,0 c -2.7627,0 -4.9746,2.212 -4.9746,4.9746 v 27.0898 c 0,2.7626 2.2118,4.9727 4.9746,4.9727 h 27.0899 c 2.7625,0 4.9726,-2.2099 4.9726,-4.9727 v -27.0898 c 0,-2.7628 -2.2102,-4.9746 -4.9726,-4.9746 z"
       style="fill:#aacfbd;fill-opacity:1;stroke:none;stroke-width:1.39042521;stroke-miterlimit:4;stroke-dasharray:none;stroke-opacity:1"
       sodipodi:nodetypes="csssscsscccccccssssssssssssssssssssssssssssssssssssssssssssssssssssssssssssssssssssssss" />
  </g>
  <path
     style="opacity:1;fill:#003865;fill-opacity:1;fill-rule:evenodd;stroke:#011f32;stroke-width:0.8764357;stroke-linecap:round;stroke-linejoin:round;stroke-miterlimit:4;stroke-dasharray:none;stroke-dashoffset:0;stroke-opacity:1;paint-order:markers stroke fill"
     d="m 276.81499,125.86288 v 47.90017 h 15.56977 c 3.57373,0 6.45026,2.8784 6.45026,6.45313 v 65.41395 c 0,3.57459 -2.87653,6.45313 -6.45026,6.45313 h -15.56977 v 47.89729 H 429.80056 V 125.86288 Z m 13.12275,6.1807 a 8.0077285,8.0099967 0 0 1 8.00949,8.0095 8.0077285,8.0099967 0 0 1 -8.00949,8.00963 8.0077285,8.0099967 0 0 1 -8.00676,-8.00963 8.0077285,8.0099967 0 0 1 8.00676,-8.0095 z m 126.34394,0 a 8.0077285,8.0099967 0 0 1 8.00963,8.0095 8.0077285,8.0099967 0 0 1 -8.00963,8.00963 8.0077285,8.0099967 0 0 1 -8.00676,-8.00963 8.0077285,8.0099967 0 0 1 8.00676,-8.0095 z M 289.93774,277.78072 a 8.0077285,8.0099967 0 0 1 8.00949,8.00964 8.0077285,8.0099967 0 0 1 -8.00949,8.01237 8.0077285,8.0099967 0 0 1 -8.00676,-8.01237 8.0077285,8.0099967 0 0 1 8.00676,-8.00964 z m 126.34394,0 a 8.0077285,8.0099967 0 0 1 8.00963,8.00964 8.0077285,8.0099967 0 0 1 -8.00963,8.01237 8.0077285,8.0099967 0 0 1 -8.00676,-8.01237 8.0077285,8.0099967 0 0 1 8.00676,-8.00964 z"
     id="rect8953-6-0"
     inkscape:connector-curvature="0" />
  <path
     style="opacity:1;fill:#011f32;fill-opacity:1;fill-rule:evenodd;stroke:#011f32;stroke-width:0.8764357;stroke-linecap:round;stroke-linejoin:round;stroke-miterlimit:4;stroke-dasharray:none;stroke-dashoffset:0;stroke-opacity:1;paint-order:markers stroke fill"
     d="M 404.75729,295.6436 V 130.20156 H 301.8656 v 56.4738 h -13.96465 v 52.49444 h 13.96465 v 56.4738 z"
     id="path9274"
     inkscape:connector-curvature="0" />
  <g
     style="fill:#98a4ae;fill-opacity:1;stroke-width:0.97265738"
     id="g9041"
     transform="matrix(-0.22523646,0,0,-0.22530025,42.811181,-595.64204)">
    <circle
       r="16.7887"
       cy="-3675.7378"
       cx="-1682.8203"
       id="path8987-6"
       style="opacity:1;fill:#98a4ae;fill-opacity:1;fill-rule:evenodd;stroke:#011f32;stroke-width:3.89062881;stroke-linecap:round;stroke-linejoin:round;stroke-miterlimit:4;stroke-dasharray:none;stroke-dashoffset:0;stroke-opacity:1;paint-order:markers stroke fill" />
    <circle
       r="16.7887"
       cy="-3617.8003"
       cx="-1682.8203"
       id="path8987-6-2"
       style="opacity:1;fill:#98a4ae;fill-opacity:1;fill-rule:evenodd;stroke:#011f32;stroke-width:3.89062881;stroke-linecap:round;stroke-linejoin:round;stroke-miterlimit:4;stroke-dasharray:none;stroke-dashoffset:0;stroke-opacity:1;paint-order:markers stroke fill" />
    <circle
       r="16.7887"
       cy="-3559.8628"
       cx="-1682.8203"
       id="path8987-6-6"
       style="opacity:1;fill:#98a4ae;fill-opacity:1;fill-rule:evenodd;stroke:#011f32;stroke-width:3.89062881;stroke-linecap:round;stroke-linejoin:round;stroke-miterlimit:4;stroke-dasharray:none;stroke-dashoffset:0;stroke-opacity:1;paint-order:markers stroke fill" />
    <circle
       r="16.7887"
       cy="-3501.9253"
       cx="-1682.8203"
       id="path8987-6-1"
       style="opacity:1;fill:#98a4ae;fill-opacity:1;fill-rule:evenodd;stroke:#011f32;stroke-width:3.89062881;stroke-linecap:round;stroke-linejoin:round;stroke-miterlimit:4;stroke-dasharray:none;stroke-dashoffset:0;stroke-opacity:1;paint-order:markers stroke fill" />
  </g>
  <g
     id="g1725"
     transform="matrix(1.5343028,0,0,1.5343028,-103.91718,-933.67258)"
     style="fill:#011f32;fill-opacity:1;stroke-width:0.6952126">
    <g
       id="g1710"
       style="fill:#011f32;fill-opacity:1;stroke-width:0.6952126">
      <path
         style="fill:#011f32;fill-opacity:1;stroke-width:0.65176177"
         d="m 211.55102,717.66102 c -1.46632,0.01 -2.65686,1.1961 -2.65686,2.6624 v 23.0182 c 0,1.4663 1.19054,2.6569 2.65686,2.6569 h 15.93566 c 1.46633,0 2.65503,-1.1906 2.65503,-2.6569 v -0.7672 h -2.65503 v 0.7672 h -15.93566 v -23.0182 h 2.50488 v -2.6624 z"
         id="path3107-2"
         inkscape:connector-curvature="0" />
      <path
         inkscape:connector-curvature="0"
         style="fill:#011f32;fill-opacity:1;stroke-width:0.65176171"
         d="m 235.64871,718.72102 -4.64243,-4.6424 c -0.498,-0.498 -1.17306,-0.7802 -1.87579,-0.7802 h -11.29344 c -1.46632,0.01 -2.65598,1.1952 -2.65598,2.6615 v 23.0185 c 0,1.4663 1.18966,2.656 2.65598,2.656 h 15.93587 c 1.46632,0 2.65598,-1.1897 2.65598,-2.656 v -18.3761 c 0,-0.7027 -0.2822,-1.3833 -0.78019,-1.8813 z m -2.09159,1.6656 h -4.21083 v -4.2109 z m -15.72007,18.5918 v -23.0185 h 8.85326 v 5.7546 c 0,0.736 0.59206,1.328 1.32799,1.328 h 5.75462 v 15.9359 z"
         id="path3107-2-2" />
      <path
         id="path1038"
         d="m 221.34823,729.77882 h 3.41677 v -3.4167 c 0,-0.4193 0.34002,-0.7592 0.75928,-0.7592 h 0.75928 c 0.41926,0 0.75929,0.3399 0.75929,0.7592 v 3.4167 h 3.41675 c 0.41927,0 0.75929,0.3401 0.75929,0.7594 v 0.7593 c 0,0.4191 -0.34002,0.7592 -0.75929,0.7592 h -3.41675 v 3.4167 c 0,0.4193 -0.34003,0.7594 -0.75929,0.7594 h -0.75928 c -0.41926,0 -0.75928,-0.3401 -0.75928,-0.7594 v -3.4167 h -3.41677 c -0.41927,0 -0.75928,-0.3401 -0.75928,-0.7592 v -0.7593 c 0,-0.4193 0.34001,-0.7594 0.75928,-0.7594 z"
         inkscape:connector-curvature="0"
         style="fill:#011f32;fill-opacity:1;stroke-width:0.65176165" />
    </g>
    <g
       id="g1714"
       style="fill:#011f32;fill-opacity:1;stroke-width:0.6952126">
      <path
         inkscape:connector-curvature="0"
         style="fill:#011f32;fill-opacity:1;stroke-width:0.65176177"
         d="m 180.77764,720.71622 -4.64243,-4.6424 c -0.498,-0.498 -1.17306,-0.7802 -1.87579,-0.7802 h -11.29344 c -1.46632,0.01 -2.65598,1.1952 -2.65598,2.6615 v 23.0185 c 0,1.4663 1.18966,2.656 2.65598,2.656 h 15.93587 c 1.46632,0 2.65598,-1.1897 2.65598,-2.656 v -18.3761 c 0,-0.7027 -0.2822,-1.3833 -0.78019,-1.8813 z m -2.09159,1.6656 h -4.21083 v -4.2109 z m -15.72007,18.5918 v -23.0185 h 8.85326 v 5.7546 c 0,0.736 0.59206,1.328 1.32799,1.328 h 5.75462 v 15.9359 z"
         id="path3107" />
      <path
         id="path1049"
         d="m 175.62453,734.82592 -2.82194,-1.6282 2.82194,-1.6282 c 0.15904,-0.092 0.21344,-0.2948 0.12163,-0.4538 l -0.66476,-1.1508 c -0.0918,-0.1587 -0.295,-0.2134 -0.45402,-0.1219 l -2.82196,1.6282 v -3.2562 c 0,-0.1835 -0.14887,-0.3322 -0.33237,-0.3322 h -1.3295 c -0.18352,0 -0.33238,0.149 -0.33238,0.3322 v 3.2564 l -2.82194,-1.6283 c -0.15904,-0.092 -0.36229,-0.038 -0.45405,0.122 l -0.66475,1.1506 c -0.0918,0.1588 -0.0373,0.362 0.12163,0.4538 l 2.82195,1.6282 -2.82195,1.6282 c -0.15904,0.092 -0.21343,0.295 -0.12163,0.4538 l 0.66475,1.1508 c 0.0918,0.1587 0.29501,0.2133 0.45405,0.1219 l 2.82194,-1.6282 v 3.2562 c 0,0.1837 0.14888,0.3323 0.33238,0.3323 h 1.3295 c 0.18352,0 0.33237,-0.1491 0.33237,-0.3323 v -3.2564 l 2.82196,1.6283 c 0.15902,0.092 0.36227,0.038 0.45402,-0.122 l 0.66476,-1.1507 c 0.0918,-0.1588 0.0373,-0.3619 -0.12163,-0.4537 z"
         inkscape:connector-curvature="0"
         style="fill:#011f32;fill-opacity:1;stroke-width:0.65176171" />
    </g>
    <path
       style="fill:#011f32;fill-opacity:1;stroke-width:0.65176177"
       inkscape:connector-curvature="0"
       d="m 161.36433,793.50562 a 2.4130746,2.4130746 0 0 0 2.41309,2.4131 h 14.47844 a 2.4130746,2.4130746 0 0 0 2.41305,-2.4131 v -16.8915 h -19.30458 z m 13.6741,-12.8697 a 0.80435815,0.80435815 0 0 1 1.60871,0 v 11.261 a 0.80435815,0.80435815 0 0 1 -1.60871,0 z m -4.82615,0 a 0.80436,0.80436 0 0 1 1.60872,0 v 11.261 a 0.80436,0.80436 0 0 1 -1.60872,0 z m -4.82615,0 a 0.80435815,0.80435815 0 0 1 1.60871,0 v 11.261 a 0.80435815,0.80435815 0 0 1 -1.60871,0 z m 16.08716,-8.8479 h -6.03271 l -0.47253,-0.9401 a 1.2065373,1.2065373 0 0 0 -1.08087,-0.6686 h -5.74614 a 1.1924611,1.1924611 0 0 0 -1.07581,0.6686 l -0.47257,0.9401 h -6.03268 a 0.80435815,0.80435815 0 0 0 -0.80437,0.8043 v 1.6087 a 0.80435815,0.80435815 0 0 0 0.80437,0.8044 h 20.91331 a 0.80435815,0.80435815 0 0 0 0.80434,-0.8044 v -1.6087 a 0.80435815,0.80435815 0 0 0 -0.80434,-0.8043 z"
       id="path1060" />
    <path
       id="path1119"
       d="m 222.29235,770.54232 c -6.79761,0 -12.30812,5.5105 -12.30812,12.3081 0,6.7976 5.51051,12.3081 12.30812,12.3081 6.79761,0 12.30813,-5.5105 12.30813,-12.3081 0,-6.7976 -5.51052,-12.3081 -12.30813,-12.3081 z m 0,2.3822 c 5.48565,0 9.92591,4.4394 9.92591,9.9259 0,5.4856 -4.43941,9.9259 -9.92591,9.9259 -5.48565,0 -9.92591,-4.4394 -9.92591,-9.9259 0,-5.4857 4.43942,-9.9259 9.92591,-9.9259 m 6.95826,6.4651 -1.11845,-1.1275 c -0.23162,-0.2335 -0.60871,-0.2351 -0.84221,0 l -7.01524,6.9589 -2.96745,-2.9916 c -0.23162,-0.2335 -0.6087,-0.235 -0.84221,0 l -1.12753,1.1185 c -0.23351,0.2316 -0.23505,0.6087 -0.003,0.8422 l 4.50542,4.5419 c 0.23162,0.2335 0.60871,0.2351 0.84222,0 l 8.56551,-8.4968 c 0.23346,-0.2316 0.23494,-0.6087 0.003,-0.8422 z"
       style="fill:#011f32;fill-opacity:1;stroke-width:0.65176189"
       inkscape:connector-curvature="0" />
  </g>
  <g
     id="g1780"
     transform="matrix(-1.5343028,0,0,-1.5343028,481.60243,1381.1198)"
     style="fill:#011f32;fill-opacity:1;stroke:none;stroke-width:0.6952126;stroke-opacity:1">
    <path
       d="m 230.93629,861.5108 1.00708,-1.77613 q 4.41284,2.52686 7.80029,2.52686 2.76489,0 4.57764,-1.0437 2.23389,-1.30005 2.23389,-3.86353 0,-3.31421 -3.99171,-4.41285 -3.71703,-0.86059 -7.43407,-1.72119 -3.99171,-1.5747 -3.99171,-6.02417 0,-3.36914 2.83814,-5.32836 2.50855,-1.73951 6.02417,-1.73951 3.77198,0 8.80737,1.94092 l -0.73242,1.9043 q -4.57763,-1.79444 -8.07495,-1.79444 -2.61841,0 -4.54102,1.17188 -2.27051,1.39161 -2.27051,3.84521 0,3.40577 3.99171,4.54102 3.71704,0.86059 7.43407,1.70288 3.99171,1.53808 3.99171,5.91431 0,3.479 -2.80152,5.34668 -2.41699,1.61133 -6.06079,1.61133 -3.90015,0 -8.80737,-2.80151 z"
       id="path1735"
       inkscape:connector-curvature="0"
       style="font-style:normal;font-variant:normal;font-weight:normal;font-stretch:normal;font-size:40px;line-height:1.25;font-family:Abydos;-inkscape-font-specification:Abydos;letter-spacing:0px;word-spacing:0px;fill:#011f32;fill-opacity:1;stroke:none;stroke-width:0.65176177;stroke-opacity:1" />
    <path
       d="m 212.14967,839.51983 q 2.85644,-1.22681 5.10864,-1.22681 4.02832,0 6.97632,2.58179 3.09448,2.69164 3.09448,6.64672 0,3.95508 -3.09448,6.64674 -2.948,2.58178 -6.97632,2.58178 -2.21558,0 -5.10864,-1.2085 l 0.78735,-1.88598 q 2.49023,1.0437 4.32129,1.0437 3.16772,0 5.52978,-1.97754 2.49024,-2.08741 2.49024,-5.2002 0,-3.11279 -2.49024,-5.20019 -2.36206,-1.97754 -5.52978,-1.97754 -1.79444,0 -4.32129,1.06201 z"
       id="path1737"
       inkscape:connector-curvature="0"
       style="font-style:normal;font-variant:normal;font-weight:normal;font-stretch:normal;font-size:40px;line-height:1.25;font-family:Abydos;-inkscape-font-specification:Abydos;letter-spacing:0px;word-spacing:0px;fill:#011f32;fill-opacity:1;stroke:none;stroke-width:0.65176177;stroke-opacity:1" />
    <path
       d="m 191.69678,839.17192 1.84937,-0.86059 2.78321,5.98755 h 8.05664 l 2.80151,-5.98755 1.84936,0.86059 -7.74535,16.64429 h -1.86768 z m 5.58472,7.17774 3.07617,6.59179 3.07617,-6.59179 z"
       id="path1739"
       inkscape:connector-curvature="0"
       style="font-style:normal;font-variant:normal;font-weight:normal;font-stretch:normal;font-size:40px;line-height:1.25;font-family:Abydos;-inkscape-font-specification:Abydos;letter-spacing:0px;word-spacing:0px;fill:#011f32;fill-opacity:1;stroke:none;stroke-width:0.65176177;stroke-opacity:1" />
    <path
       d="m 175.69337,840.28887 1.84936,-0.62256 8.99048,12.01172 v -13.03711 h 2.05078 v 16.11328 l -1.84936,0.62256 -8.99048,-12.01172 v 13.03711 h -2.05078 z"
       id="path1741"
       inkscape:connector-curvature="0"
       style="font-style:normal;font-variant:normal;font-weight:normal;font-stretch:normal;font-size:40px;line-height:1.25;font-family:Abydos;-inkscape-font-specification:Abydos;letter-spacing:0px;word-spacing:0px;fill:#011f32;fill-opacity:1;stroke:none;stroke-width:0.65176177;stroke-opacity:1" />
    <path
       d="m 154.21509,861.5108 1.00708,-1.77613 q 4.41285,2.52686 7.8003,2.52686 2.76489,0 4.57764,-1.0437 2.23388,-1.30005 2.23388,-3.86353 0,-3.31421 -3.99169,-4.41285 -3.71705,-0.86059 -7.43409,-1.72119 -3.99169,-1.5747 -3.99169,-6.02417 0,-3.36914 2.83813,-5.32836 2.50854,-1.73951 6.02417,-1.73951 3.77197,0 8.80737,1.94092 l -0.73242,1.9043 q -4.57764,-1.79444 -8.07495,-1.79444 -2.61841,0 -4.54102,1.17188 -2.2705,1.39161 -2.2705,3.84521 0,3.40577 3.99169,4.54102 3.71704,0.86059 7.43409,1.70288 3.99169,1.53808 3.99169,5.91431 0,3.479 -2.80151,5.34668 -2.41699,1.61133 -6.06079,1.61133 -3.90015,0 -8.80738,-2.80151 z"
       id="path1743"
       inkscape:connector-curvature="0"
       style="font-style:normal;font-variant:normal;font-weight:normal;font-stretch:normal;font-size:40px;line-height:1.25;font-family:Abydos;-inkscape-font-specification:Abydos;letter-spacing:0px;word-spacing:0px;fill:#011f32;fill-opacity:1;stroke:none;stroke-width:0.65176177;stroke-opacity:1" />
    <path
       d="m 134.56788,854.35137 h 6.99463 v -15.71045 h 2.05078 v 15.71045 h 6.99463 v 2.05078 h -16.04004 z"
       id="path1745"
       inkscape:connector-curvature="0"
       style="font-style:normal;font-variant:normal;font-weight:normal;font-stretch:normal;font-size:40px;line-height:1.25;font-family:Abydos;-inkscape-font-specification:Abydos;letter-spacing:0px;word-spacing:0px;fill:#011f32;fill-opacity:1;stroke:none;stroke-width:0.65176177;stroke-opacity:1" />
    <path
       d="m 114.11499,839.17192 1.84937,-0.86059 2.7832,5.98755 h 8.05665 l 2.80151,-5.98755 1.84937,0.86059 -7.74537,16.64429 h -1.86767 z m 5.58473,7.17774 3.07617,6.59179 3.07617,-6.59179 z"
       id="path1747"
       inkscape:connector-curvature="0"
       style="font-style:normal;font-variant:normal;font-weight:normal;font-stretch:normal;font-size:40px;line-height:1.25;font-family:Abydos;-inkscape-font-specification:Abydos;letter-spacing:0px;word-spacing:0px;fill:#011f32;fill-opacity:1;stroke:none;stroke-width:0.65176177;stroke-opacity:1" />
    <path
       d="m 94.962167,854.35137 h 6.994623 v -15.71045 h 2.05078 v 15.71045 h 6.99463 v 2.05078 H 94.962167 Z"
       id="path1749"
       inkscape:connector-curvature="0"
       style="font-style:normal;font-variant:normal;font-weight:normal;font-stretch:normal;font-size:40px;line-height:1.25;font-family:Abydos;-inkscape-font-specification:Abydos;letter-spacing:0px;word-spacing:0px;fill:#011f32;fill-opacity:1;stroke:none;stroke-width:0.65176177;stroke-opacity:1" />
    <path
       d="m 88.699957,838.64092 h 2.050782 v 17.76123 h -2.050782 z"
       id="path1751"
       inkscape:connector-curvature="0"
       style="font-style:normal;font-variant:normal;font-weight:normal;font-stretch:normal;font-size:40px;line-height:1.25;font-family:Abydos;-inkscape-font-specification:Abydos;letter-spacing:0px;word-spacing:0px;fill:#011f32;fill-opacity:1;stroke:none;stroke-width:0.65176177;stroke-opacity:1" />
    <path
       d="m 65.866704,847.52153 q 0,-3.66211 2.85645,-6.15234 2.746575,-2.38037 6.463622,-2.38037 3.717037,0 6.445313,2.38037 2.85644,2.49023 2.85644,6.15234 0,3.66211 -2.85644,6.15235 -2.728276,2.38037 -6.445313,2.38037 -3.717047,0 -6.463622,-2.38037 -2.85645,-2.49024 -2.85645,-6.15235 z m 2.050781,0 q 0,2.80152 2.270513,4.6875 2.142328,1.79443 4.998778,1.79443 2.856441,0 4.998778,-1.79443 2.252194,-1.88598 2.252194,-4.6875 0,-2.80151 -2.252194,-4.6875 -2.142337,-1.79443 -4.998778,-1.79443 -2.85645,0 -4.998778,1.79443 -2.270513,1.88599 -2.270513,4.6875 z"
       id="path1753"
       inkscape:connector-curvature="0"
       style="font-style:normal;font-variant:normal;font-weight:normal;font-stretch:normal;font-size:40px;line-height:1.25;font-family:Abydos;-inkscape-font-specification:Abydos;letter-spacing:0px;word-spacing:0px;fill:#011f32;fill-opacity:1;stroke:none;stroke-width:0.65176177;stroke-opacity:1" />
    <path
       d="m 49.863287,840.28887 1.849365,-0.62256 8.990479,12.01172 v -13.03711 h 2.050782 v 16.11328 l -1.849367,0.62256 -8.990478,-12.01172 v 13.03711 h -2.050781 z"
       id="path1755"
       inkscape:connector-curvature="0"
       style="font-style:normal;font-variant:normal;font-weight:normal;font-stretch:normal;font-size:40px;line-height:1.25;font-family:Abydos;-inkscape-font-specification:Abydos;letter-spacing:0px;word-spacing:0px;fill:#011f32;fill-opacity:1;stroke:none;stroke-width:0.65176177;stroke-opacity:1" />
  </g>
  <path
     inkscape:connector-curvature="0"
     style="opacity:1;fill:none;fill-opacity:1;fill-rule:evenodd;stroke:#c99313;stroke-width:1.5;stroke-linecap:round;stroke-linejoin:round;stroke-miterlimit:4;stroke-dasharray:none;stroke-dashoffset:0;stroke-opacity:1;paint-order:markers stroke fill"
     d="m 290.13437,132.04214 a 8.0077285,8.0099967 0 0 0 -8.00676,8.0095 8.0077285,8.0099967 0 0 0 8.00676,8.00963 8.0077285,8.0099967 0 0 0 8.00949,-8.00963 8.0077285,8.0099967 0 0 0 -8.00949,-8.0095 z m 126.34394,0 a 8.0077285,8.0099967 0 0 0 -8.00676,8.0095 8.0077285,8.0099967 0 0 0 8.00676,8.00963 8.0077285,8.0099967 0 0 0 8.00963,-8.00963 8.0077285,8.0099967 0 0 0 -8.00963,-8.0095 z M 290.13437,277.77928 a 8.0077285,8.0099967 0 0 0 -8.00676,8.00964 8.0077285,8.0099967 0 0 0 8.00676,8.01237 8.0077285,8.0099967 0 0 0 8.00949,-8.01237 8.0077285,8.0099967 0 0 0 -8.00949,-8.00964 z m 126.34394,0 a 8.0077285,8.0099967 0 0 0 -8.00676,8.00964 8.0077285,8.0099967 0 0 0 8.00676,8.01237 8.0077285,8.0099967 0 0 0 8.00963,-8.01237 8.0077285,8.0099967 0 0 0 -8.00963,-8.00964 z"
     id="path8987" />
  <path
     style="fill:#fafafa;fill-opacity:1;stroke-width:0.99999988"
     d="m 326.0651,282.36982 h -1.79412 v -4.18649 -4.18649 h 2.39236 2.39222 v 0.59795 0.59809 h 0.59809 0.59809 v 1.79427 1.79413 h -0.59809 -0.59809 v 1.19618 1.19618 h -0.5981 -0.59809 v 0.59809 0.59809 z m 0.59824,-1.19618 h 1.19603 v -1.19618 -1.19618 h 0.59809 0.5981 v -1.79413 -1.79427 h -1.79428 -1.79412 v 2.99045 2.99031 z m 7.77474,1.19618 h -1.79427 v -0.59809 -0.59809 h -0.59795 -0.59794 v -1.79427 -1.79413 h 0.59794 0.59795 v -0.59809 -0.59809 h 1.79427 1.79427 v 0.59809 0.59809 h 0.59795 0.59809 v 1.79413 1.79427 h -0.59809 -0.59795 v 0.59809 0.59809 z m 0,-1.19618 h 1.79427 v -1.79427 -1.79413 h -1.79427 -1.79427 v 1.79413 1.79427 z m 4.78458,1.19618 h -0.59809 v -4.18649 -4.18649 h 0.59809 0.59809 v 2.39222 2.39222 h 0.59809 0.59795 v -0.59795 -0.59809 h 1.19618 1.19618 v -0.59809 -0.59809 h 0.59809 0.59809 v 0.59809 0.59809 h -0.59809 -0.59809 v 0.59809 0.59795 h -0.59809 -0.59809 v 0.59809 0.59809 h 0.59809 0.59809 v 0.59809 0.59809 h 0.59809 0.59809 v 0.59809 0.59809 h -0.59809 -0.59809 v -0.59809 -0.59809 h -1.19618 -1.19618 v -0.59809 -0.59809 h -0.59795 -0.59809 v 1.19618 1.19618 z m 8.97107,0 h -1.19618 v -0.59809 -0.59809 h -0.59795 -0.59823 v -2.39236 -2.39222 h 0.59823 0.59795 v 2.39222 2.39236 h 1.19618 1.19618 v 0.59809 0.59809 z m 2.99031,0 h -0.59795 v -1.19618 -1.19618 h -0.59823 -0.59795 v -0.59809 -0.59809 h 0.59795 0.59823 v -1.19604 -1.19618 h 0.59795 0.59809 v 2.99031 2.99045 z m 2.39222,0 h -0.59809 v -2.99045 -2.99031 h 1.19618 1.19618 v 0.59809 0.59809 h -0.59809 -0.59809 v 2.39222 2.39236 z m 2.39221,0 h -0.59794 v -1.79427 -1.79427 h 0.59794 0.59809 v -1.19604 -1.19618 h 0.59809 0.59809 v 1.19618 1.19604 h 0.59809 0.5981 v 1.79427 1.79427 h -0.5981 -0.59809 v -1.79427 -1.79427 h -0.59809 -0.59809 v 1.79427 1.79427 z m 7.17694,0 h -1.79427 v -0.59809 -0.59809 h -0.59809 -0.59809 v -1.79427 -1.79413 h 0.59809 0.59809 v -0.59809 -0.59809 h 1.79427 1.79413 v 0.59809 0.59809 h 0.59809 0.59809 v 1.19604 1.19618 h -2.39222 -2.39236 v 0.59809 0.59809 h 1.79427 1.79413 v 0.59809 0.59809 z m 0,-3.58854 h 1.79413 v -0.59795 -0.59809 h -1.79413 -1.79427 v 0.59809 0.59795 z m 4.78458,3.58854 h -0.59809 v -2.99045 -2.99031 h 0.59809 0.59809 v 1.19618 1.19604 h 0.59809 0.59795 v 0.59809 0.59809 h -0.59795 -0.59809 v 1.19618 1.19618 z m 4.78444,0 h -0.59795 v -1.79427 -1.79427 h -0.59809 -0.59809 v -0.59795 -0.59809 h -0.59794 -0.59824 v -0.59809 -0.59809 h 1.19618 1.19618 v 1.19618 1.19604 h 0.59795 0.59809 v 1.79427 1.79427 z m 5.38267,0 h -1.19618 v -0.59809 -0.59809 h -0.59809 -0.59809 v -1.79427 -1.79413 h -1.19604 -1.19618 v -0.59809 -0.59809 h 1.19618 1.19604 v -1.19618 -1.19604 h 0.59809 0.59809 v 1.19604 1.19618 h 1.19618 1.19618 v 0.59809 0.59809 h -1.19618 -1.19618 v 1.79413 1.79427 h 1.19618 1.19618 v 0.59809 0.59809 z m 11.96138,0 h -1.19618 v -0.59809 -0.59809 h -0.59795 -0.59809 v -0.59809 -0.59809 h 0.59809 0.59795 v 0.59809 0.59809 h 1.19618 1.19618 v -0.59809 -0.59809 h 0.59809 0.59809 v -0.59809 -0.59809 h -1.19618 -1.19618 v -0.59795 -0.59809 h 0.59809 0.59809 v -0.59809 -0.59809 h 0.59809 0.59809 v -0.59809 -0.59809 h -1.79427 -1.79427 v 0.59809 0.59809 h -0.59795 -0.59809 v -0.59809 -0.59809 h 0.59809 0.59795 v -0.59809 -0.59795 h 1.79427 1.79427 v 0.59795 0.59809 h 0.59794 0.5981 v 0.59809 0.59809 h -0.5981 -0.59794 v 1.19618 1.19604 h 0.59794 0.5981 v 0.59809 0.59809 h -0.5981 -0.59794 v 0.59809 0.59809 h -0.59809 -0.59809 v 0.59809 0.59809 z m -52.032,-14.35359 h -1.79413 v -0.59809 -0.59809 h -0.59809 -0.59809 v -0.59809 -0.59809 h 0.59809 0.59809 v 0.59809 0.59809 h 1.79413 1.79427 v -1.19618 -1.19619 h -1.79427 -1.79413 v -0.59794 -0.59809 h -0.59809 -0.59809 v -1.19618 -1.19618 h 0.59809 0.59809 v -0.59809 -0.59809 h 1.79413 1.79427 v 0.59809 0.59809 h 0.59809 0.59795 v 0.59809 0.59809 h -0.59795 -0.59809 v -0.59809 -0.59809 h -1.79427 -1.79413 v 1.19618 1.19618 h 2.39222 2.39222 v 1.79427 1.79413 h -0.59795 -0.59809 v 0.59809 0.59809 z m 7.17694,0 h -1.79427 v -0.59809 -0.59809 h -0.59809 -0.59809 v -1.79413 -1.79427 h 0.59809 0.59809 v -0.59809 -0.59809 h 1.79427 1.79413 v 0.59809 0.59809 h 0.59809 0.59809 v 1.19603 1.19619 h -2.39236 -2.39222 v 0.59809 0.59809 h 1.79427 1.79413 v 0.59809 0.59809 z m 0,-3.58855 h 1.79413 v -0.59794 -0.59809 h -1.79413 -1.79427 v 0.59809 0.59794 z m 7.1768,3.58855 h -2.99031 v -0.59809 -0.59809 h 1.19618 1.19604 v -1.79413 -1.79427 h -1.19604 -1.19618 v -0.59809 -0.59809 h 1.79413 1.79413 v 2.39221 2.39237 h 1.19618 1.19618 v 0.59809 0.59809 z m 7.77474,0 h -1.19603 v -0.59809 -0.59809 h -0.5981 -0.59809 v -1.79413 -1.79427 h -1.19618 -1.19603 v -0.59809 -0.59809 h 1.19603 1.19618 v -1.19618 -1.19618 h 0.59809 0.5981 v 1.19618 1.19618 h 1.19603 1.19618 v 0.59809 0.59809 h -1.19618 -1.19603 v 1.79427 1.79413 h 1.19603 1.19618 v 0.59809 0.59809 z m 6.57885,0 h -1.79427 v -0.59809 -0.59809 h -0.59794 -0.5981 v -1.79413 -1.79427 h 0.5981 0.59794 v -0.59809 -0.59809 h 1.79427 1.79427 v 0.59809 0.59809 h 0.59809 0.59795 v 1.19603 1.19619 h -2.39222 -2.39236 v 0.59809 0.59809 h 1.79427 1.79427 v 0.59809 0.59809 z m 0,-3.58855 h 1.79427 v -0.59794 -0.59809 h -1.79427 -1.79427 v 0.59809 0.59794 z m 14.3536,3.58855 h -2.99031 v -0.59809 -0.59809 h 1.19618 1.19604 v -2.99031 -2.99045 h -0.59809 -0.59795 v 0.59809 0.59809 h -0.59809 -0.59809 v -0.59809 -0.59809 h 0.59809 0.59809 v -0.59809 -0.59809 h 1.19604 1.19618 v 3.58854 3.5884 h 1.19618 1.19604 v 0.59809 0.59809 z m -28.70719,-7.17694 h -0.59809 v -0.59809 -0.59809 h 0.59809 0.59795 v 0.59809 0.59809 z m -23.32466,-15.54964 h -4.78458 v -45.45328 -45.45315 h 34.08985 34.09001 v 20.33421 20.33436 h -0.59809 -0.59809 v -0.59809 -0.59809 h -0.59809 -0.59809 v 0.59809 0.59809 h -0.59809 -0.59809 v 17.94199 17.94228 h 1.79427 1.79427 v 7.17665 7.17694 h -5.98076 -5.98076 v -0.59823 -0.59795 h 1.79427 1.79413 v -0.59809 -0.59809 h -7.1768 -7.1768 v 1.19618 1.19618 h -4.18649 -4.18649 v -1.19618 -1.19618 h -1.79412 -1.79428 v 1.19618 1.19618 h -1.79427 -1.79412 v -0.59823 -0.59795 h -3.58826 -3.58854 v -0.59809 -0.59809 h -2.39222 -2.39236 v 1.19618 1.19618 h -1.79413 -1.79427 v -1.19618 -1.19618 h -2.39222 -2.39236 v 1.19618 1.19618 z m 5.38252,-3.58854 h 0.59809 v -0.59794 -0.59824 h 0.59809 0.59809 v 0.59824 0.59794 h 4.78444 4.78458 v -1.19618 -1.19604 h -1.19604 -1.19618 v 0.59809 0.59795 h -0.59809 -0.59809 v -0.59795 -0.59809 h -1.79413 -1.79427 v 0.59809 0.59795 h -0.59809 -0.59809 v -0.59795 -0.59809 h -1.79413 -1.79427 v 1.19604 1.19618 z m 18.54009,-3.5884 h 19.13831 v -0.59809 -0.59809 h -19.13831 -19.13818 v 0.59809 0.59809 z m -8.37284,-2.39236 h 10.7652 v -0.59794 -0.5981 h 11.96137 11.96138 v -0.59809 -0.59809 h 1.19604 1.19618 v -0.59809 -0.59794 h 0.59809 0.59809 v -0.59809 -0.59795 h -1.19618 -1.19618 v 0.59795 0.59809 h -2.99031 -2.99031 v -0.59809 -0.59795 h -0.59809 -0.59809 v 0.59795 0.59809 h -3.5884 -3.5884 v -0.59809 -0.59795 h -1.79412 -1.79428 v 0.59795 0.59809 h -4.18649 -4.18648 v -0.59809 -0.59795 h -0.59809 -0.59809 v 0.59795 0.59809 h -9.56902 -9.56916 v 1.79412 1.79413 z m -7.17694,-5.98047 h 3.5884 v -0.59809 -0.59809 h 18.54023 18.54008 v 0.59809 0.59809 h 0.59809 0.59809 v -0.59809 -0.59809 h 0.59795 0.59809 v -0.59809 -0.59809 h -20.9323 -20.93245 v 0.59809 0.59809 h -0.59809 -0.59809 v -0.59809 -0.59809 h -1.19604 -1.19618 v 0.59809 0.59809 h -0.59809 -0.59809 v 0.59809 0.59809 z m 18.54008,-3.5884 h 22.12863 v -0.59809 -0.59809 h 1.79413 1.79427 v -0.59809 -0.59809 h -23.92276 -23.92275 v 1.19618 1.19618 z m -19.13817,-3.58854 h 1.79427 v -0.59809 -0.59795 h 0.59809 0.59809 v 0.59795 0.59809 h 0.59809 0.59795 v -0.59809 -0.59795 h 1.19618 1.19618 v 0.59795 0.59809 h 4.18649 4.18649 v -0.59809 -0.59795 h 0.59809 0.59795 v 0.59795 0.59809 h 2.39236 2.39221 v -0.59809 -0.59795 h 0.59809 0.5981 v -0.59823 -0.59795 h 0.59809 0.59794 v 0.59795 0.59823 h 1.19618 1.19618 v -0.59823 -0.59795 h 2.39222 2.39236 v 0.59795 0.59823 h 0.59809 0.59809 v -0.59823 -0.59795 h 1.19604 1.19618 v -0.59809 -0.59809 h 6.57871 6.57871 v -0.59809 -0.59809 h -1.19604 -1.19618 v -0.59795 -0.59823 h -23.92276 -23.92275 v 2.39236 2.39236 h 0.59809 0.59809 v 0.59795 0.59809 z m 0.59809,-7.1768 h 3.5884 v -0.59809 -0.59809 h 8.97107 8.97107 v -0.59809 -0.59809 h 0.59809 0.59794 v 0.59809 0.59809 h 4.78458 4.78458 v -0.59809 -0.59809 h 0.59824 0.59794 v 0.59809 0.59809 h 6.57871 6.57871 v -0.59809 -0.59809 h -1.19604 -1.19618 v -1.19604 -1.19604 h 0.59809 0.59809 v 0.5981 0.59794 h 0.59809 0.59795 v -1.79413 -1.79427 h -1.79413 -1.79427 v 0.59809 0.59809 h -0.59809 -0.59795 v -0.59809 -0.59809 h -1.19618 -1.19618 v 1.79427 1.79413 h -0.59809 -0.59809 v -1.79413 -1.79427 h -16.14772 -16.14787 v 0.59809 0.59809 h -0.59809 -0.59809 v -0.59809 -0.59809 h -1.19618 -1.19604 v 0.59809 0.59809 h -0.59809 -0.59809 v -0.59809 -0.59809 h -1.19618 -1.19604 v 0.59809 0.59809 h -1.19618 -1.19618 v 2.99017 2.99045 z m 2.39236,-8.37283 h 5.98062 v -0.59809 -0.59809 h 17.34404 17.34391 v -0.5981 -0.59808 h -23.32467 -23.32466 v 1.19618 1.19618 z m 13.15742,-3.58854 h 19.13831 v -0.59809 -0.59795 h -10.16725 -10.1671 v -0.59809 -0.59809 h -1.19604 -1.19618 v 0.59809 0.59809 h -7.77503 -7.77489 v 0.59795 0.59809 z m -14.95169,-2.39222 h 4.18649 v -1.19618 -1.19618 h -4.18649 -4.18649 v 1.19618 1.19618 z m 8.97107,0 h 1.19618 v -1.19618 -1.19618 h -1.19618 -1.19618 v 1.19618 1.19618 z m 12.55947,0 h 0.59794 v -0.59809 -0.59809 h 0.59809 0.59809 v -0.59809 -0.59809 h -1.79412 -1.79428 v 0.59809 0.59809 h 0.59809 0.5981 v 0.59809 0.59809 z m 4.78458,0 h 0.59794 v -0.59809 -0.59809 h -0.59794 -0.5981 v 0.59809 0.59809 z m 8.97092,0 h 1.19618 v -0.59809 -0.59809 h -0.59809 -0.59809 v -0.59809 -0.59809 h -0.59809 -0.59795 v 1.19618 1.19618 z m -19.73626,-1.19618 h 0.59809 v -0.59809 -0.59809 h -0.59809 -0.59809 v 0.59809 0.59809 z m 31.69764,0 h 1.19618 v -0.59809 -0.59809 h -1.19618 -1.19618 v 0.59809 0.59809 z m -33.49177,-2.39222 h 17.94199 v -0.59823 -0.59795 h 7.1768 7.1768 v -0.59809 -0.59809 h -2.99031 -2.99031 v -0.59809 -0.59809 h -1.79427 -1.79413 v 0.59809 0.59809 h -20.33435 -20.33436 v 1.19618 1.19618 z m -23.32467,-1.19618 h 1.79428 v -1.79427 -1.79427 h -1.79428 -1.79412 v 1.79427 1.79427 z m 6.57871,-2.39236 h 1.19618 v -0.59795 -0.59823 h 1.79413 1.79427 v 0.59823 0.59795 h 1.19604 1.19618 v -0.59795 -0.59823 h 0.59809 0.59809 v -0.59795 -0.59809 h -4.78458 -4.78458 v 1.19604 1.19618 z m 8.37298,-4.78444 h 9.56902 v -0.59809 -0.59809 h -9.56902 -9.56916 v 0.59809 0.59809 z m 37.67826,-2.39222 h 5.38267 v -0.59809 -0.59809 h 1.19618 1.19604 v -0.59809 -0.59809 h 1.19618 1.19618 v -0.59809 -0.59795 h -1.79427 -1.79413 v -0.59809 -0.59809 h -0.59809 -0.59809 v 0.59809 0.59809 h -5.38267 -5.38267 v 1.79413 1.79427 z m 3.5884,-1.19618 h -0.59809 v -0.59809 -0.59809 h 0.59809 0.59809 v 0.59809 0.59809 z m -8.37298,-3.5884 h 0.59809 v -1.19618 -1.19618 h -0.59809 -0.59809 v 1.19618 1.19618 z m 4.78458,0 h 2.99031 v -1.19618 -1.19618 h -2.99031 -2.99031 v 1.19618 1.19618 z m -43.06093,-1.19618 h 4.18649 v -0.59809 -0.59809 h -1.79413 -1.79427 v -0.59809 -0.59794 h 2.39222 2.39236 v -0.5981 -0.59809 h -1.19618 -1.19618 v -0.59809 -0.59809 h -3.5884 -3.5884 v 2.39237 2.39221 z m 29.30542,0 h 4.78458 v -0.59809 -0.59809 h 0.59795 0.59809 v -2.39222 -2.39236 h -0.59809 -0.59795 v -0.59794 -0.59809 h 0.59795 0.59809 v -1.79428 -1.79412 h -2.99016 -2.99046 v 0.59809 0.59794 h -0.59809 -0.59809 v -0.59794 -0.59809 h -1.79412 -1.79428 v 5.38252 5.38267 z m 11.96138,-2.39221 h 1.19604 v -0.5981 -0.59809 h -0.59809 -0.59795 v -0.59809 -0.59809 h 1.19604 1.19618 v 0.59809 0.59809 h 0.59809 0.59809 v -0.59809 -0.59809 h 1.79413 1.79427 v -0.59809 -0.59809 h -4.18649 -4.18649 v -0.59794 -0.59809 h 1.19618 1.19604 v -0.59809 -0.5981 h -1.19604 -1.19618 v 0.5981 0.59809 h -0.59809 -0.59809 v -0.59809 -0.5981 h -0.59809 -0.59809 v 0.5981 0.59809 h 0.59809 0.59809 v 0.59809 0.59794 h -0.59809 -0.59809 v 1.19618 1.19618 h 0.59809 0.59809 v -0.59809 -0.59809 h 0.59809 0.59809 v 1.19618 1.19619 z m -25.71702,-1.19619 h 1.79427 v -2.39236 -2.39222 h -1.79427 -1.79413 v 1.19619 1.19603 h -0.59809 -0.59795 v 0.59809 0.59809 h 0.59795 0.59809 v 0.59809 0.59809 z m 35.88413,-1.19618 h 0.59809 v -0.59809 -0.59809 h -0.59809 -0.59809 v 0.59809 0.59809 z m -53.82613,-1.19618 h 4.18649 v -0.59794 -0.59809 h 1.19604 1.19618 v 0.59809 0.59794 h 3.5884 3.58854 v -0.59794 -0.59809 h -3.58854 -3.5884 v -0.59809 -0.5981 h -1.19618 -1.19604 v 0.5981 0.59809 h -1.19618 -1.19618 v -1.79428 -1.79412 h -1.19604 -1.19618 v 1.79412 1.79428 h -0.59809 -0.59809 v -0.59809 -0.5981 h -0.59809 -0.59809 v 0.5981 0.59809 h -0.59795 -0.59794 v 0.59809 0.59794 z m 8.37298,-2.39222 h 0.59809 v -0.59809 -0.59809 h -0.59809 -0.59809 v 0.59809 0.59809 z m 4.18649,0 h 2.39236 v -0.59809 -0.59809 h -1.79427 -1.79427 v -0.59794 -0.59809 h -0.59795 -0.59823 v 1.19603 1.19618 z m 29.90337,-1.19618 h 2.39222 v -0.59794 -0.59809 h -2.39222 -2.39236 v 0.59809 0.59794 z m 4.78458,-5.98061 h 1.19604 v -0.59809 -0.59809 h 1.19618 1.19618 v -1.19604 -1.19618 h 0.59809 0.59809 v -0.59809 -0.59809 h -0.59809 -0.59809 v -0.59809 -0.59795 h -3.5884 -3.5884 v 0.59795 0.59809 h -0.59809 -0.59809 v -0.59809 -0.59795 h -3.5884 -3.5884 v 1.79413 1.79427 h 1.19618 1.19604 v 0.59809 0.59795 h 4.18649 4.18649 v 0.59809 0.59809 z m -59.20879,-15.54978 h -1.79428 v -0.59794 -0.5981 h -0.59794 -0.59809 v -0.59809 -0.59809 h 0.59809 0.59794 v 0.59809 0.59809 h 1.19618 1.19619 v -1.19618 -1.19618 h -0.59809 -0.5981 v -0.59809 -0.59809 h -0.59809 -0.59809 v -0.59794 -0.59809 h -0.59794 -0.59809 v -1.79427 -1.79413 h 0.59809 0.59794 v -0.59809 -0.59809 h 1.79428 1.79427 v 0.59809 0.59809 h 0.59794 0.59824 v 0.59795 0.59809 h -0.59824 -0.59794 v -0.59809 -0.59795 h -1.19618 -1.19619 v 1.19604 1.19618 h 0.5981 0.59809 v 0.59809 0.59809 h 0.59809 0.59809 v 0.59809 0.59794 h 0.59794 0.59824 v 1.79427 1.79427 h -0.59824 -0.59794 v 0.5981 0.59794 z m 7.17694,0 h -1.79427 v -0.59794 -0.5981 h -0.5981 -0.59809 v -2.99045 -2.9903 h 0.59809 0.5981 v -0.59809 -0.59809 h 1.79427 1.79398 v 0.59809 0.59809 h 0.59809 0.59809 v 0.59809 0.59809 h -0.59809 -0.59809 v -0.59809 -0.59809 h -1.19589 -1.19618 v 2.9903 2.99045 h 1.19618 1.19589 v -0.59809 -0.59809 h 0.59809 0.59809 v 0.59809 0.59809 h -0.59809 -0.59809 v 0.5981 0.59794 z m 8.37283,0 h -2.99031 v -0.59794 -0.5981 h -0.59809 -0.59809 v -1.19618 -1.19618 h 0.59809 0.59809 v -0.59809 -0.59809 h 1.79413 1.79427 v -1.19603 -1.19618 h -1.79427 -1.79413 v 0.59809 0.59809 h -0.59809 -0.59809 v -0.59809 -0.59809 h 0.59809 0.59809 v -0.59809 -0.59809 h 2.39222 2.39222 v 0.59809 0.59809 h 0.59809 0.59809 v 3.58839 3.5884 z m -0.59809,-1.19604 h 1.19618 v -1.19618 -1.19618 h -1.19618 -1.19618 v 1.19618 1.19618 z m 5.98076,1.19604 h -1.19618 v -4.18649 -4.18648 h 2.99045 2.99031 v 0.59809 0.59809 h 0.59795 0.59823 v 3.58839 3.5884 h -1.19618 -1.19618 v -3.5884 -3.58839 h -1.19618 -1.19618 v 3.58839 3.5884 z m 8.37284,0 h -1.19604 v -4.18649 -4.18648 h 2.99031 2.9903 v 0.59809 0.59809 h 0.59809 0.5981 v 3.58839 3.5884 h -1.19619 -1.19618 v -3.5884 -3.58839 h -1.19603 -1.19618 v 3.58839 3.5884 z m 10.76533,0 h -2.39236 v -0.59794 -0.5981 h -0.59809 -0.59809 v -2.99045 -2.9903 h 0.59809 0.59809 v -0.59809 -0.59809 h 2.39236 2.39222 v 0.59809 0.59809 h 0.59809 0.59809 v 1.79427 1.79412 h -2.39236 -2.39222 v 1.19618 1.19618 h 1.79428 1.79412 v -0.59809 -0.59809 h 0.59809 0.59809 v 0.59809 0.59809 h -0.59809 -0.59809 v 0.5981 0.59794 z m 0,-4.78458 h 1.19604 v -1.19603 -1.19618 h -1.19604 -1.19618 v 1.19618 1.19603 z m 13.75551,4.78458 h -1.79427 v -0.59794 -0.5981 h 1.19618 1.19618 v -0.59809 -0.59809 h 0.59809 0.59809 v -0.59809 -0.59809 h -1.79427 -1.79427 v -0.59809 -0.59809 h -0.59809 -0.59795 v -2.39221 -2.39222 h 0.59795 0.59809 v -0.59809 -0.59809 h 2.39236 2.39222 v 0.59809 0.59809 h 0.59809 0.59809 v 3.5884 3.58839 h -0.59809 -0.59809 v 0.59809 0.59809 h -0.59809 -0.59795 v 0.5981 0.59794 z m 0.59809,-4.78458 h 1.19618 v -2.39221 -2.39222 h -1.19618 -1.19618 v 2.39222 2.39221 z m 8.37298,4.78458 h -2.39236 v -0.59794 -0.5981 h -0.59795 -0.59809 v -0.59809 -0.59809 h 0.59809 0.59795 v 0.59809 0.59809 h 1.79427 1.79427 v -2.39236 -2.39221 h -1.79427 -1.79427 v -0.59809 -0.59809 h 0.59809 0.59809 v -0.59809 -0.59809 h 0.59809 0.59809 v -0.59809 -0.59795 h -1.79427 -1.79413 v -0.59809 -0.59809 h 3.5884 3.5884 v 0.59809 0.59809 h -0.59809 -0.59809 v 0.59795 0.59809 h -0.59795 -0.59809 v 0.59809 0.59809 h 0.59809 0.59795 v 0.59809 0.59809 h 0.59809 0.59809 v 2.39221 2.39236 h -0.59809 -0.59809 v 0.5981 0.59794 z m 5.38267,0 h -0.59809 v -1.19604 -1.19618 h 0.59809 0.59809 v -1.19618 -1.19618 h 0.59794 0.5981 v -1.19603 -1.19618 h 0.59809 0.59794 v -1.19618 -1.19604 h 0.59809 0.59809 v -0.59809 -0.59809 h 0.59809 0.59809 v 0.59809 0.59809 h -0.59809 -0.59809 v 1.19604 1.19618 h -0.59809 -0.59809 v 1.19618 1.19603 h -0.59794 -0.59809 v 1.19618 1.19618 h -0.5981 -0.59794 v 1.19618 1.19604 z m 4.18634,0 h -1.19618 v -1.19604 -1.19618 h 1.19618 1.19618 v 1.19618 1.19604 z m -3.58825,-8.37297 h -1.19618 v -1.19604 -1.19618 h 1.19618 1.19604 v 1.19618 1.19604 z"
     id="path9567"
     inkscape:connector-curvature="0" />
</svg>
