<?xml version="1.0" encoding="UTF-8" standalone="no"?>
<!-- Created with Inkscape (http://www.inkscape.org/) -->

<svg
   xmlns:dc="http://purl.org/dc/elements/1.1/"
   xmlns:cc="http://creativecommons.org/ns#"
   xmlns:rdf="http://www.w3.org/1999/02/22-rdf-syntax-ns#"
   xmlns:svg="http://www.w3.org/2000/svg"
   xmlns="http://www.w3.org/2000/svg"
   xmlns:sodipodi="http://sodipodi.sourceforge.net/DTD/sodipodi-0.dtd"
   xmlns:inkscape="http://www.inkscape.org/namespaces/inkscape"
   width="792.27521"
   height="601.24866"
   id="svg3824"
   version="1.1"
   inkscape:version="0.92.5 (2060ec1f9f, 2020-04-08)"
   sodipodi:docname="lasercut-template.svg"
   viewBox="0 0 742.75801 563.67064">
  <defs
     id="defs3826" />
  <sodipodi:namedview
     id="base"
     pagecolor="#ffffff"
     bordercolor="#666666"
     borderopacity="1.0"
     inkscape:pageopacity="0.0"
     inkscape:pageshadow="2"
     inkscape:zoom="0.7071068"
     inkscape:cx="279.56592"
     inkscape:cy="117.46283"
     inkscape:document-units="mm"
     inkscape:current-layer="layer1"
     showgrid="false"
     units="mm"
     inkscape:snap-smooth-nodes="true"
     inkscape:object-nodes="true"
     inkscape:object-paths="true"
     inkscape:snap-bbox="true"
     inkscape:bbox-nodes="true"
     inkscape:snap-bbox-edge-midpoints="true"
     inkscape:window-width="1908"
     inkscape:window-height="1165"
     inkscape:window-x="6"
     inkscape:window-y="29"
     inkscape:window-maximized="0"
     fit-margin-top="0"
     fit-margin-left="0"
     fit-margin-right="0"
     fit-margin-bottom="0" />
  <metadata
     id="metadata3829">
    <rdf:RDF>
      <cc:Work
         rdf:about="">
        <dc:format>image/svg+xml</dc:format>
        <dc:type
           rdf:resource="http://purl.org/dc/dcmitype/StillImage" />
        <dc:title></dc:title>
      </cc:Work>
    </rdf:RDF>
  </metadata>
  <g
     inkscape:label="Layer 1"
     inkscape:groupmode="layer"
     id="layer1"
     transform="translate(-169.52459,-468.14074)">
    <ellipse
       style="fill:none;stroke:#ff0000;stroke-width:0.35433069;stroke-miterlimit:4;stroke-dasharray:none;stroke-opacity:1"
       id="path3755"
       cx="-252.97134"
       cy="-665.15521"
       rx="4.7445183"
       ry="4.7395983"
       transform="scale(-1)" />
    <ellipse
       style="fill:none;stroke:#ff0000;stroke-width:0.35433069;stroke-miterlimit:4;stroke-dasharray:none;stroke-opacity:1"
       id="path3755-9"
       cx="-252.97134"
       cy="-491.52856"
       rx="4.7445183"
       ry="4.7395983"
       transform="scale(-1)" />
    <ellipse
       style="fill:none;stroke:#ff0000;stroke-width:0.35433069;stroke-miterlimit:4;stroke-dasharray:none;stroke-opacity:1"
       id="path3755-6"
       cx="-458.48499"
       cy="-491.52856"
       rx="4.7445183"
       ry="4.7395983"
       transform="scale(-1)" />
    <ellipse
       style="fill:none;stroke:#ff0000;stroke-width:0.35433069;stroke-miterlimit:4;stroke-dasharray:none;stroke-opacity:1"
       id="path3755-8"
       cx="-458.48499"
       cy="-665.15521"
       rx="4.7445183"
       ry="4.7395983"
       transform="scale(-1)" />
    <path
       inkscape:connector-curvature="0"
       style="fill:none;stroke:#ff0000;stroke-width:0.35433072;stroke-miterlimit:4;stroke-dasharray:none;stroke-opacity:1"
       d="m 169.70176,680.81381 c 0,0.1963 0.14745,0.34375 0.34375,0.34375 h 53.625 v 7.28125 c 0,0.46173 0.11203,0.91241 0.28125,1.3125 0.16922,0.40009 0.38491,0.75991 0.6875,1.0625 0.30259,0.30259 0.66241,0.54953 1.0625,0.71875 0.40009,0.16922 0.85077,0.25 1.3125,0.25 h 28.74999 c 0.46173,0 0.91241,-0.0808 1.3125,-0.25 0.40009,-0.16922 0.75991,-0.41616 1.0625,-0.71875 0.30259,-0.30259 0.54953,-0.66241 0.71875,-1.0625 0.16922,-0.40009 0.25,-0.85077 0.25,-1.3125 v -7.28125 h 124.06251 v 7.28125 c 0,0.46173 0.11203,0.91241 0.28125,1.3125 0.16922,0.40009 0.41616,0.75991 0.71875,1.0625 0.30259,0.30259 0.66241,0.54953 1.0625,0.71875 0.40009,0.16922 0.81952,0.25 1.28125,0.25 h 28.75 c 0.46173,0 0.91241,-0.0808 1.3125,-0.25 0.40009,-0.16922 0.75991,-0.41616 1.0625,-0.71875 0.30259,-0.30259 0.54953,-0.66241 0.71875,-1.0625 0.16922,-0.40009 0.25,-0.85077 0.25,-1.3125 v -7.28125 h 53.5625 c 0.1963,0 0.34375,-0.14745 0.34375,-0.34375 V 479.65756 c 0,-0.1963 -0.14745,-0.34375 -0.34375,-0.34375 h -53.5625 v -7.28125 c 0,-0.46173 -0.11203,-0.91241 -0.28125,-1.3125 -0.16922,-0.40009 -0.41616,-0.75992 -0.71875,-1.0625 -0.30259,-0.30258 -0.66241,-0.54953 -1.0625,-0.71875 -0.40009,-0.16922 -0.81952,-0.25 -1.28125,-0.25 h -28.75 c -0.46173,0 -0.91241,0.0808 -1.3125,0.25 -0.40009,0.16922 -0.75991,0.41617 -1.0625,0.71875 -0.30259,0.30258 -0.54953,0.66241 -0.71875,1.0625 -0.16922,0.40009 -0.25,0.85077 -0.25,1.3125 v 7.28125 H 259.108 v -7.28125 c 0,-0.46173 -0.11203,-0.91241 -0.28125,-1.3125 -0.16922,-0.40009 -0.41616,-0.75992 -0.71875,-1.0625 -0.30259,-0.30258 -0.66241,-0.54953 -1.0625,-0.71875 -0.40009,-0.16922 -0.81952,-0.25 -1.28125,-0.25 h -28.74999 c -0.46173,0 -0.91241,0.0808 -1.3125,0.25 -0.40009,0.16922 -0.75991,0.41617 -1.0625,0.71875 -0.30259,0.30258 -0.54953,0.66241 -0.71875,1.0625 -0.16922,0.40009 -0.25,0.85077 -0.25,1.3125 v 7.28125 h -53.625 c -0.1963,0 -0.34375,0.14745 -0.34375,0.34375 z"
       id="rect3808-3-9" />
    <g
       id="g8285"
       transform="rotate(-90,286.36994,413.93251)">
      <g
         transform="rotate(90,204.45789,553.59076)"
         id="g8263">
        <rect
           style="fill:none;stroke:#ff0000;stroke-width:0.35433072;stroke-miterlimit:4;stroke-dasharray:none;stroke-opacity:1"
           id="rect2989-7-4-6-0-7-5-1"
           width="35.433071"
           height="10.629921"
           x="952.89667"
           y="460.33499"
           transform="matrix(0,1,1,0,0,0)" />
        <rect
           style="fill:none;stroke:#ff0000;stroke-width:0.35433072;stroke-miterlimit:4;stroke-dasharray:none;stroke-opacity:1"
           id="rect2989-7-4-6-0-9-7-8-7"
           width="42.519684"
           height="10.629921"
           x="1023.6068"
           y="460.33499"
           transform="matrix(0,1,1,0,0,0)" />
        <rect
           style="fill:none;stroke:#ff0000;stroke-width:0.35433072;stroke-miterlimit:4;stroke-dasharray:none;stroke-opacity:1"
           id="rect2989-7-4-6-0-7-5-7-4"
           width="35.433071"
           height="10.629921"
           x="952.89276"
           y="672.81317"
           transform="matrix(0,1,1,0,0,0)" />
        <rect
           style="fill:none;stroke:#ff0000;stroke-width:0.35433072;stroke-miterlimit:4;stroke-dasharray:none;stroke-opacity:1"
           id="rect2989-7-4-6-0-9-7-8-3-1"
           width="42.519684"
           height="10.629921"
           x="1023.6028"
           y="672.81317"
           transform="matrix(0,1,1,0,0,0)" />
        <path
           inkscape:connector-curvature="0"
           style="fill:none;stroke:#ff0000;stroke-width:0.35433072;stroke-miterlimit:4;stroke-dasharray:none;stroke-opacity:1"
           d="m 680.09766,1073.2213 c 1.44133,0 2.81359,-0.2824 4.0625,-0.8125 1.24892,-0.5301 2.36795,-1.3022 3.3125,-2.25 0.94456,-0.9478 1.72176,-2.0905 2.25,-3.3437 0.52825,-1.2533 0.8125,-2.6162 0.8125,-4.0625 V 945.79243 c 0,-5.8116 -4.75016,-10.5313 -10.59375,-10.5313 -3.4762,0 -6.44778,1.7475 -8.46875,4.25 -2.772,3.4325 -6.70069,6.2813 -20.3125,6.2813 H 492.59767 c -13.61181,0 -17.50924,-2.8488 -20.28125,-6.2813 -2.02096,-2.5026 -5.0238,-4.2187 -8.5,-4.2187 -5.84359,0 -10.5625,4.6885 -10.5625,10.5 v 116.96017 c 0,1.4463 0.28424,2.8092 0.8125,4.0625 0.52825,1.2532 1.30545,2.3959 2.25,3.3437 0.94454,0.9478 2.06358,1.7199 3.3125,2.25 1.24891,0.5301 2.62117,0.8125 4.0625,0.8125 z"
           id="path4170"
           sodipodi:nodetypes="ssssssscsscssscccss" />
        <rect
           ry="1.6372157"
           style="color:#000000;display:inline;overflow:visible;visibility:visible;fill:none;stroke:#ff0000;stroke-width:0.35433072;stroke-linecap:butt;stroke-linejoin:round;stroke-miterlimit:4;stroke-dasharray:none;stroke-dashoffset:0;stroke-opacity:1;marker:none;enable-background:accumulate"
           id="rect3190-2"
           width="58.810303"
           height="51.769001"
           x="-665.07965"
           y="-1028.2872"
           rx="1.6372157"
           transform="scale(-1)" />
        <rect
           ry="3.5433071"
           style="color:#000000;display:inline;overflow:visible;visibility:visible;fill:none;stroke:#ff0000;stroke-width:0.35433072;stroke-linecap:butt;stroke-linejoin:round;stroke-miterlimit:4;stroke-dasharray:none;stroke-dashoffset:0;stroke-opacity:1;marker:none;enable-background:accumulate"
           id="rect3192-1"
           width="58.350315"
           height="63.65242"
           x="-598.29944"
           y="-1039.8862"
           rx="3.5433071"
           transform="scale(-1)" />
        <rect
           ry="3.5433071"
           rx="3.5433071"
           y="-1039.8862"
           x="-532.96942"
           height="63.65242"
           width="58.350315"
           id="rect3965"
           style="color:#000000;display:inline;overflow:visible;visibility:visible;fill:none;stroke:#ff0000;stroke-width:0.35433072;stroke-linecap:butt;stroke-linejoin:round;stroke-miterlimit:4;stroke-dasharray:none;stroke-dashoffset:0;stroke-opacity:1;marker:none;enable-background:accumulate"
           transform="scale(-1)" />
        <ellipse
           style="fill:none;stroke:#ff0000;stroke-width:0.35433069;stroke-miterlimit:4;stroke-dasharray:none;stroke-opacity:1"
           id="path3755-6-7-3"
           transform="rotate(-90)"
           cx="-1020.6046"
           cy="581.70581"
           rx="4.7445183"
           ry="4.7395983" />
        <path
           style="fill:none;stroke:#ff0000;stroke-width:0.35433072;stroke-miterlimit:4;stroke-dasharray:none;stroke-opacity:1"
           d="m 582.59413,1010.1225 c 5.39375,0.451 9.63067,4.9717 9.63067,10.482 0,5.8095 -4.70952,10.519 -10.51901,10.519 -5.80949,0 -10.51901,-4.7095 -10.51901,-10.519 0,-5.5101 4.23658,-10.0306 9.63003,-10.482 z"
           id="path3755-6-7-8-5"
           inkscape:connector-curvature="0"
           sodipodi:nodetypes="cssscc" />
        <ellipse
           style="fill:none;stroke:#ff0000;stroke-width:0.35433069;stroke-miterlimit:4;stroke-dasharray:none;stroke-opacity:1"
           id="path3755-6-7-3-0"
           transform="rotate(-90)"
           cx="-1020.6046"
           cy="556.54279"
           rx="4.7445183"
           ry="4.7395983" />
        <path
           style="fill:none;stroke:#ff0000;stroke-width:0.35433072;stroke-miterlimit:4;stroke-dasharray:none;stroke-opacity:1"
           d="m 557.43111,1010.1225 c 5.39375,0.451 9.63067,4.9717 9.63067,10.482 0,5.8095 -4.70952,10.519 -10.51901,10.519 -5.80949,0 -10.51901,-4.7095 -10.51901,-10.519 0,-5.5101 4.23658,-10.0306 9.63003,-10.482 z"
           id="path3755-6-7-8-5-0"
           inkscape:connector-curvature="0"
           sodipodi:nodetypes="cssscc" />
        <ellipse
           style="fill:none;stroke:#ff0000;stroke-width:0.35433069;stroke-miterlimit:4;stroke-dasharray:none;stroke-opacity:1"
           id="path3755-6-7-3-7"
           transform="rotate(-90)"
           cx="-995.47852"
           cy="581.70581"
           rx="4.7445183"
           ry="4.7395983" />
        <path
           style="fill:none;stroke:#ff0000;stroke-width:0.35433072;stroke-miterlimit:4;stroke-dasharray:none;stroke-opacity:1"
           d="m 582.59413,984.99645 c 5.39375,0.45101 9.63067,4.97173 9.63067,10.48205 0,5.8095 -4.70952,10.519 -10.51901,10.519 -5.80949,0 -10.51901,-4.7095 -10.51901,-10.519 0,-5.5101 4.23658,-10.03066 9.63003,-10.48201 z"
           id="path3755-6-7-8-5-2"
           inkscape:connector-curvature="0"
           sodipodi:nodetypes="cssscc" />
        <ellipse
           style="fill:none;stroke:#ff0000;stroke-width:0.35433069;stroke-miterlimit:4;stroke-dasharray:none;stroke-opacity:1"
           id="path3755-6-7-3-6"
           transform="rotate(-90)"
           cx="-995.47852"
           cy="556.54279"
           rx="4.7445183"
           ry="4.7395983" />
        <path
           style="fill:none;stroke:#ff0000;stroke-width:0.35433072;stroke-miterlimit:4;stroke-dasharray:none;stroke-opacity:1"
           d="m 557.43111,984.99645 c 5.39375,0.45101 9.63067,4.97173 9.63067,10.48205 0,5.8095 -4.70952,10.519 -10.51901,10.519 -5.80949,0 -10.51901,-4.7095 -10.51901,-10.519 0,-5.5101 4.23658,-10.03066 9.63003,-10.48201 z"
           id="path3755-6-7-8-5-8"
           inkscape:connector-curvature="0"
           sodipodi:nodetypes="cssscc" />
      </g>
    </g>
    <path
       style="fill:none;stroke:#ff0000;stroke-width:0.35433072;stroke-miterlimit:4;stroke-dasharray:none;stroke-opacity:1"
       d="m 306.71571,1012.4777 c 0,0.4618 0.0798,0.9128 0.24902,1.3129 0.16922,0.4001 0.41702,0.7594 0.71961,1.062 0.30259,0.3026 0.66192,0.5504 1.06201,0.7196 0.4001,0.1692 0.85114,0.249 1.31286,0.249 h 3.75 v 10.6256 h -3.56323 c 0,2.8687 2.37842,5.1874 5.2826,5.1874 2.90418,0 5.24963,-2.3187 5.24963,-5.1874 h 32.21223 c 0.46173,0 0.87982,-0.082 1.27991,-0.2508 0.40009,-0.1692 0.76126,-0.4152 1.06384,-0.7178 0.30259,-0.3026 0.54855,-0.6619 0.71777,-1.062 0.16922,-0.4001 0.28198,-0.8511 0.28198,-1.3129 v -7.2821 h 35.28077 v 7.2821 c 0,0.4618 0.0798,0.9128 0.24902,1.3129 0.16922,0.4001 0.41702,0.7594 0.71961,1.062 0.30259,0.3026 0.66192,0.5486 1.06201,0.7178 0.40009,0.1692 0.85114,0.2508 1.31286,0.2508 h 21.43799 c 0,0 -0.1139,-6.6957 0.6244,-12.312 0.7383,-5.6163 4.64656,-18.0544 5.46935,-24.3127 0.8225,-6.25829 0.87525,-16.40628 0.87525,-16.40628 0,-0.97509 0.83267,-1.75048 1.84387,-1.75048 1.0112,0 1.81091,0.77539 1.81091,1.75048 0,0 -0.0474,10.24981 -0.87341,16.53078 -0.8257,6.281 -4.73366,18.7165 -5.46936,24.3127 -0.7357,5.5963 -0.62439,12.1875 -0.62439,12.1875 0,2.8687 2.37656,5.1874 5.28076,5.1874 2.90421,0 5.24963,-2.3187 5.24963,-5.1874 h -3.56323 v -10.6256 h 3.78297 c 0.4617,0 0.91093,-0.08 1.31103,-0.249 0.4,-0.1692 0.76124,-0.417 1.06384,-0.7196 0.3025,-0.3026 0.51735,-0.6619 0.68664,-1.062 0.1692,-0.4001 0.28199,-0.8511 0.28199,-1.3129 0,-1.2887 -1.53259,-2.2726 -1.53259,-3.5614 0,-1.2887 1.53259,-2.2433 1.53259,-3.5321 0,-1.2887 -1.53259,-2.2745 -1.53259,-3.5632 0,-1.2888 1.53259,-2.2416 1.53259,-3.5303 0,-1.2887 -1.53259,-2.2745 -1.53259,-3.5632 0,-1.2888 1.53259,-2.2727 1.53259,-3.5614 0,-1.2888 -1.53259,-2.2434 -1.53259,-3.5321 0,-1.2888 1.53259,-2.2727 1.53259,-3.56144 V 744.72808 c 0,-1.28875 -1.53259,-2.24337 -1.53259,-3.53211 0,-1.28873 1.53259,-2.27266 1.53259,-3.5614 0,-1.28874 -1.53259,-2.27449 -1.53259,-3.56323 0,-1.28874 1.53259,-2.24154 1.53259,-3.53027 0,-1.28875 -1.53259,-2.2745 -1.53259,-3.56323 0,-1.28875 1.53259,-2.24154 1.53259,-3.53028 0,-1.28874 -1.53259,-2.27449 -1.53259,-3.56323 0,-1.28875 1.53259,-2.2745 1.53259,-3.56324 0,-0.46172 -0.11279,-0.87981 -0.28199,-1.27991 -0.16929,-0.40009 -0.38414,-0.76125 -0.68664,-1.06384 -0.3026,-0.30258 -0.66384,-0.54855 -1.06384,-0.71777 -0.4001,-0.16922 -0.84933,-0.28198 -1.31103,-0.28198 h -3.78297 v -10.62378 h 3.53211 c 0,-2.86865 -2.34553,-5.18738 -5.24964,-5.18738 -2.90419,0 -5.24963,2.31873 -5.24963,5.18738 0,0 -0.14243,6.59121 0.59326,12.1875 0.7357,5.59628 4.64366,18.0629 5.46937,24.34387 0.82579,6.28096 0.90453,16.49964 0.90453,16.49964 0,0.97509 -0.83084,1.78161 -1.84203,1.78161 -1.01121,0 -1.81275,-0.80652 -1.81275,-1.78161 0,0 -0.0841,-10.11686 -0.90637,-16.37513 -0.82281,-6.25827 -4.69993,-18.72758 -5.43823,-24.34387 -0.55371,-4.21222 -0.65202,-9.00764 -0.65552,-11.15662 -9.4e-4,-0.71632 0.0311,-1.15539 0.0311,-1.15539 h -21.46911 c -0.46173,0 -0.88165,0.11093 -1.28174,0.28015 -0.40009,0.16922 -0.75942,0.41701 -1.06201,0.71961 -0.30259,0.30258 -0.55039,0.66192 -0.71961,1.06201 -0.16922,0.40008 -0.28015,0.82001 -0.28015,1.28174 v 7.28027 h -35.28259 v -7.28027 c 0,-0.46173 -0.0798,-0.88166 -0.24903,-1.28174 -0.16922,-0.40009 -0.41701,-0.75943 -0.7196,-1.06201 -0.30259,-0.3026 -0.66192,-0.55039 -1.06201,-0.71961 -0.40009,-0.16922 -0.85114,-0.28015 -1.31287,-0.28015 h -32.17927 c 0,-2.86865 -2.37658,-5.18738 -5.28076,-5.18738 -2.90418,0 -5.25147,2.31873 -5.25147,5.18738 h 3.53211 v 10.62378 h -3.71888 c -0.46172,0 -0.91276,0.11276 -1.31286,0.28198 -0.40009,0.16922 -0.75942,0.41519 -1.06201,0.71777 -0.30259,0.30259 -0.55039,0.66375 -0.71961,1.06384 -0.16922,0.4001 -0.24902,0.81819 -0.24902,1.27991 z m 7.0935,-50.59386 v -35.4364 h 10.62562 v 35.4364 z m 0,-159.49951 V 766.9461 h 10.62562 v 35.43823 z m 46.36812,159.49951 v -35.4364 h 10.62561 v 35.4364 z m 0,-159.49951 V 766.9461 h 10.62561 v 35.43823 z m 9.09302,22.37549 c 0,-11.66352 9.46136,-21.12488 21.12488,-21.12488 11.66349,0 21.12488,9.46136 21.12488,21.12488 0,11.66352 -9.46139,21.12488 -21.12488,21.12488 -11.66352,0 -21.12488,-9.46136 -21.12488,-21.12488 z m 7.00012,104.56238 c 0,-17.60417 0.0311,-37.20846 0.0311,-54.81263 -1e-5,-0.73209 0.5807,-1.31286 1.31286,-1.31286 h 14.75098 c 0.73216,0 7.09392,8.36092 7.0935,9.09301 l -0.0311,39.28162 c -4.1e-4,0.73221 -6.33022,9.09485 -7.06238,9.09485 h -14.7821 c -0.73578,0 -1.31287,-0.60821 -1.31287,-1.34399 z m 3.65662,67.9688 v -38.75066 c 0,-0.9815 0.80012,-1.78161 1.78161,-1.78161 h 28.125 c 0.9815,0 1.78162,0.80011 1.78162,1.78161 V 997.291 c 0,0.9815 -0.80012,1.7504 -1.78162,1.7504 h -28.125 c -0.98149,0 -1.78161,-0.7689 -1.78161,-1.7504 z m 36.50024,-35.40716 v -35.4364 h 10.62562 v 35.4364 z m 0,-159.49951 V 766.9461 h 10.62562 v 35.43823 z"
       id="path4699"
       inkscape:connector-curvature="0"
       sodipodi:nodetypes="scccscccscscccsccscccscsccsccccscccscccsssssssssssssssssscccscccsccccscccccsccssccscccscscccscscssccccccccccccccccccccsssssscssccsssssssssssscccccccccc" />
    <path
       style="fill:none;stroke:#ff0000;stroke-width:0.35433072;stroke-miterlimit:4;stroke-dasharray:none;stroke-opacity:1"
       d="m 171.24775,1008.869 c 0,0.4617 0.0817,0.9128 0.25086,1.3129 0.1692,0.4001 0.41517,0.7594 0.71777,1.062 0.3026,0.3026 0.66375,0.5485 1.06384,0.7177 0.40011,0.1692 0.84934,0.2509 1.31104,0.2509 h 3.71887 v 10.6256 h -3.53027 c 0,2.8687 2.34543,5.1874 5.24963,5.1874 2.9042,0 5.28076,-2.3187 5.28076,-5.1874 0,0 0.11131,-6.5912 -0.62438,-12.1875 -0.73571,-5.5963 -4.64367,-18.0318 -5.46937,-24.3127 -0.82599,-6.281 -0.87524,-16.53263 -0.87524,-16.53263 0,-0.9751 0.80154,-1.74866 1.81274,-1.74866 1.01121,0 1.84388,0.77356 1.84388,1.74866 0,0 0.0526,10.14798 0.87524,16.40623 0.8227,6.2583 4.73106,18.6965 5.46936,24.3128 0.7383,5.6163 0.62439,12.3138 0.62439,12.3138 h 28.52505 c 0.4618,0 0.91277,-0.082 1.31286,-0.2508 0.40011,-0.1693 0.75942,-0.4152 1.06201,-0.7178 0.30261,-0.3026 0.54858,-0.6638 0.71778,-1.0639 0.169,-0.4 0.25086,-0.8511 0.25086,-1.3128 v -7.2803 h 35.28076 v 7.2803 c 0,0.4617 0.0816,0.9128 0.25085,1.3128 0.1692,0.4001 0.41518,0.7613 0.71777,1.0639 0.30261,0.3026 0.66375,0.5485 1.06385,0.7178 0.4001,0.1692 0.84923,0.2508 1.31104,0.2508 h 25.12561 c 0,2.8687 2.3455,5.1874 5.2497,5.1874 2.9042,0 5.2496,-2.3187 5.2496,-5.1874 h -3.5303 v -10.6256 h 3.7812 c 0.4618,0 0.8816,-0.082 1.2817,-0.2509 0.4001,-0.1692 0.7594,-0.4151 1.062,-0.7177 0.3026,-0.3026 0.5486,-0.6619 0.7178,-1.062 0.1692,-0.4001 0.282,-0.8512 0.282,-1.3129 V 712.71237 c 0,-0.46174 -0.1128,-0.88165 -0.282,-1.28174 -0.1692,-0.40009 -0.4152,-0.75942 -0.7178,-1.06201 -0.3026,-0.3026 -0.6619,-0.55039 -1.062,-0.71961 -0.4001,-0.16922 -0.8199,-0.28015 -1.2817,-0.28015 h -3.7812 v -10.62562 h 3.5614 c 0,-2.86864 -2.3765,-5.18737 -5.2807,-5.18737 -2.9042,0 -5.2497,2.31873 -5.2497,5.18737 H 259.4597 c -0.46181,0 -0.87981,0.11277 -1.27992,0.28199 -0.40009,0.16922 -0.76124,0.41519 -1.06383,0.71777 -0.30261,0.30259 -0.54858,0.66375 -0.71778,1.06385 -0.1692,0.40009 -0.28198,0.81817 -0.28198,1.2799 v 7.28211 h -35.24964 v -7.28211 c 0,-0.46173 -0.11278,-0.87981 -0.28198,-1.2799 -0.1692,-0.4001 -0.41517,-0.76126 -0.71778,-1.06385 -0.30259,-0.30258 -0.6619,-0.54855 -1.06201,-0.71777 -0.40009,-0.16922 -0.82004,-0.28199 -1.28174,-0.28199 h -28.55617 c 0,0 9.3e-4,0.40978 0,1.12611 -0.004,2.14897 -0.0706,6.97369 -0.62439,11.18591 -0.7383,5.61629 -4.64666,18.05447 -5.46936,24.31274 -0.823,6.25828 -0.87524,16.40626 -0.87524,16.40626 0,0.9751 -0.83267,1.75049 -1.84388,1.75049 -1.0112,0 -1.81274,-0.77539 -1.81274,-1.75049 0,0 0.0496,-10.21868 0.87524,-16.49964 0.8257,-6.28097 4.73366,-18.74759 5.46937,-24.34388 0.73569,-5.59628 0.62438,-12.1875 0.62438,-12.1875 0,-2.86864 -2.34543,-5.18737 -5.24963,-5.18737 -2.9042,0 -5.28076,2.31873 -5.28076,5.18737 h 3.5614 v 10.62562 h -3.75 c -0.4617,0 -0.91093,0.11093 -1.31104,0.28015 -0.40009,0.16922 -0.76124,0.41701 -1.06384,0.71961 -0.3026,0.30259 -0.54857,0.66192 -0.71777,1.06201 -0.16901,0.40009 -0.25086,0.82 -0.25086,1.28174 0,1.28873 1.5326,2.27449 1.5326,3.56323 0,1.28874 -1.5326,2.24154 -1.5326,3.53027 0,1.28875 1.5326,2.2745 1.5326,3.56323 0,1.28875 -1.5326,2.27267 -1.5326,3.5614 0,1.28875 1.5326,2.24337 1.5326,3.53211 0,1.28874 -1.5326,2.27266 -1.5326,3.5614 0,1.28874 1.5326,2.24337 1.5326,3.53211 0,1.28873 -1.5326,2.27449 -1.5326,3.56323 v 239.34266 c 0,1.28874 1.5326,2.27449 1.5326,3.56324 0,1.28875 -1.5326,2.24155 -1.5326,3.53025 0,1.2888 1.5326,2.2745 1.5326,3.5633 0,1.2887 -1.5326,2.2744 -1.5326,3.5632 0,1.2887 1.5326,2.2415 1.5326,3.5303 0,1.2887 -1.5326,2.2744 -1.5326,3.5632 0,1.2887 1.5326,2.2415 1.5326,3.5303 0,1.2887 -1.5326,2.2745 -1.5326,3.5632 z m 7.09351,-50.59388 v -35.43823 h 10.62561 v 35.43823 z m 0,-159.53065 v -35.4071 h 10.62561 v 35.4071 z m 46.36868,-15.21423 v -31.80542 h 10.6256 v 31.80542 z m 56.24987,174.74488 v -35.43823 h 10.6257 v 35.43823 z m 0,-159.53065 v -35.4071 h 10.6257 v 35.4071 z"
       id="path3412"
       inkscape:connector-curvature="0"
       sodipodi:nodetypes="scscscccsccccsccscscccsccscccscscccscssssscsscccscscccsccscccscccccsccccscccscccssssssssssssssssssccccccccccccccccccccccccc" />
    <path
       style="fill:none;stroke:#ff0000;stroke-width:0.35433072;stroke-miterlimit:4;stroke-dasharray:none;stroke-opacity:1"
       d="m 666.96988,942.89031 c 0,-0.46173 -0.082,-0.91278 -0.2509,-1.31287 -0.1692,-0.40008 -0.4152,-0.75943 -0.7178,-1.06201 -0.3025,-0.3026 -0.6637,-0.55038 -1.0638,-0.7196 -0.4,-0.16922 -0.8638,-0.13391 -1.311,-0.24902 h -7.2821 v -0.002 h -4.6363 -22.2327 -18.2062 v -20.35583 h 18.2062 V 735.47942 h 26.869 v -24.34754 l -0.3443,-0.34423 h -22.2638 v -7.24366 c 0,-0.4617 -0.1128,-0.91276 -0.282,-1.31286 -0.1693,-0.4001 -0.417,-0.75941 -0.7197,-1.06201 -0.3026,-0.3026 -0.6618,-0.55041 -1.062,-0.71961 -0.4001,-0.1693 -0.8199,-0.24902 -1.2817,-0.24902 h -28.7494 c -0.4618,0 -0.9127,0.08 -1.3129,0.24902 -0.4001,0.1692 -0.7594,0.41701 -1.062,0.71961 -0.3026,0.3026 -0.5504,0.66191 -0.7196,1.06201 -0.1692,0.4001 -0.249,0.85116 -0.249,1.31286 v 7.24366 h -85.6147 v -7.24366 c 0,-0.4617 -0.1091,-0.91276 -0.2782,-1.31286 -0.1692,-0.4001 -0.4171,-0.75941 -0.7196,-1.06201 -0.3027,-0.3026 -0.662,-0.55041 -1.062,-0.71961 -0.4002,-0.1693 -0.82,-0.24902 -1.2818,-0.24902 h -28.7494 c -0.4618,0 -0.9128,0.08 -1.3128,0.24902 -0.4002,0.1692 -0.7595,0.41701 -1.062,0.71961 -0.3027,0.3026 -0.5504,0.66191 -0.7197,1.06201 -0.1693,0.4001 -0.249,0.85116 -0.249,1.31286 v 7.24366 h -22.4049 c -0.1963,0 -0.3424,0.14793 -0.3424,0.34423 v 53.56202 h -7.2821 c -0.4617,0 -0.9127,0.11276 -1.3129,0.28198 -0.4001,0.16922 -0.7593,0.41701 -1.062,0.71961 -0.3026,0.30258 -0.5504,0.66192 -0.7196,1.062 -0.1693,0.40009 -0.249,0.82001 -0.249,1.28175 v 28.74938 c 0,0.46173 0.08,0.91278 0.249,1.31288 0.1692,0.40005 0.417,0.75943 0.7196,1.062 0.3027,0.3026 0.6619,0.55038 1.062,0.71961 0.4002,0.16921 0.8512,0.24902 1.3129,0.24902 h 7.2821 v 124.06312 h -7.2821 c -0.4617,0 -0.9127,0.11092 -1.3129,0.28014 -0.4001,0.16922 -0.7593,0.41702 -1.062,0.71961 -0.3026,0.30258 -0.5504,0.66192 -0.7196,1.06201 -0.1693,0.4001 -0.249,0.82001 -0.249,1.28174 v 28.74939 c 0,0.46173 0.08,0.91277 0.249,1.31287 0.1692,0.40008 0.417,0.75942 0.7196,1.06201 0.3027,0.30258 0.6619,0.55038 1.062,0.7196 0.4002,0.16923 0.8512,0.24902 1.3129,0.24902 h 7.2821 v 53.62606 c 0,0.1963 0.1461,0.3424 0.3424,0.3424 h 8.9265 v -70.57429 h 58.0059 v 70.57429 h 12.9273 v -57.56464 h 48.5577 v 57.56464 h 15.1649 v -57.56464 h 48.5578 v 57.56464 h 9.0161 c 0.1963,0 0.3443,-0.1461 0.3443,-0.3424 v -41.90731 h 7.2821 c 0.4618,0 0.911,-0.11095 1.311,-0.28014 0.4001,-0.16923 0.7613,-0.3859 1.0638,-0.68848 0.3026,-0.30259 0.5486,-0.66193 0.7178,-1.06201 0.1692,-0.4001 0.2509,-0.85114 0.2509,-1.31287 z m -54.5839,-175.2356 v 79.55567 c 0,6.61057 -5.3224,11.93115 -11.933,11.93115 h -63.3618 c -6.6105,0 -11.9329,-5.32058 -11.9329,-11.93115 v -79.55567 c 0,-6.61057 5.3224,-11.93115 11.9329,-11.93115 h 63.3618 c 6.6106,0 11.933,5.32058 11.933,11.93115 z"
       id="rect3808-3-9-3"
       inkscape:connector-curvature="0" />
    <g
       id="g8266"
       transform="rotate(180,572.68727,603.16405)">
      <path
         sodipodi:nodetypes="ccccccccccscsssssssscsssssccsssscssscsscscccccccccccccccccccc"
         inkscape:connector-curvature="0"
         d="m 465.96746,409.89478 v -10.6256 h -35.43641 v 10.6256 z m -120.95399,0 v -10.6256 h -35.43639 v 10.6256 z m 42.82928,-60.5387 c -7.7665,0 -14.0625,4.3197 -14.0625,9.625 h -6.25 c -0.9815,0 -1.75,0.7997 -1.75,1.7812 v 2.6875 c 0,0.9815 0.7685,1.75 1.75,1.75 h 40.625 c 0.9815,0 1.78125,-0.7685 1.78125,-1.75 v -2.6875 c 0,-0.9815 -0.79975,-1.7812 -1.78125,-1.7812 h -6.25 c 0,-5.3053 -6.296,-9.625 -14.0625,-9.625 z m -108.06249,-23.9688 c -5.84359,0 -10.5625,4.7197 -10.5625,10.5313 v 116.9613 c 0,1.4464 0.28425,2.8406 0.8125,4.0938 0.52825,1.2532 1.30544,2.3647 2.25,3.3125 0.94455,0.9478 2.06358,1.7199 3.3125,2.25 1.24891,0.5301 2.62117,0.8125 4.0625,0.8125 H 496.0615 c 1.44133,0 2.81359,-0.2824 4.0625,-0.8125 1.24891,-0.5301 2.36795,-1.3022 3.3125,-2.25 0.94455,-0.9478 1.72175,-2.0905 2.25,-3.3438 0.52825,-1.2532 0.8125,-2.6161 0.8125,-4.0625 v -116.9613 c 0,-5.8116 -4.75016,-10.5313 -10.59375,-10.5313 -3.4762,0 -6.47903,1.7475 -8.5,4.25 -2.772,3.4325 -6.66944,6.2813 -20.28125,6.2813 H 308.59276 c -13.61181,0 -17.5405,-2.8488 -20.3125,-6.2813 -2.02097,-2.5025 -5.0238,-4.25 -8.5,-4.25 z m 208.99368,88.3467 v 42.5194 h 10.62992 v -42.5194 z m 0,-70.71 v 35.433 h 10.62992 v -35.433 z m -212.4782,70.7139 v 42.5195 h 10.62992 v -42.5195 z m 0,-70.71 v 35.433 h 10.62992 v -35.433 z"
         style="fill:none;stroke:#ff0000;stroke-width:0.35433072;stroke-miterlimit:4;stroke-dasharray:none;stroke-opacity:1"
         id="path4699-0-6" />
    </g>
    <g
       id="g3057"
       transform="rotate(180,-385.2967,1528.4114)">
      <path
         inkscape:connector-curvature="0"
         id="rect3808-3-9-1"
         transform="matrix(0.93750002,0,0,0.93750002,0,535.03926)"
         d="m -1595.0332,1952.3965 c -0.4925,0 -0.9717,0.085 -1.3984,0.2656 -0.4268,0.1805 -0.812,0.4449 -1.1348,0.7676 -0.3228,0.3228 -0.5852,0.7061 -0.7656,1.1328 -0.1806,0.4268 -0.2676,0.9079 -0.2676,1.4004 v 7.7656 h -8 v 95.0664 c 0,4.2484 -3.1108,7.668 -6.9766,7.668 h -1.0449 c -3.8657,0 -6.9785,-3.4196 -6.9785,-7.668 v -95.0664 h -34.1328 c -0.2094,0 -0.3672,0.1578 -0.3672,0.3672 v 214.5664 c 0,0.2094 0.1578,0.3672 0.3672,0.3672 h 57.1328 v 7.7676 c 0,0.4925 0.1203,0.9716 0.3008,1.3984 0.1805,0.4268 0.4428,0.812 0.7656,1.1348 0.3228,0.3228 0.708,0.5851 1.1348,0.7656 0.4267,0.1806 0.8727,0.2676 1.3652,0.2676 h 30.668 c 0.4924,0 0.9716,-0.087 1.3984,-0.2676 0.4268,-0.1805 0.812,-0.4428 1.1348,-0.7656 0.3227,-0.3228 0.585,-0.708 0.7656,-1.1348 0.1805,-0.4268 0.2676,-0.9059 0.2676,-1.3984 v -7.7676 h 132.334 v 7.7676 c 0,0.4925 0.1183,0.9716 0.2988,1.3984 0.1805,0.4268 0.4448,0.812 0.7676,1.1348 0.3227,0.3228 0.706,0.5851 1.1328,0.7656 0.4267,0.1806 0.8747,0.2676 1.3672,0.2676 h 30.666 c 0.4925,0 0.9736,-0.087 1.4004,-0.2676 0.4267,-0.1805 0.81,-0.4428 1.1328,-0.7656 0.3228,-0.3228 0.587,-0.708 0.7676,-1.1348 0.1804,-0.4268 0.2656,-0.9059 0.2656,-1.3984 v -7.7676 h 57.2012 c 0.2093,0 0.3652,-0.1578 0.3652,-0.3672 v -214.5664 c 0,-0.2094 -0.1559,-0.3672 -0.3652,-0.3672 h -57.2012 v -7.7656 c 0,-0.4925 -0.1203,-0.9736 -0.3008,-1.4004 -0.1805,-0.4267 -0.4096,-0.81 -0.7324,-1.1328 -0.3228,-0.3227 -0.7061,-0.5871 -1.1328,-0.7676 -0.4268,-0.1805 -0.9079,-0.2656 -1.4004,-0.2656 h -30.666 c -0.4925,0 -0.9737,0.085 -1.4004,0.2656 -0.4268,0.1805 -0.8101,0.4449 -1.1328,0.7676 -0.3228,0.3228 -0.5871,0.7061 -0.7676,1.1328 -0.1806,0.4268 -0.2656,0.9079 -0.2656,1.4004 v 7.7656 h -132.334 v -7.7656 c 0,-0.4925 -0.1203,-0.9736 -0.3008,-1.4004 -0.1805,-0.4267 -0.443,-0.81 -0.7656,-1.1328 -0.3228,-0.3227 -0.708,-0.5871 -1.1348,-0.7676 -0.4268,-0.1805 -0.8728,-0.2656 -1.3652,-0.2656 z m 96.6914,32.9902 h 27.0898 c 3.1686,0 5.7325,2.5641 5.7325,5.7324 v 27.0899 c 0,3.1684 -2.5641,5.7285 -5.7325,5.7285 h -27.0898 c -3.1682,0 -5.7305,-2.5603 -5.7305,-5.7285 v -27.0899 c 0,-3.1681 2.5622,-5.7324 5.7305,-5.7324 z m 54.6953,0 h 27.0899 c 3.1682,0 5.7304,2.5643 5.7304,5.7324 v 27.0899 c 0,3.1682 -2.5623,5.7285 -5.7304,5.7285 h -27.0899 c -3.1682,0 -5.7324,-2.5601 -5.7324,-5.7285 v -27.0899 c 0,-3.1683 2.564,-5.7324 5.7324,-5.7324 z m -54.6953,0.7559 c -2.7626,0 -4.9746,2.2139 -4.9746,4.9765 v 27.0899 c 0,2.7628 2.2118,4.9726 4.9746,4.9726 h 27.0898 c 2.7628,0 4.9766,-2.2099 4.9766,-4.9726 v -27.0899 c 0,-2.7624 -2.2139,-4.9765 -4.9766,-4.9765 z m 54.6953,0 c -2.7627,0 -4.9746,2.214 -4.9746,4.9765 v 27.0899 c 0,2.7627 2.2118,4.9726 4.9746,4.9726 h 27.0899 c 2.7625,0 4.9726,-2.2098 4.9726,-4.9726 v -27.0899 c 0,-2.7626 -2.2103,-4.9765 -4.9726,-4.9765 z m -54.6953,55.9375 h 27.0898 c 3.1685,0 5.7325,2.564 5.7325,5.7324 v 27.0898 c 0,3.1686 -2.5641,5.7305 -5.7325,5.7305 h -27.0898 c -3.1682,0 -5.7305,-2.5621 -5.7305,-5.7305 v -27.0898 c 0,-3.1682 2.5622,-5.7324 5.7305,-5.7324 z m 54.6953,0 h 27.0899 c 3.1682,0 5.7304,2.5642 5.7304,5.7324 v 27.0898 c 0,3.1684 -2.5623,5.7305 -5.7304,5.7305 h -27.0899 c -3.1682,0 -5.7324,-2.562 -5.7324,-5.7305 v -27.0898 c 0,-3.1684 2.564,-5.7324 5.7324,-5.7324 z m -54.6953,0.7578 c -2.7626,0 -4.9746,2.2118 -4.9746,4.9746 v 27.0898 c 0,2.7628 2.2118,4.9727 4.9746,4.9727 h 27.0898 c 2.7628,0 4.9766,-2.2101 4.9766,-4.9727 v -27.0898 c 0,-2.7626 -2.2139,-4.9746 -4.9766,-4.9746 z m 54.6953,0 c -2.7627,0 -4.9746,2.212 -4.9746,4.9746 v 27.0898 c 0,2.7626 2.2118,4.9727 4.9746,4.9727 h 27.0899 c 2.7625,0 4.9726,-2.2099 4.9726,-4.9727 v -27.0898 c 0,-2.7628 -2.2102,-4.9746 -4.9726,-4.9746 z"
         style="fill:none;stroke:#ff0000;stroke-width:0.37795275;stroke-miterlimit:4;stroke-dasharray:none;stroke-opacity:1" />
    </g>
    <g
       id="g1725"
       transform="translate(399.69224,-140.42188)">
      <g
         id="g1710">
        <path
           style="fill:currentColor;stroke-width:0.93749994"
           d="m 211.55102,717.66102 c -1.46632,0.01 -2.65686,1.1961 -2.65686,2.6624 v 23.0182 c 0,1.4663 1.19054,2.6569 2.65686,2.6569 h 15.93566 c 1.46633,0 2.65503,-1.1906 2.65503,-2.6569 v -0.7672 h -2.65503 v 0.7672 h -15.93566 v -23.0182 h 2.50488 v -2.6624 z"
           id="path3107-2"
           inkscape:connector-curvature="0" />
        <path
           inkscape:connector-curvature="0"
           style="fill:currentColor;stroke-width:0.93749988"
           d="m 235.64871,718.72102 -4.64243,-4.6424 c -0.498,-0.498 -1.17306,-0.7802 -1.87579,-0.7802 h -11.29344 c -1.46632,0.01 -2.65598,1.1952 -2.65598,2.6615 v 23.0185 c 0,1.4663 1.18966,2.656 2.65598,2.656 h 15.93587 c 1.46632,0 2.65598,-1.1897 2.65598,-2.656 v -18.3761 c 0,-0.7027 -0.2822,-1.3833 -0.78019,-1.8813 z m -2.09159,1.6656 h -4.21083 v -4.2109 z m -15.72007,18.5918 v -23.0185 h 8.85326 v 5.7546 c 0,0.736 0.59206,1.328 1.32799,1.328 h 5.75462 v 15.9359 z"
           id="path3107-2-2" />
        <path
           id="path1038"
           d="m 221.34823,729.77882 h 3.41677 v -3.4167 c 0,-0.4193 0.34002,-0.7592 0.75928,-0.7592 h 0.75928 c 0.41926,0 0.75929,0.3399 0.75929,0.7592 v 3.4167 h 3.41675 c 0.41927,0 0.75929,0.3401 0.75929,0.7594 v 0.7593 c 0,0.4191 -0.34002,0.7592 -0.75929,0.7592 h -3.41675 v 3.4167 c 0,0.4193 -0.34003,0.7594 -0.75929,0.7594 h -0.75928 c -0.41926,0 -0.75928,-0.3401 -0.75928,-0.7594 v -3.4167 h -3.41677 c -0.41927,0 -0.75928,-0.3401 -0.75928,-0.7592 v -0.7593 c 0,-0.4193 0.34001,-0.7594 0.75928,-0.7594 z"
           inkscape:connector-curvature="0"
           style="fill:currentColor;stroke-width:0.93749976" />
      </g>
      <g
         id="g1714">
        <path
           inkscape:connector-curvature="0"
           style="fill:currentColor;stroke-width:0.9375"
           d="m 180.77764,720.71622 -4.64243,-4.6424 c -0.498,-0.498 -1.17306,-0.7802 -1.87579,-0.7802 h -11.29344 c -1.46632,0.01 -2.65598,1.1952 -2.65598,2.6615 v 23.0185 c 0,1.4663 1.18966,2.656 2.65598,2.656 h 15.93587 c 1.46632,0 2.65598,-1.1897 2.65598,-2.656 v -18.3761 c 0,-0.7027 -0.2822,-1.3833 -0.78019,-1.8813 z m -2.09159,1.6656 h -4.21083 v -4.2109 z m -15.72007,18.5918 v -23.0185 h 8.85326 v 5.7546 c 0,0.736 0.59206,1.328 1.32799,1.328 h 5.75462 v 15.9359 z"
           id="path3107" />
        <path
           id="path1049"
           d="m 175.62453,734.82592 -2.82194,-1.6282 2.82194,-1.6282 c 0.15904,-0.092 0.21344,-0.2948 0.12163,-0.4538 l -0.66476,-1.1508 c -0.0918,-0.1587 -0.295,-0.2134 -0.45402,-0.1219 l -2.82196,1.6282 v -3.2562 c 0,-0.1835 -0.14887,-0.3322 -0.33237,-0.3322 h -1.3295 c -0.18352,0 -0.33238,0.149 -0.33238,0.3322 v 3.2564 l -2.82194,-1.6283 c -0.15904,-0.092 -0.36229,-0.038 -0.45405,0.122 l -0.66475,1.1506 c -0.0918,0.1588 -0.0373,0.362 0.12163,0.4538 l 2.82195,1.6282 -2.82195,1.6282 c -0.15904,0.092 -0.21343,0.295 -0.12163,0.4538 l 0.66475,1.1508 c 0.0918,0.1587 0.29501,0.2133 0.45405,0.1219 l 2.82194,-1.6282 v 3.2562 c 0,0.1837 0.14888,0.3323 0.33238,0.3323 h 1.3295 c 0.18352,0 0.33237,-0.1491 0.33237,-0.3323 v -3.2564 l 2.82196,1.6283 c 0.15902,0.092 0.36227,0.038 0.45402,-0.122 l 0.66476,-1.1507 c 0.0918,-0.1588 0.0373,-0.3619 -0.12163,-0.4537 z"
           inkscape:connector-curvature="0"
           style="fill:currentColor;stroke-width:0.93749988" />
      </g>
      <path
         style="fill:currentColor;stroke-width:0.9375"
         inkscape:connector-curvature="0"
         d="m 161.36433,793.50562 a 2.4130746,2.4130746 0 0 0 2.41309,2.4131 h 14.47844 a 2.4130746,2.4130746 0 0 0 2.41305,-2.4131 v -16.8915 h -19.30458 z m 13.6741,-12.8697 a 0.80435815,0.80435815 0 0 1 1.60871,0 v 11.261 a 0.80435815,0.80435815 0 0 1 -1.60871,0 z m -4.82615,0 a 0.80436,0.80436 0 0 1 1.60872,0 v 11.261 a 0.80436,0.80436 0 0 1 -1.60872,0 z m -4.82615,0 a 0.80435815,0.80435815 0 0 1 1.60871,0 v 11.261 a 0.80435815,0.80435815 0 0 1 -1.60871,0 z m 16.08716,-8.8479 h -6.03271 l -0.47253,-0.9401 a 1.2065373,1.2065373 0 0 0 -1.08087,-0.6686 h -5.74614 a 1.1924611,1.1924611 0 0 0 -1.07581,0.6686 l -0.47257,0.9401 h -6.03268 a 0.80435815,0.80435815 0 0 0 -0.80437,0.8043 v 1.6087 a 0.80435815,0.80435815 0 0 0 0.80437,0.8044 h 20.91331 a 0.80435815,0.80435815 0 0 0 0.80434,-0.8044 v -1.6087 a 0.80435815,0.80435815 0 0 0 -0.80434,-0.8043 z"
         id="path1060" />
      <path
         id="path1119"
         d="m 222.29235,770.54232 c -6.79761,0 -12.30812,5.5105 -12.30812,12.3081 0,6.7976 5.51051,12.3081 12.30812,12.3081 6.79761,0 12.30813,-5.5105 12.30813,-12.3081 0,-6.7976 -5.51052,-12.3081 -12.30813,-12.3081 z m 0,2.3822 c 5.48565,0 9.92591,4.4394 9.92591,9.9259 0,5.4856 -4.43941,9.9259 -9.92591,9.9259 -5.48565,0 -9.92591,-4.4394 -9.92591,-9.9259 0,-5.4857 4.43942,-9.9259 9.92591,-9.9259 m 6.95826,6.4651 -1.11845,-1.1275 c -0.23162,-0.2335 -0.60871,-0.2351 -0.84221,0 l -7.01524,6.9589 -2.96745,-2.9916 c -0.23162,-0.2335 -0.6087,-0.235 -0.84221,0 l -1.12753,1.1185 c -0.23351,0.2316 -0.23505,0.6087 -0.003,0.8422 l 4.50542,4.5419 c 0.23162,0.2335 0.60871,0.2351 0.84222,0 l 8.56551,-8.4968 c 0.23346,-0.2316 0.23494,-0.6087 0.003,-0.8422 z"
         style="fill:currentColor;stroke-width:0.93750012"
         inkscape:connector-curvature="0" />
    </g>
    <g
       id="g1780"
       transform="rotate(180,390.65575,684.13574)">
      <path
         d="m 230.93629,861.5108 1.00708,-1.77613 q 4.41284,2.52686 7.80029,2.52686 2.76489,0 4.57764,-1.0437 2.23389,-1.30005 2.23389,-3.86353 0,-3.31421 -3.99171,-4.41285 -3.71703,-0.86059 -7.43407,-1.72119 -3.99171,-1.5747 -3.99171,-6.02417 0,-3.36914 2.83814,-5.32836 2.50855,-1.73951 6.02417,-1.73951 3.77198,0 8.80737,1.94092 l -0.73242,1.9043 q -4.57763,-1.79444 -8.07495,-1.79444 -2.61841,0 -4.54102,1.17188 -2.27051,1.39161 -2.27051,3.84521 0,3.40577 3.99171,4.54102 3.71704,0.86059 7.43407,1.70288 3.99171,1.53808 3.99171,5.91431 0,3.479 -2.80152,5.34668 -2.41699,1.61133 -6.06079,1.61133 -3.90015,0 -8.80737,-2.80151 z"
         id="path1735"
         inkscape:connector-curvature="0"
         style="font-style:normal;font-variant:normal;font-weight:normal;font-stretch:normal;font-size:40px;line-height:1.25;font-family:Abydos;-inkscape-font-specification:Abydos;letter-spacing:0px;word-spacing:0px;fill:#000000;fill-opacity:1;stroke:none;stroke-width:0.9375" />
      <path
         d="m 212.14967,839.51983 q 2.85644,-1.22681 5.10864,-1.22681 4.02832,0 6.97632,2.58179 3.09448,2.69164 3.09448,6.64672 0,3.95508 -3.09448,6.64674 -2.948,2.58178 -6.97632,2.58178 -2.21558,0 -5.10864,-1.2085 l 0.78735,-1.88598 q 2.49023,1.0437 4.32129,1.0437 3.16772,0 5.52978,-1.97754 2.49024,-2.08741 2.49024,-5.2002 0,-3.11279 -2.49024,-5.20019 -2.36206,-1.97754 -5.52978,-1.97754 -1.79444,0 -4.32129,1.06201 z"
         id="path1737"
         inkscape:connector-curvature="0"
         style="font-style:normal;font-variant:normal;font-weight:normal;font-stretch:normal;font-size:40px;line-height:1.25;font-family:Abydos;-inkscape-font-specification:Abydos;letter-spacing:0px;word-spacing:0px;fill:#000000;fill-opacity:1;stroke:none;stroke-width:0.9375" />
      <path
         d="m 191.69678,839.17192 1.84937,-0.86059 2.78321,5.98755 h 8.05664 l 2.80151,-5.98755 1.84936,0.86059 -7.74535,16.64429 h -1.86768 z m 5.58472,7.17774 3.07617,6.59179 3.07617,-6.59179 z"
         id="path1739"
         inkscape:connector-curvature="0"
         style="font-style:normal;font-variant:normal;font-weight:normal;font-stretch:normal;font-size:40px;line-height:1.25;font-family:Abydos;-inkscape-font-specification:Abydos;letter-spacing:0px;word-spacing:0px;fill:#000000;fill-opacity:1;stroke:none;stroke-width:0.9375" />
      <path
         d="m 175.69337,840.28887 1.84936,-0.62256 8.99048,12.01172 v -13.03711 h 2.05078 v 16.11328 l -1.84936,0.62256 -8.99048,-12.01172 v 13.03711 h -2.05078 z"
         id="path1741"
         inkscape:connector-curvature="0"
         style="font-style:normal;font-variant:normal;font-weight:normal;font-stretch:normal;font-size:40px;line-height:1.25;font-family:Abydos;-inkscape-font-specification:Abydos;letter-spacing:0px;word-spacing:0px;fill:#000000;fill-opacity:1;stroke:none;stroke-width:0.9375" />
      <path
         d="m 154.21509,861.5108 1.00708,-1.77613 q 4.41285,2.52686 7.8003,2.52686 2.76489,0 4.57764,-1.0437 2.23388,-1.30005 2.23388,-3.86353 0,-3.31421 -3.99169,-4.41285 -3.71705,-0.86059 -7.43409,-1.72119 -3.99169,-1.5747 -3.99169,-6.02417 0,-3.36914 2.83813,-5.32836 2.50854,-1.73951 6.02417,-1.73951 3.77197,0 8.80737,1.94092 l -0.73242,1.9043 q -4.57764,-1.79444 -8.07495,-1.79444 -2.61841,0 -4.54102,1.17188 -2.2705,1.39161 -2.2705,3.84521 0,3.40577 3.99169,4.54102 3.71704,0.86059 7.43409,1.70288 3.99169,1.53808 3.99169,5.91431 0,3.479 -2.80151,5.34668 -2.41699,1.61133 -6.06079,1.61133 -3.90015,0 -8.80738,-2.80151 z"
         id="path1743"
         inkscape:connector-curvature="0"
         style="font-style:normal;font-variant:normal;font-weight:normal;font-stretch:normal;font-size:40px;line-height:1.25;font-family:Abydos;-inkscape-font-specification:Abydos;letter-spacing:0px;word-spacing:0px;fill:#000000;fill-opacity:1;stroke:none;stroke-width:0.9375" />
      <path
         d="m 134.56788,854.35137 h 6.99463 v -15.71045 h 2.05078 v 15.71045 h 6.99463 v 2.05078 h -16.04004 z"
         id="path1745"
         inkscape:connector-curvature="0"
         style="font-style:normal;font-variant:normal;font-weight:normal;font-stretch:normal;font-size:40px;line-height:1.25;font-family:Abydos;-inkscape-font-specification:Abydos;letter-spacing:0px;word-spacing:0px;fill:#000000;fill-opacity:1;stroke:none;stroke-width:0.9375" />
      <path
         d="m 114.11499,839.17192 1.84937,-0.86059 2.7832,5.98755 h 8.05665 l 2.80151,-5.98755 1.84937,0.86059 -7.74537,16.64429 h -1.86767 z m 5.58473,7.17774 3.07617,6.59179 3.07617,-6.59179 z"
         id="path1747"
         inkscape:connector-curvature="0"
         style="font-style:normal;font-variant:normal;font-weight:normal;font-stretch:normal;font-size:40px;line-height:1.25;font-family:Abydos;-inkscape-font-specification:Abydos;letter-spacing:0px;word-spacing:0px;fill:#000000;fill-opacity:1;stroke:none;stroke-width:0.9375" />
      <path
         d="m 94.962167,854.35137 h 6.994623 v -15.71045 h 2.05078 v 15.71045 h 6.99463 v 2.05078 H 94.962167 Z"
         id="path1749"
         inkscape:connector-curvature="0"
         style="font-style:normal;font-variant:normal;font-weight:normal;font-stretch:normal;font-size:40px;line-height:1.25;font-family:Abydos;-inkscape-font-specification:Abydos;letter-spacing:0px;word-spacing:0px;fill:#000000;fill-opacity:1;stroke:none;stroke-width:0.9375" />
      <path
         d="m 88.699957,838.64092 h 2.050782 v 17.76123 h -2.050782 z"
         id="path1751"
         inkscape:connector-curvature="0"
         style="font-style:normal;font-variant:normal;font-weight:normal;font-stretch:normal;font-size:40px;line-height:1.25;font-family:Abydos;-inkscape-font-specification:Abydos;letter-spacing:0px;word-spacing:0px;fill:#000000;fill-opacity:1;stroke:none;stroke-width:0.9375" />
      <path
         d="m 65.866704,847.52153 q 0,-3.66211 2.85645,-6.15234 2.746575,-2.38037 6.463622,-2.38037 3.717037,0 6.445313,2.38037 2.85644,2.49023 2.85644,6.15234 0,3.66211 -2.85644,6.15235 -2.728276,2.38037 -6.445313,2.38037 -3.717047,0 -6.463622,-2.38037 -2.85645,-2.49024 -2.85645,-6.15235 z m 2.050781,0 q 0,2.80152 2.270513,4.6875 2.142328,1.79443 4.998778,1.79443 2.856441,0 4.998778,-1.79443 2.252194,-1.88598 2.252194,-4.6875 0,-2.80151 -2.252194,-4.6875 -2.142337,-1.79443 -4.998778,-1.79443 -2.85645,0 -4.998778,1.79443 -2.270513,1.88599 -2.270513,4.6875 z"
         id="path1753"
         inkscape:connector-curvature="0"
         style="font-style:normal;font-variant:normal;font-weight:normal;font-stretch:normal;font-size:40px;line-height:1.25;font-family:Abydos;-inkscape-font-specification:Abydos;letter-spacing:0px;word-spacing:0px;fill:#000000;fill-opacity:1;stroke:none;stroke-width:0.9375" />
      <path
         d="m 49.863287,840.28887 1.849365,-0.62256 8.990479,12.01172 v -13.03711 h 2.050782 v 16.11328 l -1.849367,0.62256 -8.990478,-12.01172 v 13.03711 h -2.050781 z"
         id="path1755"
         inkscape:connector-curvature="0"
         style="font-style:normal;font-variant:normal;font-weight:normal;font-stretch:normal;font-size:40px;line-height:1.25;font-family:Abydos;-inkscape-font-specification:Abydos;letter-spacing:0px;word-spacing:0px;fill:#000000;fill-opacity:1;stroke:none;stroke-width:0.9375" />
    </g>
  </g>
</svg>
